

<svg width="29" height="29" viewBox="0 0 29 29" fill="none" xmlns="http://www.w3.org/2000/svg">
<g clip-path="url(#clip0)">
<path d="M21.9728 19.2641L19.4762 18.855L14.4838 22.922L9.53489 18.8554L7.03968 19.2641C6.9285 19.2823 6.82417 19.3164 6.71802 19.3467L6.73057 19.5446L14.5064 25.8619L22.2819 19.5446L22.2945 19.3467C22.1883 19.3164 22.0842 19.2823 21.9728 19.2641Z" fill="#06234A"/>
<path d="M21.5195 13.1036V7.49316H7.49335V13.1036C5.68894 13.1036 4.22058 14.5722 4.22058 16.3764C4.22058 17.7977 5.13306 19.0072 6.40212 19.4581C6.60439 19.372 6.81487 19.301 7.03974 19.264L12.1687 18.4237V16.7627C11.1442 16.1684 10.3643 15.1982 10.023 14.0387H9.83104C8.79826 14.0387 7.96089 13.2013 7.96089 12.1685C7.96089 11.1358 8.79826 10.2984 9.83104 10.2984C11.0905 10.0464 12.2071 9.35122 12.9954 8.35587L13.1038 8.42824C14.0019 9.32656 15.2198 9.83086 16.49 9.83086H16.8441V9.39528C17.4616 9.67653 18.1358 9.83086 18.8277 9.83086H19.1818V10.2984C20.2146 10.2984 21.052 11.1358 21.052 12.1685C21.052 13.2013 20.2146 14.0387 19.1818 14.0387H18.9896C18.6483 15.1986 17.8689 16.1684 16.8441 16.7627V18.4237L21.9729 19.264C22.1982 19.301 22.4082 19.3725 22.6107 19.4581C23.8796 19.0072 24.7923 17.7977 24.7923 16.3764C24.7923 14.5722 23.3237 13.1036 21.5195 13.1036Z" fill="#06234A"/>
<path d="M14.5064 15.909C15.5026 15.909 16.3765 15.0353 16.3765 14.0388H15.4414C15.4414 14.4714 15.0328 14.9739 14.5064 14.9739C13.9906 14.9739 13.5713 14.5545 13.5713 14.0388H12.6362C12.6362 15.0702 13.4749 15.909 14.5064 15.909Z" fill="black"/>
<path d="M12.6362 11.3154C12.6362 11.5736 12.4269 11.783 12.1687 11.783C11.9105 11.783 11.7011 11.5736 11.7011 11.3154C11.7011 11.0572 11.9105 10.8479 12.1687 10.8479C12.4269 10.8479 12.6362 11.0572 12.6362 11.3154Z" fill="black"/>
<path d="M17.3116 11.3154C17.3116 11.5736 17.1023 11.783 16.8441 11.783C16.5859 11.783 16.3766 11.5736 16.3766 11.3154C16.3766 11.0572 16.5859 10.8479 16.8441 10.8479C17.1023 10.8479 17.3116 11.0572 17.3116 11.3154Z" fill="black"/>
<path d="M14.0388 26.1948H14.9739V27.1299H14.0388V26.1948Z" fill="black"/>
<path d="M22.9225 2.71323V1.97996L14.5068 0L6.09115 1.97996V2.71254C2.28099 5.43605 0.0131531 9.8126 0.0131531 14.5062C0.0131531 22.4985 6.51463 28.9999 14.5068 28.9999C22.4988 28.9999 29.0005 22.4985 29.0005 14.5062C29.0005 9.8094 26.7338 5.4365 22.9225 2.71323ZM28.0654 14.5062C28.0654 17.8726 26.8311 20.9559 24.7927 23.3292V22.0323C24.7927 20.4217 23.6387 19.0629 22.0491 18.8024L19.363 18.3625L19.3541 18.3518L19.3448 18.3598L17.3121 18.0265V17.0227C18.2302 16.4223 18.9423 15.5358 19.3281 14.4914C20.5479 14.4147 21.5199 13.4075 21.5199 12.1686C21.5199 11.0399 20.7152 10.0954 19.6498 9.87812V7.96071H21.5199V3.45745L22.1909 3.3392C25.8707 5.8755 28.0654 10.0352 28.0654 14.5062ZM9.43081 13.5059C8.85323 13.3324 8.42884 12.8016 8.42884 12.1686C8.42884 11.5599 8.82104 11.0456 9.36392 10.852V12.718C9.36392 12.9863 9.39086 13.2481 9.43081 13.5059ZM8.42884 3.62251L14.4253 4.68063L14.5068 4.69547L20.5848 3.62297V7.02563H8.42884V3.62251ZM19.6498 10.852C20.1924 11.0456 20.5848 11.5599 20.5848 12.1686C20.5848 12.8016 20.1602 13.3324 19.5829 13.5059C19.6226 13.2481 19.6498 12.9863 19.6498 12.718V10.852ZM18.7147 9.35784C17.6034 9.32931 16.5621 8.88688 15.7725 8.09768L15.1114 8.75881C15.3104 8.95811 15.5259 9.13389 15.7494 9.29643C14.9625 9.16151 14.2343 8.81086 13.6297 8.27461C13.6852 8.19219 13.745 8.11275 13.7966 8.02714L13.8363 7.96071H18.7147V9.35784ZM12.7152 7.96071C12.1077 8.77251 11.261 9.37611 10.299 9.69023V7.96071H12.7152ZM10.299 10.6607C11.3555 10.3751 12.3107 9.80438 13.0526 9.01175C14.0073 9.84113 15.2127 10.2984 16.49 10.2984H16.8445V9.91145C17.4317 10.1507 18.0634 10.2792 18.7147 10.2929V12.718C18.7147 15.0384 16.8272 16.9259 14.5068 16.9259C12.1863 16.9259 10.299 15.0384 10.299 12.718V10.6607ZM14.5068 17.861C15.1668 17.861 15.7962 17.7313 16.377 17.5037V18.0217L14.5068 19.5184L12.6367 18.0217V17.5037C13.2172 17.7313 13.8466 17.861 14.5068 17.861ZM12.2228 18.8885L14.5068 20.7153L16.7907 18.8885L18.3761 19.1485L14.4856 22.3179L10.63 19.1499L12.2228 18.8885ZM14.5068 0.960417L21.2711 2.55183L14.5068 3.74556L7.74237 2.55228L14.5068 0.960417ZM6.82099 3.33874L7.49376 3.45745V7.96071H9.36392V9.87812C8.29826 10.0954 7.49376 11.0394 7.49376 12.1686C7.49376 13.4075 8.4656 14.4147 9.68558 14.4919C10.0712 15.5363 10.7827 16.4223 11.7016 17.0231V18.0269L9.66868 18.3598L9.66069 18.3532L9.65316 18.3621L6.96436 18.8024C5.37478 19.0629 4.221 20.4212 4.221 22.0323V23.3292C2.18237 20.9559 0.948229 17.8726 0.948229 14.5062C0.948229 10.0391 3.14233 5.87596 6.82099 3.33874ZM20.5848 20.9237V26.6207C20.2794 26.7746 19.9675 26.9181 19.6498 27.049V21.6835L18.7147 22.4432V27.393C17.3892 27.827 15.9752 28.0649 14.5068 28.0649C13.0382 28.0649 11.6244 27.827 10.299 27.393V22.4432L9.36392 21.6835V27.049C9.04591 26.9181 8.73407 26.7746 8.42884 26.6207V20.9237L7.49376 20.164V26.1059C6.64841 25.5932 5.86765 24.9852 5.15607 24.3058V22.0318C5.15607 20.8812 5.9802 19.911 7.11594 19.725L9.40227 19.3506L14.4829 23.5255L19.6089 19.3501L21.8975 19.725C23.0332 19.9115 23.8576 20.8817 23.8576 22.0323V24.3063C23.146 24.9857 22.365 25.5932 21.5199 26.1063V20.164L20.5848 20.9237Z" fill="black"/>
</g>
<defs>
<clipPath id="clip0">
<rect width="29" height="29" fill="white"/>
</clipPath>
</defs>
</svg>
