

<svg width="29" height="29" viewBox="0 0 29 29" fill="none" xmlns="http://www.w3.org/2000/svg">
<path d="M2.71875 17.6719H9.53947V19.4844H2.71875V17.6719Z" fill="url(#paint0_linear)"/>
<path d="M2.71875 24.9219H14.1184V26.7344H2.71875V24.9219Z" fill="url(#paint1_linear)"/>
<path d="M2.71875 10.4219L9.53947 10.4219V12.2344H2.71875V10.4219Z" fill="url(#paint2_linear)"/>
<path d="M11.3281 19.9375V21.75V24.0156H18.5781V21.75H26.7344V19.9375H11.3281Z" fill="white"/>
<path d="M28.1187 4.54044L24.1343 0.795357C23.881 0.557467 23.5507 0.426514 23.2036 0.426514H10.875C10.1255 0.426514 9.51562 1.03642 9.51562 1.78589V8.59515L1.4142 8.64937C0.859578 8.82065 0.453125 9.33223 0.453125 9.94214V12.6609C0.453125 13.4104 1.06303 14.0203 1.8125 14.0203V15.8328C1.06303 15.8328 0.453125 16.4427 0.453125 17.1921V19.9109C0.453125 20.6604 1.06303 21.2703 1.8125 21.2703V23.0828C1.06303 23.0828 0.453125 23.6927 0.453125 24.4421V27.1609C0.453125 27.9104 1.06303 28.5203 1.8125 28.5203H13.5938C14.3432 28.5203 14.9531 27.9104 14.9531 27.1609V25.8015H27.1875C27.937 25.8015 28.5469 25.1916 28.5469 24.4421V5.53097C28.5469 5.15759 28.391 4.7969 28.1187 4.54044ZM24.0156 1.92726L27.2396 4.95776H24.4688C24.2186 4.95776 24.0156 4.75431 24.0156 4.50464V1.92726ZM1.35938 12.6609V9.94214C1.35938 9.70062 1.55059 9.50623 1.78939 9.49354H3.23107C3.59765 9.49354 5.85528 9.48901 5.85528 9.48901H9.51562V13.114H1.8125C1.56237 13.114 1.35938 12.9106 1.35938 12.6609ZM2.71875 14.0203H9.51562V15.8328H2.71875V14.0203ZM1.35938 19.9109V17.1921C1.35938 16.9425 1.56237 16.739 1.8125 16.739H9.51562V20.364H1.8125C1.56237 20.364 1.35938 20.1606 1.35938 19.9109ZM2.71875 21.2703H9.51562V23.0828H2.71875V21.2703ZM14.0469 27.1609C14.0469 27.4106 13.8439 27.614 13.5938 27.614H1.8125C1.56237 27.614 1.35938 27.4106 1.35938 27.1609V24.4421C1.35938 24.1925 1.56237 23.989 1.8125 23.989H9.51562V24.4421C9.51562 25.1916 10.1255 25.8015 10.875 25.8015H14.0469V27.1609ZM27.1875 24.8953H10.875C10.6249 24.8953 10.4219 24.6918 10.4219 24.4421V7.67651V1.78589C10.4219 1.53622 10.6249 1.33276 10.875 1.33276H23.1094V4.50464C23.1094 5.25411 23.7193 5.86401 24.4688 5.86401H27.6406V24.4421C27.6406 24.6918 27.4376 24.8953 27.1875 24.8953Z" fill="#06234A"/>
<path d="M2.26562 24.9219H3.17188V26.7344H2.26562V24.9219Z" fill="#06234A"/>
<path d="M4.07812 24.9219H4.98438V26.7344H4.07812V24.9219Z" fill="#06234A"/>
<path d="M2.26562 17.6719H3.17188V19.4844H2.26562V17.6719Z" fill="#06234A"/>
<path d="M4.07812 17.6719H4.98438V19.4844H4.07812V17.6719Z" fill="#06234A"/>
<path d="M2.26562 10.4219H3.17188V12.2344H2.26562V10.4219Z" fill="#06234A"/>
<path d="M4.07812 10.4219H4.98438V12.2344H4.07812V10.4219Z" fill="#06234A"/>
<path d="M13.1406 2.26562H14.0469V3.17188H13.1406V2.26562Z" fill="#06234A"/>
<path d="M11.3281 2.26562H12.2344V3.17188H11.3281V2.26562Z" fill="#06234A"/>
<path d="M14.9531 2.26562H15.8594V3.17188H14.9531V2.26562Z" fill="#06234A"/>
<path d="M11.3281 19.4844H26.7344V20.3906H11.3281V19.4844Z" fill="#06234A"/>
<path d="M11.3281 21.2969H26.7344V22.2031H11.3281V21.2969Z" fill="#06234A"/>
<path d="M11.3281 23.1094H16.7656V24.0156H11.3281V23.1094Z" fill="#06234A"/>
<path d="M17.6719 23.1094H18.5781V24.0156H17.6719V23.1094Z" fill="#06234A"/>
<ellipse cx="19.6177" cy="11.0881" rx="2.55882" ry="2.55882" fill="url(#paint3_linear)"/>
<path d="M20.519 9.25537L18.9742 11.1862L18.4081 10.6201L17.7465 11.2816L18.6822 12.2173C18.7697 12.3057 18.889 12.3549 19.013 12.3549C19.0219 12.3549 19.0303 12.3549 19.0392 12.3544C19.1716 12.3469 19.2956 12.2833 19.3788 12.1794L21.2502 9.84018L20.519 9.25537Z" fill="black"/>
<path d="M22.7557 10.9514C22.7557 9.14555 21.2862 7.67651 19.4808 7.67651C17.6754 7.67651 16.2059 9.14555 16.2059 10.9514C16.2059 12.7573 17.6754 14.2264 19.4808 14.2264C21.2862 14.2264 22.7557 12.7573 22.7557 10.9514ZM19.4808 13.2907C18.1909 13.2907 17.1416 12.2413 17.1416 10.9514C17.1416 9.66159 18.1909 8.61221 19.4808 8.61221C20.7707 8.61221 21.82 9.66159 21.82 10.9514C21.82 12.2413 20.7707 13.2907 19.4808 13.2907Z" fill="black"/>
<defs>
<linearGradient id="paint0_linear" x1="7.50079" y1="19.2973" x2="6.67432" y2="16.527" gradientUnits="userSpaceOnUse">
<stop stop-color="#06234A"/>
<stop offset="1" stop-color="#06234A"/>
</linearGradient>
<linearGradient id="paint1_linear" x1="10.7111" y1="26.5473" x2="10.1892" y2="23.6236" gradientUnits="userSpaceOnUse">
<stop stop-color="#06234A"/>
<stop offset="1" stop-color="#06234A"/>
</linearGradient>
<linearGradient id="paint2_linear" x1="7.50079" y1="12.0473" x2="6.67432" y2="9.277" gradientUnits="userSpaceOnUse">
<stop stop-color="#06234A"/>
<stop offset="1" stop-color="#06234A"/>
</linearGradient>
<linearGradient id="paint3_linear" x1="20.6468" y1="13.1187" x2="16.4161" y2="9.35028" gradientUnits="userSpaceOnUse">
<stop stop-color="#06234A"/>
<stop offset="1" stop-color="#06234A"/>
</linearGradient>
</defs>
</svg>
