

<svg width="29" height="29" viewBox="0 0 29 29" fill="none" xmlns="http://www.w3.org/2000/svg">
<path d="M9.86534 21.7656V23.2704V25.1514H15.7905V23.2704H22.5621V21.7656H9.86534Z" fill="url(#paint0_linear)"/>
<path d="M10.606 4.12256H11.5053V5.0219H10.606V4.12256Z" fill="#06234A"/>
<path d="M8.80727 4.12256H9.70663V5.0219H8.80727V4.12256Z" fill="#06234A"/>
<path d="M12.4047 4.12256H13.304V5.0219H12.4047V4.12256Z" fill="#06234A"/>
<path d="M9.86534 20.9194H22.5621V21.7659H9.86534V20.9194Z" fill="#06234A"/>
<path d="M9.86534 22.6121H22.5621V23.4585H9.86534V22.6121Z" fill="#06234A"/>
<path d="M9.86534 24.3052H14.0976V25.1516H9.86534V24.3052Z" fill="#06234A"/>
<path d="M14.944 24.3052H15.7905V25.1516H14.944V24.3052Z" fill="#06234A"/>
<path d="M8.27741 7.22614L12.2314 3.50959C12.4828 3.27352 12.8106 3.14355 13.1551 3.14355H25.3898C26.1336 3.14355 26.7389 3.74882 26.7389 4.49259V22.9293C26.7389 22.1855 26.7445 22.9124 26.7389 22.9293V26.9763L25.3898 28.3254H9.20154C8.45775 28.3254 7.8525 27.7201 7.8525 26.9763V8.20918C7.8525 7.83864 8.00716 7.48067 8.27741 7.22614ZM12.3493 4.63289L9.14982 7.64029H11.8996C12.1478 7.64029 12.3493 7.43838 12.3493 7.19061V4.63289ZM26.7389 26.9763L25.3898 28.3254C26.1336 28.3254 26.7389 27.7201 26.7389 26.9763ZM9.20154 27.426H25.3898C25.6381 27.426 25.8395 27.2241 25.8395 26.9763V10.3384V4.49259C25.8395 4.24481 25.6381 4.04291 25.3898 4.04291H13.2486V7.19061C13.2486 7.9344 12.6434 8.53966 11.8996 8.53966H8.75186V26.9763C8.75186 27.2241 8.95329 27.426 9.20154 27.426Z" fill="#06234A"/>
<path d="M23.9351 1.45093H10.3919L6.15962 5.53656V25.1515H23.9351V1.45093Z" fill="white"/>
<path d="M6.26456 4.68686L10.2186 0.970282C10.4699 0.734204 10.7977 0.604248 11.1422 0.604248H23.377C24.1208 0.604248 24.726 1.20951 24.726 1.95327V20.39C24.726 19.6462 24.7317 20.3731 24.726 20.39V24.4371L23.377 25.7861H7.1887C6.44491 25.7861 5.83965 25.1808 5.83965 24.4371V5.66982C5.83965 5.29929 5.99432 4.94138 6.26456 4.68686ZM10.3364 2.09357L7.13698 5.101H9.88672C10.1349 5.101 10.3364 4.89909 10.3364 4.65133V2.09357ZM24.726 24.4371L23.377 25.7861C24.1208 25.7861 24.726 25.1808 24.726 24.4371ZM7.1887 24.8867H23.377C23.6252 24.8867 23.8267 24.6848 23.8267 24.4371V7.79909V1.95327C23.8267 1.70551 23.6252 1.5036 23.377 1.5036H11.2358V4.65133C11.2358 5.39511 10.6305 6.00036 9.88672 6.00036H6.73902V24.4371C6.73902 24.6848 6.94044 24.8867 7.1887 24.8867Z" fill="#06234A"/>
<path d="M20.1286 3.4292H19.2293V4.32855H20.1286V3.4292Z" fill="#06234A"/>
<path d="M22.2421 20.0728V21.5776V23.4586H15.8937V21.5776H10.3918V20.0728H22.2421Z" fill="url(#paint1_linear)"/>
<path d="M21.9273 3.4292H21.028V4.32855H21.9273V3.4292Z" fill="#06234A"/>
<path d="M18.3299 3.4292H17.4306V4.32855H18.3299V3.4292Z" fill="#06234A"/>
<path d="M22.2421 19.2261H10.3918V20.0725H22.2421V19.2261Z" fill="#06234A"/>
<path d="M22.2421 20.9189H10.3918V21.7654H22.2421V20.9189Z" fill="#06234A"/>
<path d="M22.2421 22.6118H18.0098V23.4583H22.2421V22.6118Z" fill="#06234A"/>
<path d="M16.7402 22.6118H15.8938V23.4583H16.7402V22.6118Z" fill="#06234A"/>
<path d="M6.58287 19.2262C9.62149 19.2262 12.0848 16.763 12.0848 13.7243C12.0848 10.6857 9.62149 8.22241 6.58287 8.22241C3.54424 8.22241 1.08095 10.6857 1.08095 13.7243C1.08095 16.763 3.54424 19.2262 6.58287 19.2262Z" fill="white"/>
<path d="M1.11713 15.533C2.11978 18.4014 5.2579 19.9139 8.12636 18.9113C10.9948 17.9086 12.5073 14.7705 11.5047 11.902C10.502 9.03363 7.36384 7.5211 4.49544 8.52377" stroke="#06234A" stroke-width="0.8"/>
<path d="M0.849172 14.2332L2.3506 15.84L0.208332 16.3369L0.849172 14.2332Z" fill="#06234A"/>
<path d="M6.15958 11.6082H7.00602V14.1475H6.15958V11.6082Z" fill="#06234A"/>
<path d="M3.62027 14.1474V14.9939H7.00606V14.1474H3.62027Z" fill="#06234A"/>
<defs>
<linearGradient id="paint0_linear" x1="18.7671" y1="24.8019" x2="17.2187" y2="19.63" gradientUnits="userSpaceOnUse">
<stop stop-color="#06234A"/>
<stop offset="1" stop-color="#06234A"/>
</linearGradient>
<linearGradient id="paint1_linear" x1="13.9338" y1="23.1091" x2="15.5728" y2="17.9993" gradientUnits="userSpaceOnUse">
<stop stop-color="#06234A"/>
<stop offset="1" stop-color="#06234A"/>
</linearGradient>
</defs>
</svg>
