<svg width="173" height="144" viewBox="0 0 173 144" fill="none" xmlns="http://www.w3.org/2000/svg">
<path d="M15.4664 5.03955L1.00579 129.526C0.986188 129.705 1.01659 129.887 1.09355 130.049C1.17051 130.212 1.29093 130.349 1.44114 130.446C1.59134 130.543 1.76531 130.595 1.94327 130.597C2.12122 130.598 2.29604 130.549 2.44785 130.455L11.7411 124.659C12.2927 124.313 12.9555 124.197 13.5898 124.336C14.224 124.475 14.7802 124.859 15.141 125.405L26.8177 143L31.6896 68.988L15.4664 5.03955Z" fill="url(#paint0_linear_3134_34128)" stroke="#100803" stroke-linecap="round" stroke-linejoin="round"/>
<path d="M15.3763 8.1708L2.30761 126.415C2.27937 126.671 2.32524 126.929 2.43959 127.158C2.55393 127.387 2.73179 127.577 2.95134 127.706C3.17089 127.834 3.4226 127.894 3.67558 127.88C3.92857 127.865 4.17184 127.776 4.37556 127.623L11.1703 122.548C11.5236 122.283 11.9266 122.094 12.3546 121.993C12.7825 121.891 13.2264 121.879 13.6591 121.958C14.0917 122.036 14.504 122.203 14.8708 122.449C15.2375 122.694 15.5509 123.013 15.7919 123.386L23.7432 135.687C23.8294 135.824 23.9582 135.927 24.1092 135.981C24.2602 136.035 24.4245 136.036 24.5761 135.984C24.7277 135.932 24.8577 135.83 24.9455 135.694C25.0332 135.559 25.0735 135.397 25.0601 135.235L15.7768 8.17587C15.7672 8.12964 15.7423 8.08811 15.7063 8.05812C15.6702 8.02814 15.6252 8.01147 15.5786 8.01088C15.5319 8.01029 15.4865 8.02581 15.4497 8.05487C15.413 8.08394 15.3871 8.12483 15.3763 8.1708Z" fill="url(#paint1_linear_3134_34128)" stroke="#100803" stroke-linecap="round" stroke-linejoin="round"/>
<path opacity="0.6" d="M15.5565 6.45555L2.2976 126.405C2.26936 126.66 2.31523 126.918 2.42958 127.148C2.54393 127.377 2.72178 127.567 2.94134 127.695C3.16089 127.824 3.41259 127.884 3.66558 127.87C3.91856 127.855 4.16183 127.766 4.36555 127.613L11.1603 122.538C11.5136 122.273 11.9166 122.084 12.3446 121.983C12.7725 121.881 13.2164 121.869 13.6491 121.948C14.0817 122.026 14.494 122.193 14.8608 122.439C15.2275 122.684 15.5409 123.003 15.7819 123.376L23.7332 135.677C23.8194 135.814 23.9482 135.917 24.0992 135.971C24.2501 136.025 24.4145 136.026 24.5661 135.974C24.7177 135.922 24.8477 135.82 24.9354 135.684C25.0232 135.548 25.0635 135.387 25.0501 135.225L15.6517 6.45555C15.6484 6.4454 15.642 6.43656 15.6335 6.4303C15.6249 6.42403 15.6146 6.42065 15.6041 6.42065C15.5936 6.42065 15.5833 6.42403 15.5747 6.4303C15.5662 6.43656 15.5598 6.4454 15.5565 6.45555Z" fill="#100803"/>
<path d="M13.1381 121.888C13.6642 121.898 14.18 122.037 14.6407 122.295C15.1015 122.552 15.4932 122.919 15.7819 123.365L23.7333 135.667C23.8194 135.803 23.9483 135.907 24.0992 135.961C24.2502 136.014 24.4146 136.015 24.5662 135.963C24.7178 135.911 24.8478 135.809 24.9355 135.674C25.0232 135.538 25.0636 135.377 25.0502 135.215L23.9135 119.666L12.9679 121.838C13.0261 121.849 13.0831 121.866 13.1381 121.888Z" fill="url(#paint2_linear_3134_34128)" stroke="#100803" stroke-linecap="round" stroke-linejoin="round"/>
<path opacity="0.3" d="M13.1381 121.888C13.6642 121.898 14.18 122.037 14.6407 122.295C15.1015 122.552 15.4932 122.919 15.7819 123.365L23.7333 135.667C23.8194 135.803 23.9483 135.907 24.0992 135.961C24.2502 136.014 24.4146 136.015 24.5662 135.963C24.7178 135.911 24.8478 135.809 24.9355 135.674C25.0232 135.538 25.0636 135.377 25.0502 135.215L23.9135 119.666L12.9679 121.838C13.0261 121.849 13.0831 121.866 13.1381 121.888Z" fill="#100803"/>
<path d="M15.7618 4.9635L26.8126 143L155.672 118.113L125.388 10.4596L15.7618 4.9635Z" fill="#DEDEDE" stroke="#100803" stroke-linecap="round" stroke-linejoin="round"/>
<path d="M21.7354 7.94238L29.3262 135.702L150.499 113.373L124.958 14.1134L21.7354 7.94238Z" fill="url(#paint3_linear_3134_34128)" stroke="#100803" stroke-linecap="round" stroke-linejoin="round"/>
<path d="M29.141 70.815L34.9042 131.373L145.001 111.084L134.772 65.5676L29.141 70.815Z" fill="white" stroke="#100803" stroke-linecap="round" stroke-linejoin="round"/>
<path d="M50.3913 128.359L48.5637 108.907" stroke="#100803" stroke-linecap="round" stroke-linejoin="round"/>
<path d="M67.2404 125.35L65.4778 109.135" stroke="#100803" stroke-linecap="round" stroke-linejoin="round"/>
<path d="M83.759 122.107L81.7011 109.135" stroke="#100803" stroke-linecap="round" stroke-linejoin="round"/>
<path d="M100.778 119.148L98.3298 103.685" stroke="#100803" stroke-linecap="round" stroke-linejoin="round"/>
<path d="M115.77 116.408L113.682 101.315" stroke="#100803" stroke-linecap="round" stroke-linejoin="round"/>
<path d="M130.145 113.713L127.036 95.5652" stroke="#100803" stroke-linecap="round" stroke-linejoin="round"/>
<g style="mix-blend-mode:multiply" opacity="0.49">
<path d="M22.3463 43.2382C22.3463 43.2382 24.8899 80.3405 27.2283 93.8701C29.5666 107.4 33.9028 127.648 33.9028 127.648C33.9028 127.648 109.01 115.865 146.063 99.96L143.059 85.4154L22.3463 43.2382Z" fill="#ACACAC"/>
</g>
<path d="M18.9514 6.55188L124.437 12.3119C124.437 12.3119 134.707 43.4969 144.926 61.1067C155.146 78.7165 172 77.5696 172 77.5696C172 77.5696 133.345 98.9907 103.237 110.394C71.902 122.254 44.7282 124.385 44.7282 124.385C44.7282 124.385 19.9779 90.1198 18.9514 6.55188Z" fill="url(#paint4_linear_3134_34128)" stroke="#100803" stroke-linecap="round" stroke-linejoin="round"/>
<path d="M31.0287 1C29.0709 1 27.6539 2.76098 27.2082 5.52171L29.2111 5.63336C29.5215 4.03985 30.1374 3.02995 31.0237 3.02995C32.0551 3.02995 33.2018 4.70973 33.2018 7.12537C33.2018 9.541 32.0551 11.2259 31.0237 11.2259C30.7581 11.2259 30.5034 11.3328 30.3155 11.5231C30.1277 11.7135 30.0222 11.9716 30.0222 12.2408C30.0222 12.51 30.1277 12.7682 30.3155 12.9585C30.5034 13.1489 30.7581 13.2558 31.0237 13.2558C33.367 13.2558 35.2046 10.5611 35.2046 7.12537C35.2046 3.68968 33.372 1 31.0287 1Z" fill="white" stroke="#100803" stroke-miterlimit="10"/>
<path d="M48.4235 1.88806C46.4657 1.88806 45.0487 3.64904 44.6031 6.40977L46.6059 6.52142C46.9164 4.92791 47.5322 3.91801 48.4185 3.91801C49.45 3.91801 50.5966 5.59779 50.5966 8.01343C50.5966 10.4291 49.45 12.1139 48.4185 12.1139C48.1529 12.1139 47.8982 12.2209 47.7104 12.4112C47.5226 12.6015 47.4171 12.8597 47.4171 13.1289C47.4171 13.3981 47.5226 13.6562 47.7104 13.8466C47.8982 14.0369 48.1529 14.1439 48.4185 14.1439C50.7619 14.1439 52.5995 11.4491 52.5995 8.01343C52.5995 4.57774 50.7719 1.88806 48.4235 1.88806Z" fill="white" stroke="#100803" stroke-miterlimit="10"/>
<path d="M65.8284 2.77625C63.8706 2.77625 62.4535 4.53723 62.0079 7.29796L64.0108 7.40961C64.3212 5.8161 64.9371 4.80619 65.8234 4.80619C66.8548 4.80619 68.0015 6.48597 68.0015 8.90161C68.0015 11.3172 66.8548 13.0021 65.8234 13.0021C65.5578 13.0021 65.303 13.109 65.1152 13.2994C64.9274 13.4897 64.8219 13.7479 64.8219 14.0171C64.8219 14.2863 64.9274 14.5444 65.1152 14.7348C65.303 14.9251 65.5578 15.0321 65.8234 15.0321C68.1667 15.0321 70.0043 12.3373 70.0043 8.90161C70.0043 5.46592 68.1717 2.77625 65.8284 2.77625Z" fill="white" stroke="#100803" stroke-miterlimit="10"/>
<path d="M83.2282 3.66431C81.2704 3.66431 79.8534 5.42529 79.4078 8.18602L81.4106 8.29767C81.7211 6.70416 82.337 5.69426 83.2232 5.69426C84.2547 5.69426 85.4013 7.37403 85.4013 9.78967C85.4013 12.2053 84.2547 13.8902 83.2232 13.8902C82.9576 13.8902 82.7029 13.9971 82.5151 14.1874C82.3273 14.3778 82.2218 14.636 82.2218 14.9051C82.2218 15.1743 82.3273 15.4325 82.5151 15.6228C82.7029 15.8132 82.9576 15.9201 83.2232 15.9201C85.5666 15.9201 87.4042 13.2254 87.4042 9.78967C87.4042 6.35398 85.5716 3.66431 83.2282 3.66431Z" fill="white" stroke="#100803" stroke-miterlimit="10"/>
<path d="M100.944 4.45093C98.9857 4.45093 97.5687 6.21191 97.1281 8.97771L99.1309 9.08936C99.4464 7.49585 100.062 6.48088 100.944 6.48088C101.975 6.48088 103.127 8.16573 103.127 10.5814C103.127 12.997 101.975 14.6768 100.944 14.6768C100.678 14.6768 100.423 14.7837 100.235 14.9741C100.048 15.1644 99.9421 15.4226 99.9421 15.6918C99.9421 15.961 100.048 16.2191 100.235 16.4095C100.423 16.5998 100.678 16.7067 100.944 16.7067C103.292 16.7067 105.13 14.0171 105.13 10.5814C105.13 7.14569 103.292 4.45093 100.944 4.45093Z" fill="white" stroke="#100803" stroke-miterlimit="10"/>
<path d="M117.963 5.3999C116.005 5.3999 114.588 7.16088 114.147 9.92161L116.15 10.0383C116.466 8.44482 117.082 7.42985 117.963 7.42985C118.994 7.42985 120.146 9.11471 120.146 11.5253C120.146 13.9358 118.994 15.6258 117.963 15.6258C117.697 15.6258 117.443 15.7327 117.255 15.923C117.067 16.1134 116.961 16.3716 116.961 16.6407C116.961 16.9099 117.067 17.1681 117.255 17.3584C117.443 17.5488 117.697 17.6557 117.963 17.6557C120.311 17.6557 122.149 14.961 122.149 11.5253C122.149 8.08959 120.311 5.3999 117.963 5.3999Z" fill="white" stroke="#100803" stroke-miterlimit="10"/>
<path d="M141.436 61.188C134.181 48.6835 126.56 28.9372 123.851 21.67L29.5816 17.7979C29.5215 88.4147 50.6117 117.59 50.6117 117.59C50.6117 117.59 74.6209 115.707 102.311 105.223C128.919 95.1491 160.654 78.2396 160.654 78.2396C160.654 78.2396 150.464 76.7526 141.436 61.188Z" fill="white" stroke="#100803" stroke-linecap="round" stroke-linejoin="round"/>
<path d="M123.851 21.67L29.5816 17.7979C29.5816 24.7453 29.7769 31.2818 30.1374 37.4376L129.69 36.4937C127.111 30.2668 125.033 24.8113 123.851 21.67Z" fill="#DEDEDE" stroke="#100803" stroke-linecap="round" stroke-linejoin="round"/>
<path d="M125.519 42.7206L129.975 42.5632" stroke="#DEDEDE" stroke-width="3" stroke-linecap="round" stroke-linejoin="round"/>
<path d="M112.42 43.1722L122.179 42.8322" stroke="#DEDEDE" stroke-width="3" stroke-linecap="round" stroke-linejoin="round"/>
<path d="M96.5623 43.7152L109.105 43.2838" stroke="#DEDEDE" stroke-width="3" stroke-linecap="round" stroke-linejoin="round"/>
<path d="M80.4293 44.2684L93.7933 43.8116" stroke="#DEDEDE" stroke-width="3" stroke-linecap="round" stroke-linejoin="round"/>
<path d="M64.832 44.8062L77.0845 44.385" stroke="#DEDEDE" stroke-width="3" stroke-linecap="round" stroke-linejoin="round"/>
<path d="M48.3984 45.3747L60.661 44.9484" stroke="#DEDEDE" stroke-width="3" stroke-linecap="round" stroke-linejoin="round"/>
<path d="M33.9328 45.872L45.3441 45.4762" stroke="#DEDEDE" stroke-width="3" stroke-linecap="round" stroke-linejoin="round"/>
<path d="M32.0751 56.7576L135.788 50.3531" stroke="#100803" stroke-linecap="round" stroke-linejoin="round"/>
<path d="M48.4636 55.8542C48.4636 55.8542 50.166 83.8066 68.347 114.834" stroke="#100803" stroke-linecap="round" stroke-linejoin="round"/>
<path d="M65.1974 54.7328C65.1974 54.7328 67.1152 86.7045 87.0487 110.115" stroke="#100803" stroke-linecap="round" stroke-linejoin="round"/>
<path d="M80.3491 53.7888C80.3491 53.7888 81.3506 83.2231 103.758 104.375" stroke="#100803" stroke-linecap="round" stroke-linejoin="round"/>
<path d="M96.0565 53.1038C96.0565 53.1038 98.5301 85.8265 120.216 97.3516" stroke="#100803" stroke-linecap="round" stroke-linejoin="round"/>
<path d="M112.515 51.7893C112.515 51.7893 114.258 76.5395 136.439 90.0944" stroke="#100803" stroke-linecap="round" stroke-linejoin="round"/>
<path d="M125.474 50.9874C125.474 50.9874 131.442 76.3618 148.141 84.578" stroke="#100803" stroke-linecap="round" stroke-linejoin="round"/>
<path d="M34.3484 71.1753L140.28 59.3661" stroke="#100803" stroke-linecap="round" stroke-linejoin="round"/>
<path d="M37.1124 83.8067C37.1124 83.8067 59.7297 82.9084 145.207 66.9429" stroke="#100803" stroke-linecap="round" stroke-linejoin="round"/>
<path d="M41.1031 97.179C41.1031 97.179 63.1345 99.7164 149.448 71.8605" stroke="#100803" stroke-linecap="round" stroke-linejoin="round"/>
<path d="M45.8699 108.846C45.8699 108.846 64.2361 115.012 154.455 75.8594" stroke="#100803" stroke-linecap="round" stroke-linejoin="round"/>
<path d="M70.2998 31.6116L36.3413 31.1498C36.0662 31.1456 35.8019 31.0405 35.5975 30.8538C35.3931 30.6672 35.2624 30.4117 35.2297 30.1348L34.9393 27.3538C34.9222 27.1937 34.9389 27.0318 34.9883 26.8788C35.0376 26.7258 35.1184 26.5852 35.2254 26.4662C35.3324 26.3472 35.4631 26.2526 35.6088 26.1887C35.7546 26.1247 35.9121 26.0928 36.0709 26.0952L69.6188 26.6839C69.8667 26.6883 70.1063 26.7751 70.3008 26.931C70.4953 27.0869 70.6339 27.3032 70.6953 27.5466L71.3763 30.1906C71.4189 30.3578 71.4234 30.5327 71.3893 30.7019C71.3553 30.8711 71.2837 31.0302 71.1799 31.1672C71.0762 31.3042 70.943 31.4154 70.7905 31.4924C70.638 31.5694 70.4701 31.6101 70.2998 31.6116Z" fill="white"/>
<path d="M88.3957 67.5713C88.6661 67.4598 88.8914 67.3385 89.0474 67.2203C89.2045 67.0894 89.3288 66.962 89.4182 66.8402L90.8603 66.4487L91.8823 70.3159L89.7016 70.908L88.9214 67.9559L87.2419 68.4118L87.1274 67.9789C87.5682 67.8684 88.0025 67.7288 88.3957 67.5713Z" fill="#100803"/>
<path d="M92.7889 66.6924C93.0594 66.5809 93.2846 66.4596 93.4407 66.3414C93.5978 66.2105 93.7221 66.0831 93.8114 65.9613L95.2536 65.5698L96.2756 69.437L94.0948 70.0291L93.3147 67.077L91.6351 67.5329L91.5207 67.1C91.9615 66.9895 92.3958 66.8499 92.7889 66.6924Z" fill="#100803"/>
<path d="M92.1988 78.2942C91.2908 78.5367 90.3691 78.7229 89.4388 78.852C87.9537 79.0636 85.8015 79.1985 84.3533 77.9267C82.5285 76.33 82.842 73.5559 83.0552 72.4372C83.4692 70.3891 84.358 68.4701 85.6483 66.8389C86.9386 65.2076 88.5933 63.9109 90.4757 63.0558C91.517 62.496 92.6826 62.2161 93.861 62.2429C95.0395 62.2697 96.1915 62.6023 97.2071 63.2089C98.2226 63.8155 99.0677 64.6759 99.6617 65.7078C100.256 66.7398 100.579 67.9088 100.6 69.1033C100.563 70.4843 100.207 71.8372 99.5599 73.0531C98.9129 74.269 97.9933 75.314 96.8751 76.1038C95.4644 77.1226 93.8785 77.8654 92.1988 78.2942ZM88.4468 65.0874C86.0384 66.9169 84.3754 69.5779 83.7726 72.5666C83.5779 73.5624 83.2916 76.027 84.8331 77.3766C86.0721 78.462 87.9946 78.3379 89.3946 78.1347C91.9441 77.8763 94.3897 76.9769 96.5095 75.518C97.5404 74.799 98.3891 73.8432 98.9863 72.7286C99.5835 71.6139 99.9123 70.372 99.946 69.1041C99.9289 68.032 99.6408 66.9823 99.1092 66.0552C98.5777 65.1282 97.8204 64.3548 96.9098 63.809C95.9992 63.2632 94.9657 62.9633 93.908 62.9378C92.8504 62.9124 91.804 63.1623 90.8689 63.6637L90.7739 63.6894C90.0088 64.084 89.3379 64.6432 88.8084 65.3281L88.4468 65.0874Z" fill="#FF0000"/>
<defs>
<linearGradient id="paint0_linear_3134_34128" x1="22.5166" y1="128.761" x2="-21.2649" y2="120.086" gradientUnits="userSpaceOnUse">
<stop stop-color="#FFB806"/>
<stop offset="1" stop-color="#FFB800"/>
</linearGradient>
<linearGradient id="paint1_linear_3134_34128" x1="18.2588" y1="122.81" x2="-14.6639" y2="117.595" gradientUnits="userSpaceOnUse">
<stop stop-color="#FFB806"/>
<stop offset="1" stop-color="#FFB800"/>
</linearGradient>
<linearGradient id="paint2_linear_3134_34128" x1="21.4406" y1="134.316" x2="8.94785" y2="126.084" gradientUnits="userSpaceOnUse">
<stop stop-color="#FFB806"/>
<stop offset="1" stop-color="#FFB800"/>
</linearGradient>
<linearGradient id="paint3_linear_3134_34128" x1="112.012" y1="122.516" x2="6.30134" y2="27.6159" gradientUnits="userSpaceOnUse">
<stop stop-color="#FFB806"/>
<stop offset="1" stop-color="#FFB800"/>
</linearGradient>
<linearGradient id="paint4_linear_3134_34128" x1="126.255" y1="112.223" x2="29.2216" y2="-0.0367626" gradientUnits="userSpaceOnUse">
<stop stop-color="#FFB806"/>
<stop offset="1" stop-color="#FFB800"/>
</linearGradient>
</defs>
</svg>
