<svg width="409" height="184" viewBox="0 0 409 184" fill="none" xmlns="http://www.w3.org/2000/svg">
<g filter="url(#filter0_d_3161_34257)">
<g clip-path="url(#clip0_3161_34257)">
<rect x="61.5826" y="23" width="312" height="205" rx="4" transform="rotate(6.60575 61.5826 23)" fill="#F8F8F8"/>
<path d="M100.51 54.0359L103.005 54.3248C103.613 54.3953 104.14 54.5775 104.585 54.8714C105.031 55.1599 105.359 55.5367 105.57 56.0017C105.781 56.4613 105.854 56.9737 105.788 57.5389C105.723 58.1042 105.535 58.5891 105.223 58.9937C104.913 59.3929 104.507 59.6847 104.007 59.8691C103.507 60.048 102.952 60.1022 102.344 60.0317L99.8489 59.7428L100.51 54.0359ZM102.399 59.1293C102.817 59.1777 103.193 59.1414 103.527 59.0203C103.866 58.8944 104.137 58.6944 104.34 58.4205C104.548 58.1417 104.675 57.8066 104.72 57.4153C104.766 57.0239 104.718 56.6715 104.579 56.3578C104.445 56.0394 104.226 55.7828 103.924 55.588C103.628 55.3885 103.27 55.2644 102.852 55.216L101.466 55.0555L101.013 58.9688L102.399 59.1293Z" fill="#100803"/>
<path d="M109.241 60.9131C108.659 60.8458 108.149 60.66 107.711 60.3559C107.273 60.0463 106.947 59.6532 106.732 59.1767C106.518 58.6948 106.443 58.1766 106.507 57.6222C106.571 57.0678 106.763 56.5832 107.08 56.1684C107.399 55.7481 107.807 55.44 108.303 55.2441C108.8 55.0428 109.339 54.9758 109.921 55.0432C110.502 55.1105 111.012 55.299 111.45 55.6085C111.888 55.9127 112.215 56.303 112.43 56.7796C112.644 57.2561 112.719 57.7742 112.654 58.3341C112.59 58.8939 112.398 59.3812 112.08 59.7961C111.762 60.2109 111.355 60.519 110.858 60.7203C110.362 60.9162 109.823 60.9805 109.241 60.9131ZM109.349 59.9837C109.729 60.0278 110.081 59.9832 110.405 59.8499C110.73 59.7113 110.996 59.4998 111.206 59.2156C111.415 58.9259 111.542 58.5908 111.586 58.2104C111.63 57.8299 111.583 57.4774 111.445 57.1529C111.306 56.823 111.095 56.5561 110.81 56.3524C110.526 56.1432 110.194 56.0166 109.813 55.9726C109.433 55.9285 109.08 55.9758 108.756 56.1145C108.432 56.2477 108.165 56.4592 107.955 56.7488C107.746 57.0331 107.619 57.3654 107.575 57.7459C107.531 58.1263 107.578 58.4815 107.716 58.8115C107.855 59.136 108.066 59.4028 108.351 59.612C108.635 59.8157 108.968 59.9396 109.349 59.9837Z" fill="#100803"/>
<path d="M120.943 62.1856L121.373 58.4018L119.135 61.3153L118.662 61.2606L117.144 57.9617L116.711 61.6956L115.701 61.5785L116.361 55.8716L117.234 55.9727L119.062 60.018L121.726 56.4929L122.598 56.5939L121.946 62.3018L120.943 62.1856Z" fill="#100803"/>
<path d="M126.182 60.7517L125.949 62.7654L124.889 62.6427L125.121 60.6452L123.308 56.6761L124.441 56.8074L125.791 59.781L127.8 57.1963L128.844 57.3172L126.182 60.7517Z" fill="#100803"/>
<path d="M134.984 62.4733L132.131 62.1428L131.416 63.3984L130.323 63.2719L133.552 57.8624L134.596 57.9833L136.511 63.9885L135.402 63.8601L134.984 62.4733ZM134.73 61.6011L133.943 58.9818L132.586 61.3528L134.73 61.6011Z" fill="#100803"/>
<path d="M138.996 64.359C138.556 64.308 138.137 64.1961 137.738 64.0232C137.345 63.851 137.041 63.6478 136.826 63.4136L137.288 62.6326C137.5 62.8445 137.768 63.0297 138.091 63.1883C138.42 63.3421 138.756 63.4388 139.098 63.4785C139.522 63.5276 139.846 63.4961 140.068 63.3842C140.295 63.2728 140.422 63.1058 140.448 62.8829C140.467 62.7199 140.423 62.5798 140.315 62.4627C140.213 62.3407 140.076 62.2395 139.904 62.1589C139.732 62.0784 139.495 61.9821 139.194 61.8702C138.771 61.7165 138.43 61.5724 138.17 61.4376C137.915 61.3035 137.703 61.1164 137.533 60.8764C137.368 60.6315 137.308 60.3215 137.351 59.9465C137.388 59.6313 137.505 59.3557 137.703 59.1197C137.907 58.879 138.189 58.7024 138.549 58.5898C138.915 58.4779 139.347 58.4509 139.847 58.5088C140.195 58.5491 140.533 58.6323 140.86 58.7582C141.187 58.8842 141.463 59.0429 141.689 59.2343L141.259 60.019C141.026 59.8433 140.778 59.7017 140.515 59.5941C140.252 59.4865 139.993 59.418 139.737 59.3884C139.319 59.3399 138.998 59.3744 138.775 59.4918C138.558 59.6098 138.436 59.7857 138.408 60.0194C138.39 60.1824 138.431 60.3222 138.533 60.4387C138.641 60.5558 138.781 60.6547 138.953 60.7352C139.126 60.8158 139.363 60.912 139.664 61.024C140.076 61.1709 140.412 61.3145 140.671 61.4547C140.931 61.5894 141.144 61.7765 141.309 62.0159C141.479 62.256 141.543 62.5608 141.5 62.9304C141.464 63.2456 141.344 63.5209 141.14 63.7562C140.942 63.9922 140.66 64.1661 140.295 64.278C139.929 64.3899 139.497 64.4169 138.996 64.359Z" fill="#100803"/>
<path d="M144.124 64.9527C143.684 64.9018 143.264 64.7898 142.866 64.617C142.472 64.4448 142.168 64.2416 141.953 64.0073L142.415 63.2264C142.627 63.4383 142.895 63.6235 143.218 63.7821C143.548 63.9359 143.883 64.0326 144.226 64.0722C144.65 64.1213 144.973 64.0899 145.195 63.9779C145.423 63.8666 145.55 63.6995 145.575 63.4767C145.594 63.3136 145.55 63.1736 145.442 63.0564C145.341 62.9345 145.204 62.8333 145.031 62.7527C144.859 62.6722 144.622 62.5759 144.321 62.4639C143.898 62.3103 143.557 62.1661 143.297 62.0314C143.043 61.8973 142.83 61.7102 142.66 61.4701C142.495 61.2253 142.435 60.9153 142.478 60.5403C142.515 60.225 142.632 59.9495 142.83 59.7135C143.034 59.4728 143.316 59.2961 143.677 59.1836C144.042 59.0717 144.475 59.0447 144.975 59.1026C145.323 59.1429 145.66 59.226 145.987 59.352C146.314 59.478 146.59 59.6367 146.816 59.8281L146.386 60.6128C146.153 60.4371 145.905 60.2954 145.642 60.1879C145.379 60.0803 145.12 60.0117 144.865 59.9822C144.446 59.9337 144.125 59.9682 143.903 60.0856C143.685 60.2036 143.563 60.3794 143.536 60.6132C143.517 60.7762 143.559 60.916 143.661 61.0325C143.768 61.1496 143.908 61.2484 144.081 61.329C144.253 61.4095 144.49 61.5058 144.791 61.6178C145.204 61.7647 145.539 61.9082 145.799 62.0484C146.058 62.1832 146.271 62.3702 146.436 62.6097C146.606 62.8497 146.67 63.1546 146.627 63.5242C146.591 63.8394 146.471 64.1147 146.267 64.35C146.069 64.5859 145.788 64.7598 145.422 64.8717C145.057 64.9837 144.624 65.0106 144.124 64.9527Z" fill="#100803"/>
<path d="M148.152 59.5532L149.212 59.6759L148.551 65.3828L147.491 65.2601L148.152 59.5532Z" fill="#100803"/>
<path d="M154.33 63.0942L155.333 63.2104L155.069 65.485C154.749 65.6847 154.385 65.8244 153.98 65.9041C153.574 65.9838 153.164 65.9997 152.751 65.9519C152.17 65.8845 151.66 65.6988 151.221 65.3946C150.783 65.085 150.457 64.692 150.242 64.2155C150.028 63.7389 149.953 63.2208 150.018 62.6609C150.082 62.1011 150.274 61.6138 150.592 61.199C150.91 60.7841 151.317 60.4787 151.813 60.2829C152.316 60.0822 152.86 60.0158 153.447 60.0838C153.926 60.1392 154.351 60.2683 154.724 60.4713C155.098 60.6742 155.4 60.9433 155.631 61.2785L154.887 61.8533C154.502 61.3681 154.003 61.09 153.389 61.0189C152.987 60.9723 152.618 61.015 152.283 61.147C151.954 61.2796 151.682 61.4877 151.467 61.7713C151.258 62.0555 151.131 62.3933 151.086 62.7846C151.042 63.1651 151.089 63.5176 151.228 63.8421C151.372 64.1672 151.589 64.4347 151.878 64.6445C152.173 64.8549 152.519 64.9831 152.916 65.0291C153.362 65.0807 153.764 65.0282 154.124 64.8715L154.33 63.0942Z" fill="#100803"/>
<path d="M162.124 61.1713L161.463 66.8782L160.591 66.7771L157.892 62.5483L157.444 66.4127L156.392 66.2909L157.053 60.584L157.926 60.685L160.625 64.9139L161.073 61.0495L162.124 61.1713Z" fill="#100803"/>
<path d="M168.235 67.6623L168.665 63.8785L166.427 66.792L165.954 66.7373L164.436 63.4384L164.004 67.1723L162.993 67.0552L163.654 61.3483L164.526 61.4494L166.354 65.4947L169.018 61.9696L169.89 62.0706L169.238 67.7785L168.235 67.6623Z" fill="#100803"/>
<path d="M175.162 67.564L175.059 68.4526L170.779 67.957L171.44 62.2501L175.606 62.7325L175.503 63.6212L172.397 63.2614L172.225 64.7452L174.981 65.0644L174.88 65.9367L172.124 65.6176L171.942 67.1911L175.162 67.564Z" fill="#100803"/>
<path d="M181.973 63.4698L181.312 69.1767L180.44 69.0757L177.74 64.8469L177.293 68.7113L176.241 68.5895L176.902 62.8826L177.774 62.9836L180.474 67.2124L180.921 63.348L181.973 63.4698Z" fill="#100803"/>
<path d="M184.556 64.6778L182.664 64.4587L182.768 63.5619L187.611 64.1227L187.507 65.0195L185.616 64.8005L185.059 69.6106L183.999 69.4879L184.556 64.6778Z" fill="#100803"/>
<path d="M189.449 70.2017C189.009 70.1507 188.59 70.0388 188.191 69.866C187.798 69.6938 187.494 69.4905 187.279 69.2563L187.741 68.4754C187.953 68.6872 188.221 68.8724 188.544 69.031C188.873 69.1848 189.209 69.2816 189.551 69.3212C189.975 69.3703 190.298 69.3389 190.521 69.2269C190.748 69.1156 190.875 68.9485 190.901 68.7257C190.92 68.5626 190.875 68.4225 190.768 68.3054C190.666 68.1835 190.529 68.0822 190.357 68.0017C190.184 67.9211 189.948 67.8249 189.647 67.7129C189.224 67.5593 188.883 67.4151 188.623 67.2804C188.368 67.1462 188.156 66.9592 187.985 66.7191C187.821 66.4742 187.761 66.1643 187.804 65.7892C187.841 65.474 187.958 65.1984 188.156 64.9625C188.36 64.7217 188.642 64.5451 189.002 64.4326C189.368 64.3207 189.8 64.2937 190.3 64.3516C190.648 64.3919 190.986 64.475 191.313 64.601C191.639 64.727 191.916 64.8857 192.141 65.077L191.712 65.8617C191.479 65.686 191.231 65.5444 190.968 65.4368C190.705 65.3293 190.446 65.2607 190.19 65.2311C189.772 65.1827 189.451 65.2171 189.228 65.3345C189.011 65.4525 188.888 65.6284 188.861 65.8621C188.842 66.0252 188.884 66.165 188.986 66.2814C189.094 66.3986 189.234 66.4974 189.406 66.5779C189.579 66.6585 189.816 66.7548 190.117 66.8667C190.529 67.0137 190.865 67.1572 191.124 67.2974C191.384 67.4321 191.596 67.6192 191.761 67.8587C191.932 68.0987 191.996 68.4035 191.953 68.7731C191.917 69.0884 191.796 69.3636 191.593 69.599C191.395 69.8349 191.113 70.0088 190.748 70.1207C190.382 70.2326 189.949 70.2596 189.449 70.2017Z" fill="#100803"/>
<path fill-rule="evenodd" clip-rule="evenodd" d="M91.1849 50.6285L92.2753 49.4132L95.8878 52.6546L95.3564 56.7477L93.7373 56.5375L94.1581 53.2962L91.1849 50.6285ZM85.6531 51.9788L89.04 59.8076L90.7799 60.4026L91.5375 58.7271L88.1506 50.8983L85.6531 51.9788ZM93.3229 58.7417L89.4331 49.7505C89.1944 49.1987 88.5536 48.945 88.0018 49.1837L84.5053 50.6964C83.9535 50.935 83.6997 51.5758 83.9384 52.1276L87.8282 61.1188L91.656 62.4278L93.3229 58.7417ZM81.7908 53.9492L83.4231 53.9866L83.3316 57.9801L85.9821 59.8927L85.0267 61.2167L81.6796 58.8015L81.7908 53.9492Z" fill="url(#paint0_linear_3161_34257)"/>
<mask id="path-4-inside-1_3161_34257" fill="white">
<path fill-rule="evenodd" clip-rule="evenodd" d="M285.784 32.8154C281.552 31.5472 277.093 33.9501 275.825 38.1825L258.602 95.6575C257.334 99.8899 259.737 104.349 263.969 105.617L321.444 122.84C325.677 124.108 330.136 121.705 331.404 117.473L348.626 59.9976C349.895 55.7652 347.492 51.3061 343.259 50.0379L285.784 32.8154ZM292.497 90.8808C292.779 91.1565 293.118 91.3662 293.489 91.495C293.87 91.6227 294.274 91.663 294.672 91.613C295.07 91.5629 295.453 91.4239 295.792 91.206L324.382 72.8972C324.922 72.4866 325.29 71.8872 325.412 71.2181C325.535 70.549 325.404 69.859 325.044 69.2851C324.685 68.7113 324.124 68.2955 323.473 68.1203C322.821 67.945 322.127 68.0232 321.528 68.3393L295.709 84.8614L291.271 73.1259C291.017 72.4541 290.507 71.9131 289.854 71.6217C289.202 71.3304 288.459 71.3126 287.791 71.5724C287.123 71.8321 286.583 72.348 286.291 73.0067C285.999 73.6654 285.978 74.4128 286.232 75.0845L291.858 89.8995C291.996 90.2701 292.215 90.6051 292.497 90.8808Z"/>
</mask>
<path fill-rule="evenodd" clip-rule="evenodd" d="M285.784 32.8154C281.552 31.5472 277.093 33.9501 275.825 38.1825L258.602 95.6575C257.334 99.8899 259.737 104.349 263.969 105.617L321.444 122.84C325.677 124.108 330.136 121.705 331.404 117.473L348.626 59.9976C349.895 55.7652 347.492 51.3061 343.259 50.0379L285.784 32.8154ZM292.497 90.8808C292.779 91.1565 293.118 91.3662 293.489 91.495C293.87 91.6227 294.274 91.663 294.672 91.613C295.07 91.5629 295.453 91.4239 295.792 91.206L324.382 72.8972C324.922 72.4866 325.29 71.8872 325.412 71.2181C325.535 70.549 325.404 69.859 325.044 69.2851C324.685 68.7113 324.124 68.2955 323.473 68.1203C322.821 67.945 322.127 68.0232 321.528 68.3393L295.709 84.8614L291.271 73.1259C291.017 72.4541 290.507 71.9131 289.854 71.6217C289.202 71.3304 288.459 71.3126 287.791 71.5724C287.123 71.8321 286.583 72.348 286.291 73.0067C285.999 73.6654 285.978 74.4128 286.232 75.0845L291.858 89.8995C291.996 90.2701 292.215 90.6051 292.497 90.8808Z" fill="#00B700"/>
<path d="M293.489 91.495L293.162 92.44L293.171 92.443L293.489 91.495ZM292.497 90.8808L293.196 90.1658L293.196 90.1658L292.497 90.8808ZM294.672 91.613L294.796 92.6052L294.796 92.6052L294.672 91.613ZM295.792 91.206L295.252 90.3639L295.251 90.3649L295.792 91.206ZM324.382 72.8972L324.921 73.7393L324.955 73.7176L324.987 73.6932L324.382 72.8972ZM325.044 69.2851L325.892 68.7544L325.892 68.7544L325.044 69.2851ZM321.528 68.3393L321.061 67.4549L321.024 67.4744L320.989 67.497L321.528 68.3393ZM295.709 84.8614L294.774 85.2151L295.21 86.3681L296.248 85.7037L295.709 84.8614ZM291.271 73.1259L292.207 72.7722L292.206 72.7713L291.271 73.1259ZM289.854 71.6217L290.262 70.7086L290.262 70.7086L289.854 71.6217ZM287.791 71.5724L287.429 70.6403L287.791 71.5724ZM286.291 73.0067L285.377 72.601L286.291 73.0067ZM286.232 75.0845L285.297 75.4391L285.298 75.4395L286.232 75.0845ZM291.858 89.8995L292.794 89.5487L292.792 89.5445L291.858 89.8995ZM276.783 38.4695C277.892 34.7662 281.794 32.6637 285.497 33.7734L286.071 31.8575C281.31 30.4308 276.294 33.134 274.867 37.8954L276.783 38.4695ZM259.56 95.9446L276.783 38.4695L274.867 37.8954L257.644 95.3705L259.56 95.9446ZM264.256 104.659C260.553 103.55 258.45 99.6479 259.56 95.9446L257.644 95.3705C256.218 100.132 258.921 105.148 263.682 106.575L264.256 104.659ZM321.731 121.882L264.256 104.659L263.682 106.575L321.157 123.798L321.731 121.882ZM330.446 117.186C329.336 120.889 325.435 122.991 321.731 121.882L321.157 123.798C325.919 125.224 330.935 122.521 332.362 117.76L330.446 117.186ZM347.669 59.7105L330.446 117.186L332.362 117.76L349.584 60.2846L347.669 59.7105ZM342.972 50.9958C346.676 52.1055 348.778 56.0072 347.669 59.7105L349.584 60.2846C351.011 55.5232 348.308 50.5067 343.547 49.08L342.972 50.9958ZM285.497 33.7734L342.972 50.9958L343.547 49.08L286.071 31.8575L285.497 33.7734ZM293.817 90.5501C293.584 90.4696 293.372 90.3385 293.196 90.1658L291.797 91.5958C292.185 91.9745 292.651 92.2627 293.162 92.4399L293.817 90.5501ZM294.547 90.6207C294.298 90.6521 294.045 90.6268 293.808 90.5471L293.171 92.443C293.694 92.6185 294.249 92.6739 294.796 92.6052L294.547 90.6207ZM295.251 90.3649C295.037 90.5022 294.797 90.5894 294.547 90.6207L294.796 92.6052C295.344 92.5365 295.868 92.3456 296.332 92.0471L295.251 90.3649ZM323.843 72.0551L295.252 90.3639L296.331 92.0481L324.921 73.7393L323.843 72.0551ZM324.429 71.0377C324.351 71.4624 324.117 71.8419 323.777 72.1012L324.987 73.6932C325.726 73.1312 326.228 72.312 326.396 71.3985L324.429 71.0377ZM324.197 69.8159C324.423 70.1769 324.507 70.613 324.429 71.0377L326.396 71.3985C326.564 70.4849 326.385 69.5411 325.892 68.7544L324.197 69.8159ZM323.213 69.0859C323.619 69.1953 323.971 69.4551 324.197 69.8159L325.892 68.7544C325.399 67.9674 324.629 67.3956 323.732 67.1546L323.213 69.0859ZM321.994 69.2238C322.371 69.0249 322.806 68.9766 323.213 69.0859L323.732 67.1546C322.836 66.9135 321.882 67.0216 321.061 67.4549L321.994 69.2238ZM296.248 85.7037L322.067 69.1816L320.989 67.497L295.17 84.0191L296.248 85.7037ZM290.336 73.4796L294.774 85.2151L296.645 84.5077L292.207 72.7722L290.336 73.4796ZM289.447 72.5349C289.855 72.717 290.175 73.0563 290.336 73.4805L292.206 72.7713C291.858 71.852 291.159 71.1091 290.262 70.7086L289.447 72.5349ZM288.154 72.5044C288.574 72.3411 289.039 72.3528 289.447 72.5349L290.262 70.7086C289.364 70.308 288.345 70.2842 287.429 70.6403L288.154 72.5044ZM287.205 73.4124C287.391 72.9938 287.733 72.6679 288.154 72.5044L287.429 70.6403C286.513 70.9963 285.776 71.7023 285.377 72.601L287.205 73.4124ZM287.167 74.7299C287.006 74.3052 287.019 73.831 287.205 73.4124L285.377 72.601C284.978 73.4997 284.949 74.5203 285.297 75.4391L287.167 74.7299ZM292.792 89.5445L287.167 74.7295L285.298 75.4395L290.923 90.2545L292.792 89.5445ZM293.196 90.1658C293.019 89.993 292.882 89.7824 292.794 89.5487L290.921 90.2504C291.111 90.7578 291.41 91.2173 291.797 91.5958L293.196 90.1658Z" fill="#100803" mask="url(#path-4-inside-1_3161_34257)"/>
<path d="M82.1291 83.8864C83.0298 83.9907 83.7135 84.2879 84.1802 84.7782C84.6469 85.2685 84.8365 85.8911 84.7491 86.6461C84.6616 87.401 84.3347 87.9638 83.7683 88.3345C83.2019 88.7051 82.4684 88.8383 81.5678 88.734L79.8492 88.5349L79.6054 90.6409L78.612 90.5258L79.4173 83.5723L82.1291 83.8864ZM81.638 87.8663C82.2672 87.9391 82.7626 87.8623 83.1244 87.6357C83.487 87.4026 83.6974 87.0343 83.7557 86.531C83.814 86.0277 83.6929 85.6245 83.3925 85.3212C83.0928 85.0113 82.6284 84.82 81.9993 84.7471L80.3105 84.5516L79.9493 87.6707L81.638 87.8663ZM86.4954 83.9692L87.449 84.0796L86.5954 91.4504L85.6418 91.3399L86.4954 83.9692ZM90.9489 86.5688C91.6773 86.6531 92.2129 86.8963 92.5556 87.2984C92.9049 87.7013 93.0385 88.257 92.9565 88.9656L92.5884 92.1444L91.6844 92.0397L91.7649 91.3443C91.5776 91.571 91.3273 91.7332 91.0139 91.8312C90.708 91.9233 90.353 91.9459 89.9491 91.8991C89.3597 91.8309 88.9026 91.6337 88.578 91.3075C88.26 90.9821 88.1278 90.5876 88.1815 90.124C88.2352 89.6604 88.447 89.3091 88.817 89.0701C89.1877 88.8245 89.7406 88.7442 90.4757 88.8293L91.9856 89.0042L92.0075 88.8155C92.055 88.4049 91.9722 88.0765 91.7591 87.8303C91.546 87.5842 91.2077 87.4343 90.7441 87.3806C90.4329 87.3446 90.1221 87.3623 89.8118 87.4337C89.5023 87.4985 89.2349 87.6051 89.0097 87.7536L88.6952 86.9923C88.992 86.8052 89.3357 86.6772 89.7262 86.6084C90.1175 86.5329 90.525 86.5197 90.9489 86.5688ZM90.1931 91.1825C90.5574 91.2246 90.8811 91.1816 91.1644 91.0533C91.4485 90.9184 91.6674 90.7089 91.8211 90.4247L91.9062 89.6896L90.4361 89.5194C89.6281 89.4258 89.1927 89.6505 89.1298 90.1936C89.0991 90.4585 89.1776 90.679 89.3653 90.855C89.5529 91.0311 89.8289 91.1403 90.1931 91.1825ZM100.028 87.6705L99.5014 92.2201C99.3948 93.1407 99.0877 93.793 98.5802 94.1772C98.0718 94.5679 97.364 94.7108 96.4568 94.6057C95.9601 94.5482 95.4946 94.4238 95.0604 94.2326C94.6254 94.048 94.2834 93.8138 94.0344 93.5299L94.5765 92.8478C94.797 93.0881 95.0791 93.2885 95.4229 93.4491C95.7726 93.6171 96.1395 93.7234 96.5236 93.7679C97.1395 93.8392 97.61 93.746 97.9351 93.4884C98.2669 93.2315 98.4673 92.8051 98.5363 92.209L98.5846 91.7918C98.328 92.0373 98.0261 92.2104 97.6788 92.3111C97.339 92.4059 96.977 92.4311 96.5929 92.3867C96.0896 92.3284 95.645 92.1695 95.2589 91.91C94.8803 91.6447 94.5973 91.3066 94.41 90.8956C94.2234 90.4781 94.1589 90.021 94.2164 89.5243C94.274 89.0276 94.4409 88.6006 94.7171 88.2434C94.9941 87.8795 95.3469 87.615 95.7754 87.4498C96.2106 87.2855 96.6798 87.2324 97.1831 87.2907C97.5804 87.3367 97.9395 87.4521 98.2604 87.6369C98.5879 87.8225 98.8444 88.0703 99.03 88.3804L99.1243 87.5659L100.028 87.6705ZM96.7988 91.5649C97.1432 91.6048 97.4596 91.5676 97.748 91.4533C98.043 91.3399 98.2816 91.1628 98.4638 90.9222C98.6534 90.6757 98.7674 90.3869 98.8058 90.0557C98.8648 89.5458 98.7435 89.1157 98.4418 88.7653C98.1409 88.4083 97.7255 88.1991 97.1957 88.1378C96.6593 88.0757 96.2038 88.184 95.8293 88.4628C95.4555 88.7349 95.2391 89.1259 95.18 89.6359C95.1417 89.967 95.1833 90.2738 95.3049 90.5563C95.434 90.833 95.6258 91.0599 95.8805 91.2371C96.1417 91.415 96.4479 91.5242 96.7988 91.5649ZM101.85 87.8816L102.804 87.992L102.194 93.2568L101.241 93.1464L101.85 87.8816ZM102.445 86.9235C102.259 86.9021 102.11 86.8244 101.998 86.6907C101.893 86.5577 101.85 86.4051 101.87 86.2329C101.89 86.0607 101.967 85.9219 102.1 85.8165C102.24 85.7053 102.403 85.6604 102.588 85.6818C102.774 85.7033 102.919 85.7806 103.025 85.9136C103.137 86.0407 103.184 86.1904 103.164 86.3626C103.143 86.5414 103.063 86.6864 102.922 86.7977C102.789 86.9031 102.63 86.945 102.445 86.9235ZM106.548 88.3752C107.276 88.4596 107.812 88.7028 108.154 89.1049C108.504 89.5077 108.637 90.0635 108.555 90.7721L108.187 93.9508L107.283 93.8461L107.364 93.1508C107.176 93.3774 106.926 93.5397 106.613 93.6376C106.307 93.7297 105.952 93.7524 105.548 93.7056C104.959 93.6373 104.502 93.4401 104.177 93.1139C103.859 92.7885 103.727 92.394 103.78 91.9305C103.834 91.4669 104.046 91.1156 104.416 90.8766C104.787 90.6309 105.339 90.5506 106.075 90.6358L107.584 90.8106L107.606 90.6219C107.654 90.2113 107.571 89.8829 107.358 89.6368C107.145 89.3906 106.807 89.2407 106.343 89.187C106.032 89.151 105.721 89.1687 105.411 89.2401C105.101 89.305 104.834 89.4116 104.609 89.56L104.294 88.7988C104.591 88.6117 104.935 88.4837 105.325 88.4148C105.716 88.3393 106.124 88.3261 106.548 88.3752ZM105.792 92.9889C106.156 93.0311 106.48 92.988 106.763 92.8598C107.047 92.7249 107.266 92.5153 107.42 92.2311L107.505 91.4961L106.035 91.3258C105.227 91.2322 104.792 91.457 104.729 92C104.698 92.2649 104.777 92.4854 104.964 92.6615C105.152 92.8376 105.428 92.9467 105.792 92.9889ZM111.373 89.8803C111.574 89.5948 111.846 89.3914 112.189 89.2701C112.532 89.1487 112.935 89.1149 113.399 89.1686L113.292 90.0924C113.239 90.0796 113.167 90.0679 113.074 90.0571C112.558 89.9973 112.132 90.1058 111.798 90.3825C111.472 90.6534 111.275 91.0736 111.209 91.6432L110.906 94.2656L109.952 94.1552L110.562 88.8904L111.476 88.9962L111.373 89.8803ZM114.568 89.3543L115.522 89.4648L114.912 94.7296L113.958 94.6192L114.568 89.3543ZM115.162 88.3963C114.977 88.3749 114.828 88.2972 114.716 88.1635C114.611 88.0305 114.568 87.8779 114.588 87.7057C114.608 87.5335 114.684 87.3947 114.817 87.2893C114.958 87.178 115.121 87.1332 115.306 87.1546C115.492 87.1761 115.637 87.2533 115.742 87.3864C115.855 87.5135 115.902 87.6632 115.882 87.8354C115.861 88.0142 115.78 88.1592 115.64 88.2704C115.507 88.3758 115.348 88.4178 115.162 88.3963ZM118.236 95.1749C117.805 95.1251 117.398 95.0208 117.014 94.8622C116.63 94.697 116.336 94.512 116.132 94.3071L116.617 93.5982C116.829 93.7906 117.095 93.9556 117.415 94.0933C117.734 94.231 118.063 94.3194 118.401 94.3585C119.235 94.4551 119.68 94.265 119.735 93.7882C119.754 93.6293 119.712 93.4969 119.61 93.3912C119.508 93.2854 119.374 93.2027 119.206 93.143C119.046 93.0775 118.813 93.0002 118.508 92.9112C118.092 92.7959 117.753 92.6795 117.492 92.5619C117.237 92.4452 117.025 92.273 116.857 92.0455C116.688 91.8179 116.626 91.5187 116.669 91.1479C116.724 90.6711 116.967 90.3133 117.397 90.0746C117.828 89.8292 118.378 89.7452 119.047 89.8227C119.398 89.8633 119.744 89.947 120.085 90.0738C120.426 90.2005 120.701 90.3497 120.909 90.5215L120.414 91.2293C120.016 90.9013 119.525 90.7036 118.943 90.6361C118.539 90.5893 118.223 90.6199 117.996 90.7278C117.769 90.8357 117.642 90.9989 117.617 91.2174C117.597 91.3896 117.641 91.5323 117.749 91.6454C117.856 91.7586 117.994 91.8483 118.16 91.9146C118.334 91.9816 118.576 92.0634 118.887 92.1598C119.302 92.2817 119.634 92.4007 119.883 92.5167C120.138 92.6268 120.347 92.792 120.51 93.0121C120.672 93.2323 120.733 93.5212 120.691 93.8788C120.636 94.3556 120.387 94.7126 119.943 94.9498C119.507 95.1812 118.938 95.2562 118.236 95.1749ZM128.911 90.965C129.573 91.0417 130.074 91.2943 130.414 91.7229C130.76 92.1522 130.889 92.7444 130.802 93.4993L130.451 96.5291L129.497 96.4186L129.836 93.4982C129.895 92.9882 129.82 92.5903 129.611 92.3045C129.409 92.0193 129.09 91.8515 128.653 91.8009C128.169 91.7449 127.768 91.8527 127.448 92.1244C127.128 92.3894 126.936 92.8034 126.871 93.3663L126.557 96.0781L125.603 95.9677L125.942 93.0472C126.001 92.5373 125.926 92.1394 125.717 91.8535C125.516 91.5684 125.196 91.4005 124.759 91.3499C124.276 91.2939 123.874 91.4018 123.554 91.6734C123.234 91.9384 123.042 92.3524 122.977 92.9153L122.663 95.6272L121.709 95.5168L122.319 90.2519L123.233 90.3578L123.142 91.1425C123.366 90.8933 123.641 90.7171 123.968 90.6141C124.296 90.5044 124.659 90.4726 125.057 90.5186C125.467 90.5662 125.822 90.6911 126.12 90.8935C126.419 91.0959 126.636 91.366 126.772 91.7038C127.006 91.4222 127.308 91.2156 127.679 91.0841C128.056 90.9533 128.467 90.9136 128.911 90.965ZM136.295 92.7663C136.495 92.4809 136.767 92.2775 137.11 92.1561C137.453 92.0347 137.856 92.0009 138.32 92.0546L138.213 92.9784C138.161 92.9657 138.088 92.9539 137.996 92.9432C137.479 92.8834 137.054 92.9918 136.72 93.2686C136.393 93.5395 136.197 93.9597 136.131 94.5292L135.827 97.1517L134.873 97.0412L135.483 91.7764L136.397 91.8822L136.295 92.7663ZM143.891 95.448C143.882 95.5208 143.865 95.6161 143.838 95.7338L139.566 95.2391C139.572 95.7096 139.731 96.1071 140.042 96.4318C140.361 96.7506 140.779 96.9399 141.295 96.9997C141.924 97.0725 142.455 96.9193 142.889 96.5399L143.344 97.2168C143.073 97.4673 142.751 97.6447 142.376 97.749C142.008 97.8541 141.606 97.8813 141.169 97.8307C140.612 97.7662 140.132 97.5965 139.728 97.3215C139.324 97.0399 139.027 96.68 138.836 96.2418C138.652 95.8043 138.59 95.3273 138.649 94.8108C138.708 94.3009 138.874 93.8537 139.147 93.4691C139.426 93.0854 139.778 92.8039 140.201 92.6248C140.632 92.4398 141.099 92.3764 141.602 92.4347C142.106 92.493 142.539 92.6607 142.903 92.9377C143.274 93.2089 143.545 93.5624 143.716 93.9983C143.894 94.435 143.952 94.9182 143.891 95.448ZM141.509 93.2393C141.052 93.1864 140.652 93.281 140.309 93.5231C139.972 93.766 139.751 94.1095 139.646 94.5537L143.023 94.9448C143.021 94.495 142.881 94.113 142.602 93.7988C142.33 93.4787 141.966 93.2923 141.509 93.2393ZM148.32 93.2127C148.83 93.2718 149.274 93.4373 149.652 93.7092C150.03 93.9812 150.308 94.3322 150.487 94.7622C150.672 95.193 150.733 95.6733 150.672 96.2031C150.611 96.7329 150.44 97.1897 150.161 97.5734C149.889 97.9513 149.538 98.2294 149.108 98.4078C148.678 98.5862 148.208 98.6459 147.698 98.5868C147.321 98.5431 146.981 98.43 146.68 98.2475C146.386 98.0657 146.146 97.8231 145.959 97.5197L145.644 100.242L144.69 100.131L145.523 92.9391L146.437 93.045L146.341 93.8794C146.586 93.6125 146.88 93.4251 147.221 93.317C147.563 93.2022 147.93 93.1675 148.32 93.2127ZM147.715 97.7432C148.053 97.7823 148.363 97.741 148.646 97.6194C148.936 97.4919 149.173 97.2979 149.357 97.0374C149.549 96.771 149.666 96.4557 149.709 96.0915C149.751 95.7273 149.708 95.3969 149.582 95.1003C149.462 94.7979 149.276 94.5549 149.022 94.3711C148.775 94.1881 148.482 94.0771 148.144 94.0379C147.813 93.9996 147.503 94.0442 147.213 94.1717C146.93 94.2933 146.693 94.484 146.502 94.7437C146.318 95.0042 146.204 95.3166 146.162 95.6808C146.12 96.0451 146.159 96.3784 146.278 96.6808C146.398 96.9766 146.585 97.2196 146.838 97.41C147.092 97.5938 147.384 97.7048 147.715 97.7432ZM153.933 99.3088C153.41 99.2482 152.953 99.0779 152.563 98.7978C152.172 98.5177 151.881 98.1619 151.69 97.7303C151.505 97.2928 151.443 96.8159 151.503 96.2993C151.563 95.7828 151.732 95.3359 152.011 94.9588C152.296 94.5758 152.661 94.2959 153.104 94.1191C153.548 93.9356 154.032 93.8742 154.555 93.9347C155.078 93.9953 155.532 94.1653 155.916 94.4446C156.307 94.7181 156.594 95.0735 156.779 95.511C156.97 95.9426 157.036 96.4166 156.976 96.9332C156.917 97.4497 156.744 97.8995 156.458 98.2825C156.179 98.6596 155.818 98.9399 155.374 99.1233C154.936 99.3076 154.456 99.3694 153.933 99.3088ZM154.029 98.4744C154.367 98.5135 154.677 98.4722 154.96 98.3506C155.25 98.2231 155.487 98.0291 155.672 97.7686C155.857 97.5015 155.971 97.1858 156.013 96.8216C156.055 96.4573 156.016 96.1273 155.896 95.8316C155.777 95.5292 155.59 95.2861 155.336 95.1023C155.089 94.9193 154.796 94.8083 154.459 94.7692C154.121 94.73 153.807 94.7709 153.518 94.8918C153.236 95.0134 152.998 95.2074 152.807 95.4738C152.622 95.7343 152.509 96.0467 152.466 96.4109C152.424 96.7751 152.463 97.1084 152.582 97.4109C152.709 97.7074 152.896 97.9505 153.142 98.1401C153.396 98.3239 153.692 98.4353 154.029 98.4744ZM159.412 95.4434C159.612 95.158 159.884 94.9545 160.227 94.8332C160.57 94.7118 160.973 94.678 161.437 94.7317L161.33 95.6555C161.278 95.6427 161.205 95.631 161.112 95.6203C160.596 95.5604 160.171 95.6689 159.837 95.9456C159.51 96.2165 159.314 96.6367 159.248 97.2063L158.944 99.8287L157.99 99.7183L158.6 94.4535L159.514 94.5593L159.412 95.4434ZM165.206 100.242C165.053 100.345 164.87 100.418 164.657 100.46C164.445 100.496 164.23 100.501 164.011 100.476C163.481 100.415 163.087 100.225 162.829 99.9062C162.57 99.5877 162.472 99.1635 162.533 98.6337L162.868 95.743L161.974 95.6395L162.065 94.8547L162.959 94.9583L163.092 93.806L164.046 93.9164L163.913 95.0687L165.422 95.2436L165.332 96.0283L163.822 95.8535L163.492 98.7044C163.459 98.9892 163.503 99.2158 163.624 99.3842C163.752 99.5534 163.949 99.6533 164.214 99.684C164.505 99.7177 164.763 99.6637 164.987 99.5219L165.206 100.242Z" fill="#100803"/>
<path d="M82.2547 104.639L80.4831 119.936L77.6421 119.607L79.1378 106.692L75.9034 106.317L76.1793 103.935L82.2547 104.639ZM89.8738 121.245C88.65 121.104 87.5927 120.671 86.702 119.948C85.813 119.21 85.16 118.219 84.743 116.975C84.3277 115.716 84.2146 114.271 84.4035 112.639C84.5925 111.007 85.0321 109.633 85.7224 108.517C86.4144 107.387 87.2766 106.571 88.3091 106.071C89.3432 105.555 90.4722 105.369 91.696 105.51C92.9198 105.652 93.9762 106.092 94.8653 106.83C95.7705 107.555 96.4308 108.547 96.8461 109.805C97.2631 111.05 97.3771 112.488 97.1881 114.119C96.9991 115.751 96.5587 117.132 95.8667 118.263C95.1764 119.379 94.3069 120.194 93.2582 120.707C92.2258 121.208 91.0976 121.387 89.8738 121.245ZM90.1598 118.776C91.2525 118.902 92.1644 118.55 92.8955 117.719C93.6411 116.89 94.1177 115.58 94.3252 113.788C94.5328 111.996 94.3683 110.611 93.8319 109.634C93.31 108.658 92.5027 108.106 91.41 107.98C90.3319 107.855 89.42 108.207 88.6743 109.036C87.9432 109.867 87.4739 111.178 87.2664 112.97C87.0589 114.762 87.2161 116.146 87.7379 117.122C88.2744 118.1 89.0817 118.651 90.1598 118.776ZM104.578 122.948C103.354 122.806 102.297 122.374 101.406 121.651C100.517 120.913 99.8644 119.922 99.4475 118.678C99.0322 117.419 98.919 115.973 99.108 114.342C99.297 112.71 99.7366 111.336 100.427 110.22C101.119 109.09 101.981 108.274 103.014 107.773C104.048 107.258 105.177 107.072 106.4 107.213C107.624 107.355 108.681 107.795 109.57 108.533C110.475 109.258 111.135 110.249 111.551 111.508C111.968 112.753 112.082 114.19 111.893 115.822C111.704 117.454 111.263 118.835 110.571 119.966C109.881 121.082 109.011 121.896 107.963 122.41C106.93 122.91 105.802 123.09 104.578 122.948ZM104.864 120.479C105.957 120.605 106.869 120.253 107.6 119.422C108.346 118.593 108.822 117.283 109.03 115.491C109.237 113.699 109.073 112.314 108.536 111.336C108.014 110.361 107.207 109.809 106.114 109.683C105.036 109.558 104.124 109.91 103.379 110.739C102.648 111.57 102.178 112.881 101.971 114.673C101.763 116.465 101.921 117.849 102.442 118.825C102.979 119.803 103.786 120.354 104.864 120.479ZM123.193 117.729C122.1 117.602 121.264 117.114 120.683 116.264C120.102 115.415 119.884 114.363 120.029 113.11C120.174 111.857 120.627 110.884 121.386 110.189C122.146 109.494 123.072 109.21 124.165 109.337C125.258 109.464 126.094 109.952 126.675 110.801C127.272 111.638 127.497 112.691 127.35 113.958C127.204 115.226 126.743 116.206 125.969 116.899C125.211 117.579 124.286 117.855 123.193 117.729ZM133.326 110.553L135.468 110.801L123.25 124.889L121.108 124.641L133.326 110.553ZM123.37 116.199C123.968 116.268 124.453 116.088 124.828 115.659C125.217 115.232 125.461 114.596 125.558 113.751C125.656 112.906 125.565 112.231 125.284 111.726C125.017 111.222 124.585 110.936 123.988 110.867C123.42 110.801 122.933 110.988 122.527 111.428C122.138 111.856 121.896 112.485 121.8 113.315C121.703 114.146 121.795 114.821 122.074 115.34C122.37 115.847 122.802 116.133 123.37 116.199ZM132.389 126.102C131.296 125.976 130.459 125.488 129.879 124.638C129.298 123.788 129.08 122.737 129.225 121.484C129.37 120.231 129.823 119.257 130.582 118.562C131.342 117.868 132.268 117.584 133.361 117.71C134.453 117.837 135.29 118.325 135.871 119.175C136.466 120.026 136.691 121.079 136.546 122.332C136.401 123.585 135.942 124.557 135.167 125.25C134.408 125.945 133.482 126.229 132.389 126.102ZM132.566 124.573C133.149 124.64 133.635 124.46 134.024 124.033C134.415 123.591 134.658 122.954 134.754 122.124C134.85 121.294 134.758 120.626 134.477 120.121C134.197 119.601 133.766 119.308 133.184 119.24C132.601 119.173 132.115 119.353 131.726 119.78C131.337 120.207 131.093 120.844 130.995 121.689C130.897 122.534 130.989 123.209 131.27 123.714C131.551 124.219 131.983 124.505 132.566 124.573ZM157.289 117.004L155.937 128.674L153.337 128.373L153.509 126.887C153.011 127.361 152.417 127.706 151.728 127.921C151.04 128.122 150.318 128.179 149.56 128.091C148.001 127.91 146.82 127.338 146.016 126.374C145.228 125.397 144.933 124.056 145.131 122.351L145.903 115.686L148.634 116.002L147.906 122.296C147.784 123.345 147.926 124.159 148.332 124.737C148.753 125.303 149.401 125.636 150.275 125.738C151.252 125.851 152.058 125.641 152.696 125.11C153.349 124.565 153.742 123.725 153.874 122.589L154.557 116.688L157.289 117.004ZM167.502 118.054C168.974 118.225 170.104 118.791 170.893 119.754C171.682 120.716 171.979 122.042 171.783 123.732L171.009 130.42L168.277 130.103L169.011 123.766C169.129 122.746 168.977 121.953 168.556 121.388C168.136 120.807 167.481 120.466 166.593 120.363C165.587 120.247 164.758 120.461 164.104 121.005C163.452 121.535 163.061 122.368 162.929 123.504L162.246 129.405L159.514 129.089L160.865 117.419L163.466 117.72L163.291 119.228C163.805 118.741 164.421 118.399 165.138 118.201C165.854 118.004 166.643 117.955 167.502 118.054ZM175.826 119.151L178.558 119.467L177.206 131.137L174.474 130.821L175.826 119.151ZM177.425 117.387C176.93 117.33 176.532 117.129 176.233 116.784C175.935 116.425 175.813 116.012 175.867 115.546C175.921 115.08 176.133 114.713 176.504 114.446C176.876 114.164 177.31 114.052 177.805 114.109C178.3 114.167 178.698 114.368 178.998 114.712C179.299 115.043 179.423 115.434 179.371 115.885C179.315 116.366 179.101 116.755 178.727 117.051C178.369 117.334 177.935 117.446 177.425 117.387ZM193.551 121.204L191.708 137.113L188.977 136.797L189.632 131.137C188.593 132.08 187.286 132.46 185.713 132.278C184.576 132.146 183.585 131.78 182.739 131.18C181.908 130.582 181.29 129.802 180.884 128.839C180.494 127.879 180.367 126.801 180.506 125.606C180.642 124.426 181.018 123.414 181.633 122.57C182.247 121.725 183.027 121.107 183.973 120.715C184.92 120.322 185.961 120.192 187.097 120.323C187.898 120.416 188.611 120.639 189.234 120.992C189.873 121.346 190.385 121.826 190.773 122.432L190.95 120.903L193.551 121.204ZM186.29 129.975C187.295 130.091 188.164 129.852 188.897 129.258C189.631 128.664 190.06 127.82 190.187 126.727C190.314 125.635 190.088 124.715 189.51 123.969C188.932 123.223 188.14 122.792 187.135 122.675C186.13 122.559 185.26 122.798 184.527 123.392C183.808 123.988 183.386 124.832 183.259 125.925C183.133 127.018 183.351 127.936 183.915 128.681C184.493 129.427 185.284 129.858 186.29 129.975ZM208.423 122.926L207.072 134.596L204.471 134.295L204.643 132.809C204.146 133.283 203.552 133.627 202.863 133.843C202.175 134.044 201.452 134.1 200.695 134.013C199.136 133.832 197.954 133.26 197.151 132.295C196.363 131.318 196.068 129.978 196.266 128.273L197.038 121.607L199.769 121.924L199.04 128.218C198.919 129.267 199.061 130.08 199.466 130.659C199.888 131.225 200.536 131.558 201.41 131.659C202.386 131.772 203.193 131.563 203.83 131.031C204.484 130.487 204.877 129.647 205.008 128.51L205.692 122.61L208.423 122.926ZM222.287 130.511C222.266 130.701 222.22 130.969 222.15 131.315L212.993 130.254C213.054 131.133 213.39 131.865 214.001 132.453C214.628 133.028 215.445 133.373 216.45 133.49C217.732 133.638 218.837 133.338 219.766 132.589L221.035 134.441C220.438 135.007 219.72 135.404 218.882 135.631C218.043 135.859 217.122 135.915 216.116 135.798C214.834 135.65 213.735 135.264 212.818 134.641C211.9 134.018 211.225 133.224 210.79 132.258C210.372 131.28 210.23 130.215 210.363 129.064C210.494 127.927 210.867 126.937 211.482 126.093C212.113 125.236 212.917 124.605 213.894 124.202C214.87 123.798 215.934 123.663 217.085 123.796C218.222 123.928 219.205 124.3 220.035 124.913C220.88 125.513 221.498 126.3 221.887 127.276C222.292 128.238 222.426 129.317 222.287 130.511ZM216.832 125.982C215.958 125.88 215.185 126.057 214.512 126.51C213.856 126.951 213.412 127.594 213.182 128.438L219.803 129.205C219.785 128.346 219.507 127.62 218.97 127.027C218.434 126.433 217.721 126.085 216.832 125.982ZM80.8694 134.195C82.0058 134.327 82.9897 134.692 83.821 135.29C84.667 135.89 85.2926 136.671 85.6979 137.634C86.1032 138.596 86.2375 139.667 86.1009 140.847C85.9642 142.028 85.5878 143.047 84.9716 143.906C84.357 144.75 83.5694 145.368 82.6088 145.758C81.6627 146.151 80.6214 146.281 79.485 146.15C77.9115 145.967 76.7266 145.299 75.9302 144.143L75.2747 149.803L72.543 149.487L74.3854 133.577L76.986 133.879L76.8089 135.408C77.3246 134.907 77.9264 134.556 78.614 134.355C79.3163 134.156 80.0681 134.103 80.8694 134.195ZM79.4499 143.776C80.4551 143.892 81.3171 143.652 82.0358 143.056C82.769 142.462 83.1989 141.619 83.3254 140.526C83.452 139.433 83.2262 138.514 82.6482 137.768C82.0848 137.023 81.3004 136.593 80.2952 136.477C79.6395 136.401 79.0318 136.485 78.4718 136.73C77.9136 136.961 77.4494 137.336 77.0794 137.854C76.7093 138.372 76.4821 138.995 76.3977 139.724C76.3134 140.452 76.3921 141.111 76.634 141.7C76.8758 142.289 77.2412 142.767 77.7303 143.134C78.2211 143.486 78.7942 143.7 79.4499 143.776ZM93.6913 135.68C95.4105 135.879 96.6737 136.446 97.4808 137.381C98.3042 138.304 98.6197 139.595 98.4273 141.256L97.6352 148.096L95.0564 147.798L95.2209 146.377C94.8268 146.848 94.3004 147.186 93.6419 147.39C92.9996 147.582 92.2414 147.627 91.3673 147.526C90.4931 147.424 89.7451 147.19 89.1232 146.823C88.503 146.441 88.0412 145.967 87.7377 145.4C87.4504 144.82 87.3456 144.195 87.4232 143.525C87.5447 142.476 88.0278 141.683 88.8725 141.146C89.7335 140.596 91.0018 140.418 92.6772 140.612L95.6931 140.962L95.7133 140.787C95.8078 139.971 95.6327 139.316 95.1879 138.821C94.7578 138.329 94.0619 138.026 93.1003 137.915C92.4447 137.839 91.7846 137.866 91.1199 137.996C90.4698 138.127 89.9051 138.35 89.4258 138.663L88.5853 136.551C89.2512 136.155 90.0283 135.884 90.9166 135.735C91.8048 135.587 92.7298 135.569 93.6913 135.68ZM92.1658 145.603C92.8505 145.682 93.4729 145.599 94.0328 145.354C94.609 145.096 95.0401 144.688 95.3261 144.13L95.483 142.775L92.6639 142.449C91.0904 142.267 90.2437 142.693 90.1239 143.727C90.0666 144.223 90.2177 144.639 90.5773 144.976C90.937 145.313 91.4664 145.522 92.1658 145.603ZM108.976 137.45C110.113 137.582 111.097 137.947 111.928 138.545C112.774 139.145 113.4 139.926 113.805 140.889C114.21 141.851 114.345 142.922 114.208 144.102C114.071 145.282 113.695 146.302 113.079 147.161C112.464 148.005 111.677 148.622 110.716 149.013C109.77 149.406 108.729 149.536 107.592 149.404C106.019 149.222 104.834 148.554 104.037 147.398L103.382 153.058L100.65 152.742L102.493 136.832L105.093 137.134L104.916 138.663C105.432 138.162 106.033 137.811 106.721 137.61C107.423 137.411 108.175 137.358 108.976 137.45ZM107.557 147.031C108.562 147.147 109.424 146.907 110.143 146.311C110.876 145.717 111.306 144.874 111.433 143.781C111.559 142.688 111.333 141.769 110.755 141.023C110.192 140.278 109.408 139.848 108.402 139.731C107.747 139.656 107.139 139.74 106.579 139.985C106.021 140.216 105.557 140.59 105.186 141.109C104.816 141.627 104.589 142.25 104.505 142.979C104.42 143.707 104.499 144.366 104.741 144.955C104.983 145.544 105.348 146.022 105.837 146.389C106.328 146.741 106.901 146.955 107.557 147.031ZM127.762 145.738C127.74 145.928 127.694 146.196 127.624 146.542L118.468 145.482C118.528 146.36 118.864 147.093 119.475 147.68C120.103 148.255 120.919 148.6 121.924 148.717C123.207 148.865 124.312 148.565 125.24 147.816L126.509 149.668C125.912 150.234 125.195 150.631 124.356 150.859C123.518 151.086 122.596 151.142 121.591 151.026C120.308 150.877 119.209 150.491 118.292 149.868C117.375 149.245 116.699 148.451 116.264 147.485C115.846 146.507 115.704 145.442 115.837 144.291C115.969 143.155 116.342 142.164 116.956 141.32C117.587 140.463 118.391 139.833 119.368 139.429C120.345 139.025 121.409 138.89 122.56 139.023C123.696 139.155 124.679 139.527 125.509 140.14C126.355 140.74 126.972 141.528 127.361 142.503C127.767 143.465 127.9 144.544 127.762 145.738ZM122.307 141.209C121.432 141.108 120.659 141.284 119.986 141.737C119.33 142.178 118.886 142.821 118.656 143.665L125.278 144.432C125.259 143.573 124.981 142.847 124.445 142.254C123.908 141.66 123.195 141.312 122.307 141.209ZM133.472 142.147C134.401 141.015 135.856 140.563 137.837 140.793L137.536 143.393C137.308 143.323 137.099 143.276 136.91 143.254C135.846 143.131 134.98 143.348 134.31 143.905C133.641 144.448 133.24 145.302 133.105 146.468L132.449 152.128L129.718 151.812L131.069 140.142L133.67 140.443L133.472 142.147Z" fill="#100803"/>
</g>
</g>
<rect x="67.8063" y="30.6978" width="311" height="175" rx="3.5" transform="rotate(6.60575 67.8063 30.6978)" stroke="#100803"/>
<defs>
<filter id="filter0_d_3161_34257" x="0.466175" y="-0.458641" width="408.579" height="314.598" filterUnits="userSpaceOnUse" color-interpolation-filters="sRGB">
<feFlood flood-opacity="0" result="BackgroundImageFix"/>
<feColorMatrix in="SourceAlpha" type="matrix" values="0 0 0 0 0 0 0 0 0 0 0 0 0 0 0 0 0 0 127 0" result="hardAlpha"/>
<feOffset dy="14.0752"/>
<feGaussianBlur stdDeviation="18.7669"/>
<feColorMatrix type="matrix" values="0 0 0 0 0.0627451 0 0 0 0 0.0313726 0 0 0 0 0.0117647 0 0 0 0.08 0"/>
<feBlend mode="normal" in2="BackgroundImageFix" result="effect1_dropShadow_3161_34257"/>
<feBlend mode="normal" in="SourceGraphic" in2="effect1_dropShadow_3161_34257" result="shape"/>
</filter>
<linearGradient id="paint0_linear_3161_34257" x1="90.7558" y1="60.9728" x2="81.2034" y2="49.5415" gradientUnits="userSpaceOnUse">
<stop stop-color="#FFB806"/>
<stop offset="1" stop-color="#FFB800"/>
</linearGradient>
<clipPath id="clip0_3161_34257">
<rect x="61.5826" y="23" width="312" height="205" rx="4" transform="rotate(6.60575 61.5826 23)" fill="white"/>
</clipPath>
</defs>
</svg>
