<svg width="131" height="144" viewBox="0 0 131 144" fill="none" xmlns="http://www.w3.org/2000/svg">
<path d="M68.4666 5.43115H62.5312V17.362H68.4666V5.43115Z" fill="white" stroke="#100803" stroke-width="1.05204" stroke-miterlimit="10"/>
<path d="M68.4666 5.43115H62.5312V10.7166H68.4666V5.43115Z" fill="#100803" stroke="#100803" stroke-width="1.05204" stroke-miterlimit="10"/>
<path d="M73.2714 0.883301H57.731V9.40778H73.2714V0.883301Z" fill="url(#paint0_linear_3134_33757)" stroke="#100803" stroke-width="1.05204" stroke-miterlimit="10"/>
<path d="M59.8646 1.29102V7.12559" stroke="#100803" stroke-width="1.05204" stroke-miterlimit="10"/>
<path d="M62.6338 3.94238V6.59368" stroke="#100803" stroke-width="1.05204" stroke-miterlimit="10"/>
<path d="M65.0062 8.97877V2.74951" stroke="#100803" stroke-width="1.05204" stroke-miterlimit="10"/>
<path d="M112.918 24.1577L109.784 21.1338L103.766 27.4391L106.9 30.4631L112.918 24.1577Z" fill="white" stroke="#100803" stroke-width="1.05204" stroke-miterlimit="10"/>
<path d="M112.919 24.1582L109.785 21.1343L107.12 23.9263L110.254 26.9503L112.919 24.1582Z" fill="#100803" stroke="#100803" stroke-width="1.05204" stroke-miterlimit="10"/>
<path d="M117.747 24.2064L109.536 16.2842L105.237 20.788L113.448 28.7102L117.747 24.2064Z" fill="#CE4A55" stroke="#100803" stroke-width="1.05204" stroke-miterlimit="10"/>
<path d="M110.462 17.5894L107.522 20.6697" stroke="#100803" stroke-width="1.05204" stroke-miterlimit="10"/>
<path d="M110.586 20.3989L109.25 21.8018" stroke="#100803" stroke-width="1.05204" stroke-miterlimit="10"/>
<path d="M109.302 24.269L112.442 20.9785" stroke="#100803" stroke-width="1.05204" stroke-miterlimit="10"/>
<path d="M111.19 124.089C136.423 98.7183 136.423 57.5845 111.19 32.2139C85.9559 6.84339 45.0441 6.8434 19.8104 32.214C-5.42329 57.5845 -5.42329 98.7183 19.8104 124.089C45.0441 149.459 85.9559 149.459 111.19 124.089Z" fill="url(#paint1_linear_3134_33757)" stroke="#100803" stroke-width="1.05204" stroke-miterlimit="10"/>
<path d="M107.069 36.3524C130.029 59.4369 130.029 96.8655 107.069 119.95C84.1108 143.033 46.8891 143.033 23.9307 119.95C0.970723 96.8655 0.970716 59.4369 23.9307 36.3524C46.8891 13.2694 84.1108 13.2694 107.069 36.3524Z" fill="white" stroke="url(#paint2_linear_3134_33757)" stroke-width="1.05204"/>
<path opacity="0.1" d="M121.174 97.0133L121.174 97.0144C116.791 109.886 108.127 120.843 96.6438 128.038C85.1604 135.232 71.5605 138.223 58.139 136.506C44.7174 134.789 32.2952 128.47 22.9687 118.614C13.8406 108.968 8.22486 96.5111 7.01751 83.2678C20.768 89.0146 44.0366 94.2006 66.7885 78.5868C88.0151 64.0371 107.494 61.1911 122.376 62.613C125.394 73.9412 124.977 85.9209 121.174 97.0133Z" fill="#DEDEDE" stroke="#100803" stroke-width="1.05204"/>
<path d="M58.4564 91.2809C54.674 95.7962 50.3318 99.8058 45.536 103.212C50.5207 92.4606 58.2265 83.2144 67.8821 76.3984C65.3859 81.744 62.2182 86.7456 58.4564 91.2809Z" fill="url(#paint3_linear_3134_33757)" stroke="#100803" stroke-width="1.05204" stroke-miterlimit="10"/>
<path d="M49.3805 65.6127C43.7713 60.1554 38.7799 54.0908 34.4973 47.5298C47.9112 55.6682 59.3304 66.7388 67.9078 79.9202C61.2269 75.8515 55.0135 71.0532 49.3805 65.6127Z" fill="#CE4A55" stroke="#100803" stroke-width="1.05204" stroke-miterlimit="10"/>
<path d="M68.8784 80.5705C70.2049 79.2369 70.2049 77.0747 68.8784 75.741C67.552 74.4074 65.4015 74.4074 64.075 75.741C62.7486 77.0747 62.7486 79.2369 64.075 80.5705C65.4015 81.9041 67.552 81.9041 68.8784 80.5705Z" fill="#100803" stroke="#100803" stroke-width="1.05204" stroke-miterlimit="10"/>
<path d="M65.3091 22.0767V31.6908" stroke="#100803" stroke-width="1.05204" stroke-miterlimit="10"/>
<path d="M65.3091 126.442V136.057" stroke="#100803" stroke-width="1.05204" stroke-miterlimit="10"/>
<path d="M121.992 79.0664H112.433" stroke="#100803" stroke-width="1.05204" stroke-miterlimit="10"/>
<path d="M18.1888 79.0669H8.62653" stroke="#100803" stroke-width="1.05204" stroke-miterlimit="10"/>
<path d="M114.111 50.0781L105.88 54.9689" stroke="#100803" stroke-width="1.05204" stroke-miterlimit="10"/>
<path d="M24.7387 103.165L16.5077 108.055" stroke="#100803" stroke-width="1.05204" stroke-miterlimit="10"/>
<path d="M91.7516 28.6577L87.2926 37.1607" stroke="#100803" stroke-width="1.05204" stroke-miterlimit="10"/>
<path d="M43.3298 120.973L38.8708 129.476" stroke="#100803" stroke-width="1.05204" stroke-miterlimit="10"/>
<path d="M16.5077 50.0781L24.7387 54.9689" stroke="#100803" stroke-width="1.05204" stroke-miterlimit="10"/>
<path d="M105.88 103.165L114.111 108.055" stroke="#100803" stroke-width="1.05204" stroke-miterlimit="10"/>
<path d="M38.8708 28.6577L43.3298 37.1607" stroke="#100803" stroke-width="1.05204" stroke-miterlimit="10"/>
<path d="M87.2926 120.973L91.7516 129.476" stroke="#100803" stroke-width="1.05204" stroke-miterlimit="10"/>
<defs>
<linearGradient id="paint0_linear_3134_33757" x1="68.6265" y1="8.52795" x2="62.2912" y2="-1.75942" gradientUnits="userSpaceOnUse">
<stop stop-color="#FFB806"/>
<stop offset="1" stop-color="#FFB800"/>
</linearGradient>
<linearGradient id="paint1_linear_3134_33757" x1="91.4888" y1="129.706" x2="-15.8564" y2="34.6067" gradientUnits="userSpaceOnUse">
<stop stop-color="#FFB806"/>
<stop offset="1" stop-color="#FFB800"/>
</linearGradient>
<linearGradient id="paint2_linear_3134_33757" x1="89.3572" y1="125.478" x2="-9.18371" y2="38.1779" gradientUnits="userSpaceOnUse">
<stop stop-color="#FFB806"/>
<stop offset="1" stop-color="#FFB800"/>
</linearGradient>
<linearGradient id="paint3_linear_3134_33757" x1="61.203" y1="100.444" x2="39.8431" y2="84.5881" gradientUnits="userSpaceOnUse">
<stop stop-color="#FFB806"/>
<stop offset="1" stop-color="#FFB800"/>
</linearGradient>
</defs>
</svg>
