

<svg width="39" height="42" viewBox="0 0 39 42" fill="none" xmlns="http://www.w3.org/2000/svg">
<circle cx="37.5" cy="40.5" r="1.5" transform="rotate(-180 37.5 40.5)" fill="#100803"/>
<circle cx="25.5" cy="40.5" r="1.5" transform="rotate(-180 25.5 40.5)" fill="#100803"/>
<circle cx="13.5" cy="40.5" r="1.5" transform="rotate(-180 13.5 40.5)" fill="#100803"/>
<circle cx="1.5" cy="40.5" r="1.5" transform="rotate(-180 1.5 40.5)" fill="#100803"/>
<circle cx="37.5" cy="27.5" r="1.5" transform="rotate(-180 37.5 27.5)" fill="#100803"/>
<circle cx="25.5" cy="27.5" r="1.5" transform="rotate(-180 25.5 27.5)" fill="#100803"/>
<circle cx="13.5" cy="27.5" r="1.5" transform="rotate(-180 13.5 27.5)" fill="#100803"/>
<circle cx="1.5" cy="27.5" r="1.5" transform="rotate(-180 1.5 27.5)" fill="#100803"/>
<circle cx="37.5" cy="14.5" r="1.5" transform="rotate(-180 37.5 14.5)" fill="#100803"/>
<circle cx="25.5" cy="14.5" r="1.5" transform="rotate(-180 25.5 14.5)" fill="#100803"/>
<circle cx="13.5" cy="14.5" r="1.5" transform="rotate(-180 13.5 14.5)" fill="#100803"/>
<circle cx="1.5" cy="14.5" r="1.5" transform="rotate(-180 1.5 14.5)" fill="#100803"/>
<circle cx="37.5" cy="1.5" r="1.5" transform="rotate(-180 37.5 1.5)" fill="#100803"/>
<circle cx="25.5" cy="1.5" r="1.5" transform="rotate(-180 25.5 1.5)" fill="#100803"/>
<circle cx="13.5" cy="1.5" r="1.5" transform="rotate(-180 13.5 1.5)" fill="#100803"/>
<circle cx="1.5" cy="1.5" r="1.5" transform="rotate(-180 1.5 1.5)" fill="#100803"/>
</svg>
