<svg width="32" height="32" viewBox="0 0 32 32" fill="none" xmlns="http://www.w3.org/2000/svg">
<g clip-path="url(#clip0_5624_334)">
<path d="M27.7029 0H4.29714C1.92 0 0 1.92 0 4.29714V27.7029C0 30.08 1.92 32 4.29714 32H15.8171V20.5714H12.8914C12.5257 20.5714 12.16 20.2971 12.16 19.84V16.1829C12.16 15.8171 12.4343 15.4514 12.8914 15.4514H15.8171V11.8857C15.8171 7.77143 18.3771 5.48571 22.0343 5.48571H25.0514C25.4171 5.48571 25.7829 5.76 25.7829 6.21714V9.32571C25.7829 9.69143 25.5086 10.0571 25.0514 10.0571H23.2229C21.2114 10.0571 20.8457 10.9714 20.8457 12.4343V15.5429H25.2343C25.6914 15.5429 25.9657 15.9086 25.9657 16.3657L25.5086 20.0229C25.5086 20.3886 25.1429 20.6629 24.7771 20.6629H20.8457V32.0914H27.7029C30.08 32.0914 32 30.1714 32 27.7943V4.29714C32 1.92 30.08 0 27.7029 0Z" fill="#F3F3F3"/>
</g>
<defs>
<clipPath id="clip0_5624_334">
<rect width="32" height="32" fill="white"/>
</clipPath>
</defs>
</svg>
