<svg width="33" height="32" viewBox="0 0 33 32" fill="none" xmlns="http://www.w3.org/2000/svg">
<g id="tiktok_logo" clip-path="url(#clip0_5624_348)">
<path id="Exclude" fill-rule="evenodd" clip-rule="evenodd" d="M6.02773 31.455C12.8568 32.1836 19.7441 32.1836 26.5732 31.455C27.8991 31.3131 29.1364 30.721 30.0787 29.7774C31.0209 28.8338 31.6113 27.5957 31.7514 26.2696C32.4799 19.4405 32.4799 12.5532 31.7514 5.72413C31.6095 4.39818 31.0173 3.16093 30.0737 2.21864C29.1301 1.27636 27.8921 0.685989 26.5659 0.545946C19.7368 -0.182633 12.8496 -0.182633 6.02045 0.545946C4.6945 0.687851 3.45725 1.27996 2.51497 2.22357C1.57269 3.16717 0.982315 4.40525 0.842272 5.7314C0.113693 12.5605 0.113693 19.4477 0.842272 26.2769C0.984176 27.6028 1.57629 28.8401 2.51989 29.7823C3.4635 30.7246 4.70158 31.315 6.02773 31.455ZM9.37206 24.1315C10.5689 25.3284 12.1921 26.0007 13.8847 26.0007C15.5759 25.9978 17.1969 25.3244 18.3922 24.128C19.5875 22.9317 20.2596 21.3101 20.2611 19.6189V13.0298C21.2484 13.6262 22.3803 13.9406 23.5338 13.9389H25.1029V10.8298H23.5447C22.6767 10.8298 21.8443 10.485 21.2305 9.87126C20.6168 9.25751 20.272 8.42508 20.272 7.5571V6.00073H17.1574V19.6244C17.1574 20.2717 16.9655 20.9044 16.6059 21.4426C16.2462 21.9808 15.7351 22.4003 15.1371 22.648C14.5391 22.8957 13.8811 22.9605 13.2462 22.8342C12.6114 22.7079 12.0282 22.3962 11.5705 21.9385C11.1128 21.4808 10.8011 20.8977 10.6748 20.2628C10.5486 19.628 10.6134 18.97 10.8611 18.372C11.1088 17.7739 11.5283 17.2628 12.0665 16.9032C12.6047 16.5436 13.2374 16.3516 13.8847 16.3516H15.4429V13.2371H13.8847C12.1921 13.2371 10.5689 13.9095 9.37206 15.1063C8.17524 16.3031 7.50287 17.9264 7.50287 19.6189C7.50287 21.3115 8.17524 22.9347 9.37206 24.1315Z" fill="#F3F3F3"/>
</g>
<defs>
<clipPath id="clip0_5624_348">
<rect width="32" height="32" fill="white" transform="translate(0.295837)"/>
</clipPath>
</defs>
</svg>
