<svg width="33" height="32" viewBox="0 0 33 32" fill="none" xmlns="http://www.w3.org/2000/svg">
<g id="youtube_logo" clip-path="url(#clip0_5624_343)">
<g id="Group">
<path id="Subtract" fill-rule="evenodd" clip-rule="evenodd" d="M28.6723 5.34925C30.0439 5.71641 31.1219 6.7943 31.489 8.16592C32.1525 10.6495 32.1552 15.8344 32.1552 15.8344C32.1552 15.8344 32.1552 21.0193 31.489 23.5029C31.1219 24.8745 30.0439 25.9524 28.6723 26.3195C26.1888 26.9857 16.2255 26.9857 16.2255 26.9857C16.2255 26.9857 6.26225 26.9857 3.77864 26.3195C2.40703 25.9524 1.32914 24.8745 0.961978 23.5029C0.295837 21.0193 0.295837 15.8344 0.295837 15.8344C0.295837 15.8344 0.295837 10.6495 0.961978 8.16592C1.32914 6.7943 2.40703 5.71641 3.77864 5.34925C6.26225 4.68311 16.2255 4.68311 16.2255 4.68311C16.2255 4.68311 26.1888 4.68311 28.6723 5.34925ZM21.313 15.8341L13.0361 20.6124V11.0557L21.313 15.8341Z" fill="#F3F3F3"/>
</g>
</g>
<defs>
<clipPath id="clip0_5624_343">
<rect width="32" height="32" fill="white" transform="translate(0.295837)"/>
</clipPath>
</defs>
</svg>
