<svg width="159" height="160" viewBox="0 0 159 160" fill="none" xmlns="http://www.w3.org/2000/svg">
<path d="M5.47171 4.29846H150.028C151.399 4.29846 152.714 4.84488 153.683 5.81752C154.652 6.79015 155.197 8.10932 155.197 9.48483V159.196H0.303345V9.48483C0.303345 8.10932 0.847869 6.79015 1.81713 5.81752C2.78638 4.84488 4.10097 4.29846 5.47171 4.29846Z" fill="#100803"/>
<path d="M155.184 159.5H0.303308C0.223352 159.498 0.147102 159.466 0.0905536 159.409C0.0340055 159.352 0.00155298 159.276 0 159.196V9.48478C0 8.03178 0.575201 6.63829 1.59906 5.61086C2.62293 4.58343 4.01158 4.00623 5.45954 4.00623H150.028C151.476 4.00623 152.865 4.58343 153.889 5.61086C154.913 6.63829 155.488 8.03178 155.488 9.48478V159.196C155.486 159.276 155.454 159.352 155.397 159.409C155.341 159.466 155.264 159.498 155.184 159.5ZM0.606616 158.891H154.881V9.48478C154.881 8.19322 154.37 6.95457 153.46 6.04129C152.55 5.12802 151.315 4.61495 150.028 4.61495H5.47167C4.1846 4.61495 2.95024 5.12802 2.04014 6.04129C1.13004 6.95457 0.618746 8.19322 0.618746 9.48478L0.606616 158.891Z" fill="#100803"/>
<path d="M9.00223 0.761719H153.541C154.222 0.761707 154.896 0.896858 155.525 1.1594C156.155 1.42194 156.726 1.80669 157.206 2.29152C157.686 2.77634 158.066 3.35168 158.324 3.98444C158.582 4.6172 158.713 5.29488 158.709 5.97853V155.653H3.83386V5.97853C3.82986 5.29488 3.9606 4.6172 4.21854 3.98444C4.47648 3.35168 4.85655 2.77634 5.33688 2.29152C5.8172 1.80669 6.38831 1.42194 7.01735 1.1594C7.64639 0.896858 8.32095 0.761707 9.00223 0.761719Z" fill="white"/>
<path d="M158.709 155.957H3.83373C3.75329 155.957 3.67614 155.925 3.61926 155.868C3.56238 155.811 3.53043 155.734 3.53043 155.653V5.97856C3.53043 4.52556 4.10563 3.13206 5.12949 2.10463C6.15335 1.0772 7.54201 0.5 8.98997 0.5H153.54C154.988 0.5 156.377 1.0772 157.401 2.10463C158.425 3.13206 159 4.52556 159 5.97856V155.653C159 155.731 158.97 155.807 158.916 155.864C158.861 155.921 158.787 155.954 158.709 155.957ZM4.13097 155.348H158.406V5.97856C158.406 4.687 157.894 3.44834 156.984 2.53507C156.074 1.6218 154.84 1.10873 153.553 1.10873H9.0021C7.71502 1.10873 6.48066 1.6218 5.57056 2.53507C4.66046 3.44834 4.14917 4.687 4.14917 5.97856L4.13097 155.348Z" fill="#100803"/>
<path d="M9.00223 0.761719H153.541C154.222 0.761707 154.896 0.896858 155.525 1.1594C156.155 1.42194 156.726 1.80669 157.206 2.29152C157.686 2.77634 158.066 3.35168 158.324 3.98444C158.582 4.6172 158.713 5.29488 158.709 5.97853V15.5964H3.83386V5.97853C3.82986 5.29488 3.9606 4.6172 4.21854 3.98444C4.47648 3.35168 4.85655 2.77634 5.33688 2.29152C5.8172 1.80669 6.38831 1.42194 7.01735 1.1594C7.64639 0.896858 8.32095 0.761707 9.00223 0.761719Z" fill="url(#paint0_linear_3568_35525)"/>
<path d="M158.709 15.8704H3.83373C3.75329 15.8704 3.67614 15.8383 3.61926 15.7813C3.56238 15.7242 3.53043 15.6468 3.53043 15.566V5.97856C3.53043 4.52556 4.10563 3.13206 5.12949 2.10463C6.15335 1.0772 7.54201 0.5 8.98997 0.5H153.54C154.988 0.5 156.377 1.0772 157.401 2.10463C158.425 3.13206 159 4.52556 159 5.97856V15.5965C158.993 15.6698 158.959 15.7379 158.906 15.7883C158.852 15.8386 158.782 15.8678 158.709 15.8704ZM4.13097 15.2617H158.406V5.97856C158.406 4.687 157.894 3.44834 156.984 2.53507C156.074 1.6218 154.84 1.10873 153.553 1.10873H9.0021C7.71502 1.10873 6.48066 1.6218 5.57056 2.53507C4.66046 3.44834 4.14917 4.687 4.14917 5.97856L4.13097 15.2617Z" fill="#100803"/>
<path d="M133.795 8.63865C133.795 8.15707 133.653 7.68631 133.386 7.28589C133.12 6.88547 132.741 6.57338 132.297 6.38908C131.854 6.20479 131.366 6.15657 130.895 6.25052C130.425 6.34447 129.992 6.57638 129.653 6.91691C129.314 7.25744 129.083 7.6913 128.989 8.16362C128.895 8.63595 128.943 9.12553 129.127 9.57046C129.311 10.0154 129.622 10.3957 130.021 10.6632C130.42 10.9308 130.889 11.0736 131.369 11.0736C132.012 11.0736 132.629 10.817 133.085 10.3604C133.54 9.90376 133.795 9.28443 133.795 8.63865Z" fill="white"/>
<path d="M131.393 11.3537C130.856 11.3549 130.331 11.1961 129.884 10.8976C129.437 10.5991 129.089 10.1742 128.883 9.67674C128.677 9.17929 128.623 8.63168 128.727 8.10329C128.832 7.57489 129.09 7.0895 129.47 6.70859C129.849 6.32768 130.333 6.06841 130.859 5.96361C131.386 5.85881 131.932 5.91321 132.427 6.11991C132.923 6.32661 133.347 6.67632 133.644 7.12472C133.942 7.57312 134.1 8.10004 134.098 8.63872C134.098 9.35876 133.813 10.0493 133.306 10.5585C132.799 11.0676 132.111 11.3537 131.393 11.3537ZM131.393 6.52643C130.976 6.52523 130.569 6.64809 130.222 6.87945C129.875 7.11082 129.604 7.44029 129.444 7.82616C129.284 8.21202 129.241 8.63692 129.322 9.04706C129.402 9.45721 129.602 9.83415 129.896 10.1302C130.19 10.4262 130.566 10.628 130.974 10.71C131.383 10.792 131.806 10.7505 132.191 10.5908C132.576 10.4311 132.905 10.1604 133.137 9.81288C133.368 9.46538 133.492 9.05675 133.492 8.63872C133.492 8.07956 133.271 7.54321 132.878 7.14725C132.484 6.7513 131.95 6.52804 131.393 6.52643Z" fill="#100803"/>
<path d="M141.014 8.63865C141.014 8.15707 140.872 7.68631 140.605 7.28589C140.338 6.88547 139.959 6.57338 139.516 6.38908C139.073 6.20479 138.585 6.15657 138.114 6.25052C137.643 6.34447 137.211 6.57638 136.872 6.91691C136.532 7.25744 136.301 7.6913 136.208 8.16362C136.114 8.63595 136.162 9.12553 136.346 9.57046C136.529 10.0154 136.84 10.3957 137.239 10.6632C137.638 10.9308 138.107 11.0736 138.587 11.0736C139.231 11.0736 139.848 10.817 140.303 10.3604C140.758 9.90376 141.014 9.28443 141.014 8.63865Z" fill="white"/>
<path d="M138.606 11.3537C138.069 11.3537 137.545 11.1939 137.099 10.8947C136.653 10.5954 136.305 10.1701 136.1 9.67252C135.895 9.17496 135.842 8.62754 135.947 8.09955C136.052 7.57156 136.311 7.08673 136.69 6.70644C137.07 6.32614 137.554 6.06747 138.08 5.96317C138.607 5.85886 139.152 5.91362 139.648 6.1205C140.143 6.32738 140.566 6.67709 140.863 7.12536C141.16 7.57362 141.318 8.1003 141.317 8.63873C141.317 8.99577 141.247 9.34931 141.111 9.6791C140.974 10.0089 140.775 10.3084 140.523 10.5606C140.271 10.8128 139.972 11.0127 139.643 11.1487C139.314 11.2848 138.961 11.3545 138.606 11.3537ZM138.606 6.52644C138.189 6.52644 137.782 6.65032 137.436 6.88242C137.09 7.11453 136.82 7.44442 136.661 7.83039C136.502 8.21636 136.46 8.64107 136.541 9.05081C136.622 9.46056 136.823 9.83693 137.117 10.1323C137.412 10.4278 137.787 10.6289 138.195 10.7104C138.603 10.7919 139.027 10.7501 139.411 10.5902C139.796 10.4304 140.125 10.1596 140.356 9.81225C140.587 9.46489 140.711 9.0565 140.711 8.63873C140.711 8.07851 140.489 7.54125 140.094 7.14511C139.699 6.74898 139.164 6.52644 138.606 6.52644Z" fill="#100803"/>
<path d="M148.208 8.63865C148.208 8.15707 148.066 7.68631 147.8 7.28589C147.533 6.88547 147.154 6.57338 146.711 6.38908C146.267 6.20479 145.779 6.15657 145.309 6.25052C144.838 6.34447 144.406 6.57638 144.066 6.91691C143.727 7.25744 143.496 7.6913 143.402 8.16362C143.309 8.63595 143.357 9.12553 143.54 9.57046C143.724 10.0154 144.035 10.3957 144.434 10.6632C144.833 10.9308 145.302 11.0736 145.782 11.0736C146.426 11.0736 147.043 10.817 147.498 10.3604C147.953 9.90376 148.208 9.28443 148.208 8.63865Z" fill="#100803"/>
<path d="M145.818 11.3537C145.282 11.3537 144.757 11.1939 144.311 10.8947C143.865 10.5954 143.518 10.1701 143.313 9.67252C143.107 9.17496 143.054 8.62754 143.159 8.09955C143.264 7.57156 143.523 7.08673 143.903 6.70644C144.283 6.32614 144.767 6.06747 145.293 5.96317C145.819 5.85886 146.365 5.91362 146.86 6.1205C147.356 6.32738 147.779 6.67709 148.076 7.12536C148.373 7.57362 148.531 8.1003 148.53 8.63873C148.53 8.99577 148.46 9.34931 148.323 9.6791C148.187 10.0089 147.987 10.3084 147.735 10.5606C147.483 10.8128 147.184 11.0127 146.855 11.1487C146.527 11.2848 146.174 11.3545 145.818 11.3537ZM145.818 6.52644C145.402 6.52644 144.995 6.65032 144.649 6.88242C144.303 7.11453 144.033 7.44442 143.874 7.83039C143.714 8.21636 143.673 8.64107 143.754 9.05081C143.835 9.46056 144.035 9.83693 144.33 10.1323C144.624 10.4278 144.999 10.6289 145.408 10.7104C145.816 10.7919 146.239 10.7501 146.624 10.5902C147.008 10.4304 147.337 10.1596 147.568 9.81225C147.8 9.46489 147.923 9.0565 147.923 8.63873C147.923 8.07851 147.701 7.54125 147.307 7.14511C146.912 6.74898 146.377 6.52644 145.818 6.52644Z" fill="#100803"/>
<path d="M44.3436 38.7586H19.7211C19.4798 38.7586 19.2483 38.6624 19.0777 38.4911C18.907 38.3199 18.8112 38.0876 18.8112 37.8455C18.8112 37.6033 18.907 37.371 19.0777 37.1998C19.2483 37.0286 19.4798 36.9324 19.7211 36.9324H44.3436C44.5849 36.9324 44.8164 37.0286 44.987 37.1998C45.1577 37.371 45.2535 37.6033 45.2535 37.8455C45.2535 38.0876 45.1577 38.3199 44.987 38.4911C44.8164 38.6624 44.5849 38.7586 44.3436 38.7586Z" fill="#100803"/>
<path d="M72.0477 38.7586H47.4252C47.1839 38.7586 46.9524 38.6624 46.7818 38.4911C46.6111 38.3199 46.5153 38.0876 46.5153 37.8455C46.5153 37.6033 46.6111 37.371 46.7818 37.1998C46.9524 37.0286 47.1839 36.9324 47.4252 36.9324H72.0477C72.289 36.9324 72.5205 37.0286 72.6911 37.1998C72.8618 37.371 72.9576 37.6033 72.9576 37.8455C72.9576 38.0876 72.8618 38.3199 72.6911 38.4911C72.5205 38.6624 72.289 38.7586 72.0477 38.7586Z" fill="#100803"/>
<path d="M99.7459 38.7586H75.1234C74.882 38.7586 74.6506 38.6624 74.4799 38.4911C74.3093 38.3199 74.2134 38.0876 74.2134 37.8455C74.2134 37.6033 74.3093 37.371 74.4799 37.1998C74.6506 37.0286 74.882 36.9324 75.1234 36.9324H99.7459C99.9872 36.9324 100.219 37.0286 100.389 37.1998C100.56 37.371 100.656 37.6033 100.656 37.8455C100.656 38.0876 100.56 38.3199 100.389 38.4911C100.219 38.6624 99.9872 38.7586 99.7459 38.7586Z" fill="#100803"/>
<path d="M113.292 38.7586H102.828C102.586 38.7586 102.355 38.6624 102.184 38.4911C102.013 38.3199 101.918 38.0876 101.918 37.8455C101.918 37.6033 102.013 37.371 102.184 37.1998C102.355 37.0286 102.586 36.9324 102.828 36.9324H113.292C113.533 36.9324 113.764 37.0286 113.935 37.1998C114.106 37.371 114.202 37.6033 114.202 37.8455C114.202 38.0876 114.106 38.3199 113.935 38.4911C113.764 38.6624 113.533 38.7586 113.292 38.7586Z" fill="#100803"/>
<path d="M31.1315 66.3158H19.7211C19.4798 66.3158 19.2483 66.2196 19.0777 66.0484C18.907 65.8771 18.8112 65.6449 18.8112 65.4027C18.8112 65.1605 18.907 64.9283 19.0777 64.7571C19.2483 64.5858 19.4798 64.4896 19.7211 64.4896H31.1315C31.3729 64.4896 31.6043 64.5858 31.7749 64.7571C31.9456 64.9283 32.0414 65.1605 32.0414 65.4027C32.0414 65.6449 31.9456 65.8771 31.7749 66.0484C31.6043 66.2196 31.3729 66.3158 31.1315 66.3158Z" fill="#100803"/>
<path d="M62.5057 73.03H19.7211C19.4798 73.03 19.2483 72.9338 19.0777 72.7626C18.907 72.5914 18.8112 72.3591 18.8112 72.117C18.8112 71.8748 18.907 71.6425 19.0777 71.4713C19.2483 71.3001 19.4798 71.2039 19.7211 71.2039H62.5057C62.747 71.2039 62.9785 71.3001 63.1491 71.4713C63.3197 71.6425 63.4156 71.8748 63.4156 72.117C63.4156 72.3591 63.3197 72.5914 63.1491 72.7626C62.9785 72.9338 62.747 73.03 62.5057 73.03Z" fill="#DEDEDE"/>
<path d="M128.681 73.03H85.8968C85.6555 73.03 85.424 72.9338 85.2534 72.7626C85.0827 72.5914 84.9869 72.3591 84.9869 72.117C84.9869 71.8748 85.0827 71.6425 85.2534 71.4713C85.424 71.3001 85.6555 71.2039 85.8968 71.2039H128.681C128.923 71.2039 129.154 71.3001 129.325 71.4713C129.495 71.6425 129.591 71.8748 129.591 72.117C129.591 72.3591 129.495 72.5914 129.325 72.7626C129.154 72.9338 128.923 73.03 128.681 73.03Z" fill="#100803"/>
<path d="M82.2025 73.03H65.2779C65.0365 73.03 64.8051 72.9338 64.6345 72.7626C64.4638 72.5914 64.368 72.3591 64.368 72.117C64.368 71.8748 64.4638 71.6425 64.6345 71.4713C64.8051 71.3001 65.0365 71.2039 65.2779 71.2039H82.2025C82.4438 71.2039 82.6752 71.3001 82.8459 71.4713C83.0165 71.6425 83.1124 71.8748 83.1124 72.117C83.1124 72.3591 83.0165 72.5914 82.8459 72.7626C82.6752 72.9338 82.4438 73.03 82.2025 73.03Z" fill="#100803"/>
<path d="M44.3436 79.7383H19.7211C19.4798 79.7383 19.2483 79.6421 19.0777 79.4709C18.907 79.2996 18.8112 79.0674 18.8112 78.8252C18.8112 78.583 18.907 78.3508 19.0777 78.1796C19.2483 78.0083 19.4798 77.9121 19.7211 77.9121H44.3436C44.5849 77.9121 44.8164 78.0083 44.987 78.1796C45.1577 78.3508 45.2535 78.583 45.2535 78.8252C45.2535 79.0674 45.1577 79.2996 44.987 79.4709C44.8164 79.6421 44.5849 79.7383 44.3436 79.7383Z" fill="#100803"/>
<path d="M72.0477 79.7383H47.4252C47.1839 79.7383 46.9524 79.6421 46.7818 79.4709C46.6111 79.2996 46.5153 79.0674 46.5153 78.8252C46.5153 78.583 46.6111 78.3508 46.7818 78.1796C46.9524 78.0083 47.1839 77.9121 47.4252 77.9121H72.0477C72.289 77.9121 72.5205 78.0083 72.6911 78.1796C72.8618 78.3508 72.9576 78.583 72.9576 78.8252C72.9576 79.0674 72.8618 79.2996 72.6911 79.4709C72.5205 79.6421 72.289 79.7383 72.0477 79.7383Z" fill="#100803"/>
<path d="M99.7459 79.7383H75.1234C74.882 79.7383 74.6506 79.6421 74.4799 79.4709C74.3093 79.2996 74.2134 79.0674 74.2134 78.8252C74.2134 78.583 74.3093 78.3508 74.4799 78.1796C74.6506 78.0083 74.882 77.9121 75.1234 77.9121H99.7459C99.9872 77.9121 100.219 78.0083 100.389 78.1796C100.56 78.3508 100.656 78.583 100.656 78.8252C100.656 79.0674 100.56 79.2996 100.389 79.4709C100.219 79.6421 99.9872 79.7383 99.7459 79.7383Z" fill="#DEDEDE"/>
<path d="M113.292 79.7383H102.828C102.586 79.7383 102.355 79.6421 102.184 79.4709C102.013 79.2996 101.918 79.0674 101.918 78.8252C101.918 78.583 102.013 78.3508 102.184 78.1796C102.355 78.0083 102.586 77.9121 102.828 77.9121H113.292C113.533 77.9121 113.764 78.0083 113.935 78.1796C114.106 78.3508 114.202 78.583 114.202 78.8252C114.202 79.0674 114.106 79.2996 113.935 79.4709C113.764 79.6421 113.533 79.7383 113.292 79.7383Z" fill="#100803"/>
<path d="M45.5749 66.3158H34.1645C33.9231 66.3158 33.6917 66.2196 33.5211 66.0484C33.3504 65.8771 33.2545 65.6449 33.2545 65.4027C33.2545 65.1605 33.3504 64.9283 33.5211 64.7571C33.6917 64.5858 33.9231 64.4896 34.1645 64.4896H45.5507C45.792 64.4896 46.0234 64.5858 46.1941 64.7571C46.3647 64.9283 46.4606 65.1605 46.4606 65.4027C46.4606 65.6449 46.3647 65.8771 46.1941 66.0484C46.0234 66.2196 45.792 66.3158 45.5507 66.3158H45.5749Z" fill="#100803"/>
<path d="M113.292 66.3158H101.905C101.664 66.3158 101.433 66.2196 101.262 66.0484C101.091 65.8771 100.995 65.6449 100.995 65.4027C100.995 65.1605 101.091 64.9283 101.262 64.7571C101.433 64.5858 101.664 64.4896 101.905 64.4896H113.292C113.533 64.4896 113.764 64.5858 113.935 64.7571C114.106 64.9283 114.202 65.1605 114.202 65.4027C114.202 65.6449 114.106 65.8771 113.935 66.0484C113.764 66.2196 113.533 66.3158 113.292 66.3158Z" fill="#100803"/>
<path d="M98.2111 66.3158H86.8189C86.5775 66.3158 86.3461 66.2196 86.1754 66.0484C86.0048 65.8771 85.9089 65.6449 85.9089 65.4027C85.9089 65.1605 86.0048 64.9283 86.1754 64.7571C86.3461 64.5858 86.5775 64.4896 86.8189 64.4896H98.2111C98.4524 64.4896 98.6839 64.5858 98.8545 64.7571C99.0252 64.9283 99.121 65.1605 99.121 65.4027C99.121 65.6449 99.0252 65.8771 98.8545 66.0484C98.6839 66.2196 98.4524 66.3158 98.2111 66.3158Z" fill="#DEDEDE"/>
<path d="M81.8931 66.3158H48.6566C48.4153 66.3158 48.1839 66.2196 48.0132 66.0484C47.8426 65.8771 47.7467 65.6449 47.7467 65.4027C47.7467 65.1605 47.8426 64.9283 48.0132 64.7571C48.1839 64.5858 48.4153 64.4896 48.6566 64.4896H81.8931C82.1344 64.4896 82.3659 64.5858 82.5365 64.7571C82.7072 64.9283 82.803 65.1605 82.803 65.4027C82.803 65.6449 82.7072 65.8771 82.5365 66.0484C82.3659 66.2196 82.1344 66.3158 81.8931 66.3158Z" fill="#100803"/>
<path d="M31.1315 126.732H19.7211C19.4798 126.732 19.2483 126.636 19.0777 126.465C18.907 126.293 18.8112 126.061 18.8112 125.819C18.8112 125.577 18.907 125.345 19.0777 125.173C19.2483 125.002 19.4798 124.906 19.7211 124.906H31.1315C31.3729 124.906 31.6043 125.002 31.7749 125.173C31.9456 125.345 32.0414 125.577 32.0414 125.819C32.0414 126.061 31.9456 126.293 31.7749 126.465C31.6043 126.636 31.3729 126.732 31.1315 126.732Z" fill="#100803"/>
<path d="M62.5057 133.447H19.7211C19.4798 133.447 19.2483 133.35 19.0777 133.179C18.907 133.008 18.8112 132.776 18.8112 132.533C18.8112 132.291 18.907 132.059 19.0777 131.888C19.2483 131.717 19.4798 131.62 19.7211 131.62H62.5057C62.747 131.62 62.9785 131.717 63.1491 131.888C63.3197 132.059 63.4156 132.291 63.4156 132.533C63.4156 132.776 63.3197 133.008 63.1491 133.179C62.9785 133.35 62.747 133.447 62.5057 133.447Z" fill="#DEDEDE"/>
<path d="M128.681 133.447H85.8968C85.6555 133.447 85.424 133.35 85.2534 133.179C85.0827 133.008 84.9869 132.776 84.9869 132.533C84.9869 132.291 85.0827 132.059 85.2534 131.888C85.424 131.717 85.6555 131.62 85.8968 131.62H128.681C128.923 131.62 129.154 131.717 129.325 131.888C129.495 132.059 129.591 132.291 129.591 132.533C129.591 132.776 129.495 133.008 129.325 133.179C129.154 133.35 128.923 133.447 128.681 133.447Z" fill="#100803"/>
<path d="M82.2025 133.447H65.2779C65.0365 133.447 64.8051 133.35 64.6345 133.179C64.4638 133.008 64.368 132.776 64.368 132.533C64.368 132.291 64.4638 132.059 64.6345 131.888C64.8051 131.717 65.0365 131.62 65.2779 131.62H82.2025C82.4438 131.62 82.6752 131.717 82.8459 131.888C83.0165 132.059 83.1124 132.291 83.1124 132.533C83.1124 132.776 83.0165 133.008 82.8459 133.179C82.6752 133.35 82.4438 133.447 82.2025 133.447Z" fill="#100803"/>
<path d="M44.3436 140.155H19.7211C19.4798 140.155 19.2483 140.058 19.0777 139.887C18.907 139.716 18.8112 139.484 18.8112 139.242C18.8112 138.999 18.907 138.767 19.0777 138.596C19.2483 138.425 19.4798 138.328 19.7211 138.328H44.3436C44.5849 138.328 44.8164 138.425 44.987 138.596C45.1577 138.767 45.2535 138.999 45.2535 139.242C45.2535 139.484 45.1577 139.716 44.987 139.887C44.8164 140.058 44.5849 140.155 44.3436 140.155Z" fill="#100803"/>
<path d="M72.0477 140.155H47.4252C47.1839 140.155 46.9524 140.058 46.7818 139.887C46.6111 139.716 46.5153 139.484 46.5153 139.242C46.5153 138.999 46.6111 138.767 46.7818 138.596C46.9524 138.425 47.1839 138.328 47.4252 138.328H72.0477C72.289 138.328 72.5205 138.425 72.6911 138.596C72.8618 138.767 72.9576 138.999 72.9576 139.242C72.9576 139.484 72.8618 139.716 72.6911 139.887C72.5205 140.058 72.289 140.155 72.0477 140.155Z" fill="#100803"/>
<path d="M99.7459 140.155H75.1234C74.882 140.155 74.6506 140.058 74.4799 139.887C74.3093 139.716 74.2134 139.484 74.2134 139.242C74.2134 138.999 74.3093 138.767 74.4799 138.596C74.6506 138.425 74.882 138.328 75.1234 138.328H99.7459C99.9872 138.328 100.219 138.425 100.389 138.596C100.56 138.767 100.656 138.999 100.656 139.242C100.656 139.484 100.56 139.716 100.389 139.887C100.219 140.058 99.9872 140.155 99.7459 140.155Z" fill="#DEDEDE"/>
<path d="M113.292 140.155H102.828C102.586 140.155 102.355 140.058 102.184 139.887C102.013 139.716 101.918 139.484 101.918 139.242C101.918 138.999 102.013 138.767 102.184 138.596C102.355 138.425 102.586 138.328 102.828 138.328H113.292C113.533 138.328 113.764 138.425 113.935 138.596C114.106 138.767 114.202 138.999 114.202 139.242C114.202 139.484 114.106 139.716 113.935 139.887C113.764 140.058 113.533 140.155 113.292 140.155Z" fill="#100803"/>
<path d="M45.5749 126.732H34.1645C33.9231 126.732 33.6917 126.636 33.5211 126.465C33.3504 126.293 33.2545 126.061 33.2545 125.819C33.2545 125.577 33.3504 125.345 33.5211 125.173C33.6917 125.002 33.9231 124.906 34.1645 124.906H45.5507C45.792 124.906 46.0234 125.002 46.1941 125.173C46.3647 125.345 46.4606 125.577 46.4606 125.819C46.4606 126.061 46.3647 126.293 46.1941 126.465C46.0234 126.636 45.792 126.732 45.5507 126.732H45.5749Z" fill="#100803"/>
<path d="M113.292 126.732H101.905C101.664 126.732 101.433 126.636 101.262 126.465C101.091 126.293 100.995 126.061 100.995 125.819C100.995 125.577 101.091 125.345 101.262 125.173C101.433 125.002 101.664 124.906 101.905 124.906H113.292C113.533 124.906 113.764 125.002 113.935 125.173C114.106 125.345 114.202 125.577 114.202 125.819C114.202 126.061 114.106 126.293 113.935 126.465C113.764 126.636 113.533 126.732 113.292 126.732Z" fill="#100803"/>
<path d="M98.2111 126.732H86.8189C86.5775 126.732 86.3461 126.636 86.1754 126.465C86.0048 126.293 85.9089 126.061 85.9089 125.819C85.9089 125.577 86.0048 125.345 86.1754 125.173C86.3461 125.002 86.5775 124.906 86.8189 124.906H98.2111C98.4524 124.906 98.6839 125.002 98.8545 125.173C99.0252 125.345 99.121 125.577 99.121 125.819C99.121 126.061 99.0252 126.293 98.8545 126.465C98.6839 126.636 98.4524 126.732 98.2111 126.732Z" fill="#DEDEDE"/>
<path d="M81.8931 126.732H48.6566C48.4153 126.732 48.1839 126.636 48.0132 126.465C47.8426 126.293 47.7467 126.061 47.7467 125.819C47.7467 125.577 47.8426 125.345 48.0132 125.173C48.1839 125.002 48.4153 124.906 48.6566 124.906H81.8931C82.1344 124.906 82.3659 125.002 82.5365 125.173C82.7072 125.345 82.803 125.577 82.803 125.819C82.803 126.061 82.7072 126.293 82.5365 126.465C82.3659 126.636 82.1344 126.732 81.8931 126.732Z" fill="#100803"/>
<path d="M95.1296 45.8198H83.7434C83.5021 45.8198 83.2707 45.7236 83.1 45.5524C82.9294 45.3812 82.8335 45.1489 82.8335 44.9067C82.8335 44.6646 82.9294 44.4323 83.1 44.2611C83.2707 44.0899 83.5021 43.9937 83.7434 43.9937H95.1296C95.3709 43.9937 95.6024 44.0899 95.773 44.2611C95.9437 44.4323 96.0395 44.6646 96.0395 44.9067C96.0395 45.1489 95.9437 45.3812 95.773 45.5524C95.6024 45.7236 95.3709 45.8198 95.1296 45.8198Z" fill="#100803"/>
<path d="M80.049 45.8198H68.6628C68.4215 45.8198 68.1901 45.7236 68.0194 45.5524C67.8488 45.3812 67.7529 45.1489 67.7529 44.9067C67.7529 44.6646 67.8488 44.4323 68.0194 44.2611C68.1901 44.0899 68.4215 43.9937 68.6628 43.9937H80.049C80.2903 43.9937 80.5218 44.0899 80.6924 44.2611C80.8631 44.4323 80.9589 44.6646 80.9589 44.9067C80.9589 45.1489 80.8631 45.3812 80.6924 45.5524C80.5218 45.7236 80.2903 45.8198 80.049 45.8198Z" fill="#100803"/>
<path d="M63.7371 45.8198H30.5249C30.2836 45.8198 30.0521 45.7236 29.8815 45.5524C29.7109 45.3812 29.615 45.1489 29.615 44.9067C29.615 44.6646 29.7109 44.4323 29.8815 44.2611C30.0521 44.0899 30.2836 43.9937 30.5249 43.9937H63.7675C64.0088 43.9937 64.2402 44.0899 64.4109 44.2611C64.5815 44.4323 64.6774 44.6646 64.6774 44.9067C64.6774 45.1489 64.5815 45.3812 64.4109 45.5524C64.2402 45.7236 64.0088 45.8198 63.7675 45.8198H63.7371Z" fill="#100803"/>
<path d="M95.1296 57.8362H83.7434C83.5021 57.8362 83.2707 57.74 83.1 57.5688C82.9294 57.3975 82.8335 57.1653 82.8335 56.9231C82.8335 56.6809 82.9294 56.4487 83.1 56.2774C83.2707 56.1062 83.5021 56.01 83.7434 56.01H95.1296C95.3709 56.01 95.6024 56.1062 95.773 56.2774C95.9437 56.4487 96.0395 56.6809 96.0395 56.9231C96.0395 57.1653 95.9437 57.3975 95.773 57.5688C95.6024 57.74 95.3709 57.8362 95.1296 57.8362Z" fill="#100803"/>
<path d="M80.049 57.8362H68.6628C68.4215 57.8362 68.1901 57.74 68.0194 57.5688C67.8488 57.3975 67.7529 57.1653 67.7529 56.9231C67.7529 56.6809 67.8488 56.4487 68.0194 56.2774C68.1901 56.1062 68.4215 56.01 68.6628 56.01H80.049C80.2903 56.01 80.5218 56.1062 80.6924 56.2774C80.8631 56.4487 80.9589 56.6809 80.9589 56.9231C80.9589 57.1653 80.8631 57.3975 80.6924 57.5688C80.5218 57.74 80.2903 57.8362 80.049 57.8362Z" fill="#100803"/>
<path d="M63.7371 57.8362H30.5249C30.2836 57.8362 30.0521 57.74 29.8815 57.5688C29.7109 57.3975 29.615 57.1653 29.615 56.9231C29.615 56.6809 29.7109 56.4487 29.8815 56.2774C30.0521 56.1062 30.2836 56.01 30.5249 56.01H63.7675C64.0088 56.01 64.2402 56.1062 64.4109 56.2774C64.5815 56.4487 64.6774 56.6809 64.6774 56.9231C64.6774 57.1653 64.5815 57.3975 64.4109 57.5688C64.2402 57.74 64.0088 57.8362 63.7675 57.8362H63.7371Z" fill="#DEDEDE"/>
<path d="M41.8808 51.828H30.5249C30.2836 51.828 30.0521 51.7318 29.8815 51.5606C29.7109 51.3893 29.615 51.1571 29.615 50.9149C29.615 50.6728 29.7109 50.4405 29.8815 50.2693C30.0521 50.098 30.2836 50.0018 30.5249 50.0018H41.9111C42.1524 50.0018 42.3839 50.098 42.5545 50.2693C42.7251 50.4405 42.821 50.6728 42.821 50.9149C42.821 51.1571 42.7251 51.3893 42.5545 51.5606C42.3839 51.7318 42.1524 51.828 41.9111 51.828H41.8808Z" fill="#100803"/>
<path d="M56.9674 51.828H45.5751C45.3338 51.828 45.1024 51.7318 44.9317 51.5606C44.7611 51.3893 44.6652 51.1571 44.6652 50.9149C44.6652 50.6728 44.7611 50.4405 44.9317 50.2693C45.1024 50.098 45.3338 50.0018 45.5751 50.0018H56.9674C57.2087 50.0018 57.4402 50.098 57.6108 50.2693C57.7815 50.4405 57.8773 50.6728 57.8773 50.9149C57.8773 51.1571 57.7815 51.3893 57.6108 51.5606C57.4402 51.7318 57.2087 51.828 56.9674 51.828Z" fill="#100803"/>
<path d="M95.1295 51.828H61.887C61.6456 51.828 61.4142 51.7318 61.2436 51.5606C61.0729 51.3893 60.9771 51.1571 60.9771 50.9149C60.9771 50.6728 61.0729 50.4405 61.2436 50.2693C61.4142 50.098 61.6456 50.0018 61.887 50.0018H95.1295C95.3709 50.0018 95.6023 50.098 95.7729 50.2693C95.9436 50.4405 96.0395 50.6728 96.0395 50.9149C96.0395 51.1571 95.9436 51.3893 95.7729 51.5606C95.6023 51.7318 95.3709 51.828 95.1295 51.828Z" fill="#DEDEDE"/>
<path d="M95.1296 87.8648H83.7434C83.5021 87.8648 83.2707 87.7686 83.1 87.5973C82.9294 87.4261 82.8335 87.1938 82.8335 86.9517C82.8335 86.7095 82.9294 86.4772 83.1 86.306C83.2707 86.1348 83.5021 86.0386 83.7434 86.0386H95.1296C95.3709 86.0386 95.6024 86.1348 95.773 86.306C95.9437 86.4772 96.0395 86.7095 96.0395 86.9517C96.0395 87.1938 95.9437 87.4261 95.773 87.5973C95.6024 87.7686 95.3709 87.8648 95.1296 87.8648Z" fill="#100803"/>
<path d="M80.049 87.8648H68.6628C68.4215 87.8648 68.1901 87.7686 68.0194 87.5973C67.8488 87.4261 67.7529 87.1938 67.7529 86.9517C67.7529 86.7095 67.8488 86.4772 68.0194 86.306C68.1901 86.1348 68.4215 86.0386 68.6628 86.0386H80.049C80.2903 86.0386 80.5218 86.1348 80.6924 86.306C80.8631 86.4772 80.9589 86.7095 80.9589 86.9517C80.9589 87.1938 80.8631 87.4261 80.6924 87.5973C80.5218 87.7686 80.2903 87.8648 80.049 87.8648Z" fill="#100803"/>
<path d="M95.1296 99.8811H83.7434C83.5021 99.8811 83.2707 99.7849 83.1 99.6137C82.9294 99.4424 82.8335 99.2102 82.8335 98.968C82.8335 98.7259 82.9294 98.4936 83.1 98.3224C83.2707 98.1511 83.5021 98.0549 83.7434 98.0549H95.1296C95.3709 98.0549 95.6024 98.1511 95.773 98.3224C95.9437 98.4936 96.0395 98.7259 96.0395 98.968C96.0395 99.2102 95.9437 99.4424 95.773 99.6137C95.6024 99.7849 95.3709 99.8811 95.1296 99.8811Z" fill="#100803"/>
<path d="M80.049 99.8811H68.6628C68.4215 99.8811 68.1901 99.7849 68.0194 99.6137C67.8488 99.4424 67.7529 99.2102 67.7529 98.968C67.7529 98.7259 67.8488 98.4936 68.0194 98.3224C68.1901 98.1511 68.4215 98.0549 68.6628 98.0549H80.049C80.2903 98.0549 80.5218 98.1511 80.6924 98.3224C80.8631 98.4936 80.9589 98.7259 80.9589 98.968C80.9589 99.2102 80.8631 99.4424 80.6924 99.6137C80.5218 99.7849 80.2903 99.8811 80.049 99.8811Z" fill="#100803"/>
<path d="M63.7371 99.8811H30.5249C30.2836 99.8811 30.0521 99.7849 29.8815 99.6137C29.7109 99.4424 29.615 99.2102 29.615 98.968C29.615 98.7259 29.7109 98.4936 29.8815 98.3224C30.0521 98.1511 30.2836 98.0549 30.5249 98.0549H63.7675C64.0088 98.0549 64.2402 98.1511 64.4109 98.3224C64.5815 98.4936 64.6774 98.7259 64.6774 98.968C64.6774 99.2102 64.5815 99.4424 64.4109 99.6137C64.2402 99.7849 64.0088 99.8811 63.7675 99.8811H63.7371Z" fill="#DEDEDE"/>
<path d="M95.1295 93.8729H61.887C61.6456 93.8729 61.4142 93.7767 61.2436 93.6055C61.0729 93.4343 60.9771 93.202 60.9771 92.9598C60.9771 92.7177 61.0729 92.4854 61.2436 92.3142C61.4142 92.143 61.6456 92.0468 61.887 92.0468H95.1295C95.3709 92.0468 95.6023 92.143 95.7729 92.3142C95.9436 92.4854 96.0395 92.7177 96.0395 92.9598C96.0395 93.202 95.9436 93.4343 95.7729 93.6055C95.6023 93.7767 95.3709 93.8729 95.1295 93.8729Z" fill="#DEDEDE"/>
<path d="M41.8808 106.948H30.5249C30.2836 106.948 30.0521 106.852 29.8815 106.681C29.7109 106.51 29.615 106.277 29.615 106.035C29.615 105.793 29.7109 105.561 29.8815 105.39C30.0521 105.218 30.2836 105.122 30.5249 105.122H41.9111C42.1524 105.122 42.3839 105.218 42.5545 105.39C42.7251 105.561 42.821 105.793 42.821 106.035C42.821 106.277 42.7251 106.51 42.5545 106.681C42.3839 106.852 42.1524 106.948 41.9111 106.948H41.8808Z" fill="#100803"/>
<path d="M56.9674 106.948H45.5751C45.3338 106.948 45.1024 106.852 44.9317 106.681C44.7611 106.51 44.6652 106.277 44.6652 106.035C44.6652 105.793 44.7611 105.561 44.9317 105.39C45.1024 105.218 45.3338 105.122 45.5751 105.122H56.9674C57.2087 105.122 57.4402 105.218 57.6108 105.39C57.7815 105.561 57.8773 105.793 57.8773 106.035C57.8773 106.277 57.7815 106.51 57.6108 106.681C57.4402 106.852 57.2087 106.948 56.9674 106.948Z" fill="#100803"/>
<path d="M95.1295 106.948H61.887C61.6456 106.948 61.4142 106.852 61.2436 106.681C61.0729 106.51 60.9771 106.277 60.9771 106.035C60.9771 105.793 61.0729 105.561 61.2436 105.39C61.4142 105.218 61.6456 105.122 61.887 105.122H95.1295C95.3709 105.122 95.6023 105.218 95.7729 105.39C95.9436 105.561 96.0395 105.793 96.0395 106.035C96.0395 106.277 95.9436 106.51 95.7729 106.681C95.6023 106.852 95.3709 106.948 95.1295 106.948Z" fill="#DEDEDE"/>
<path d="M41.8808 118.959H30.5249C30.2836 118.959 30.0521 118.862 29.8815 118.691C29.7109 118.52 29.615 118.288 29.615 118.046C29.615 117.803 29.7109 117.571 29.8815 117.4C30.0521 117.229 30.2836 117.132 30.5249 117.132H41.9111C42.1524 117.132 42.3839 117.229 42.5545 117.4C42.7251 117.571 42.821 117.803 42.821 118.046C42.821 118.288 42.7251 118.52 42.5545 118.691C42.3839 118.862 42.1524 118.959 41.9111 118.959H41.8808Z" fill="#100803"/>
<path d="M56.9674 118.959H45.5751C45.3338 118.959 45.1024 118.862 44.9317 118.691C44.7611 118.52 44.6652 118.288 44.6652 118.046C44.6652 117.803 44.7611 117.571 44.9317 117.4C45.1024 117.229 45.3338 117.132 45.5751 117.132H56.9674C57.2087 117.132 57.4402 117.229 57.6108 117.4C57.7815 117.571 57.8773 117.803 57.8773 118.046C57.8773 118.288 57.7815 118.52 57.6108 118.691C57.4402 118.862 57.2087 118.959 56.9674 118.959Z" fill="#100803"/>
<path d="M95.1295 118.959H61.887C61.6456 118.959 61.4142 118.862 61.2436 118.691C61.0729 118.52 60.9771 118.288 60.9771 118.046C60.9771 117.803 61.0729 117.571 61.2436 117.4C61.4142 117.229 61.6456 117.132 61.887 117.132H95.1295C95.3709 117.132 95.6023 117.229 95.7729 117.4C95.9436 117.571 96.0395 117.803 96.0395 118.046C96.0395 118.288 95.9436 118.52 95.7729 118.691C95.6023 118.862 95.3709 118.959 95.1295 118.959Z" fill="#DEDEDE"/>
<path d="M95.1296 112.95H83.7434C83.5021 112.95 83.2707 112.854 83.1 112.683C82.9294 112.512 82.8335 112.28 82.8335 112.037C82.8335 111.795 82.9294 111.563 83.1 111.392C83.2707 111.22 83.5021 111.124 83.7434 111.124H95.1296C95.3709 111.124 95.6024 111.22 95.773 111.392C95.9437 111.563 96.0395 111.795 96.0395 112.037C96.0395 112.28 95.9437 112.512 95.773 112.683C95.6024 112.854 95.3709 112.95 95.1296 112.95Z" fill="#100803"/>
<path d="M80.049 112.95H68.6628C68.4215 112.95 68.1901 112.854 68.0194 112.683C67.8488 112.512 67.7529 112.28 67.7529 112.037C67.7529 111.795 67.8488 111.563 68.0194 111.392C68.1901 111.22 68.4215 111.124 68.6628 111.124H80.049C80.2903 111.124 80.5218 111.22 80.6924 111.392C80.8631 111.563 80.9589 111.795 80.9589 112.037C80.9589 112.28 80.8631 112.512 80.6924 112.683C80.5218 112.854 80.2903 112.95 80.049 112.95Z" fill="#100803"/>
<path d="M63.7371 112.95H30.5249C30.2836 112.95 30.0521 112.854 29.8815 112.683C29.7109 112.512 29.615 112.28 29.615 112.037C29.615 111.795 29.7109 111.563 29.8815 111.392C30.0521 111.22 30.2836 111.124 30.5249 111.124H63.7675C64.0088 111.124 64.2402 111.22 64.4109 111.392C64.5815 111.563 64.6774 111.795 64.6774 112.037C64.6774 112.28 64.5815 112.512 64.4109 112.683C64.2402 112.854 64.0088 112.95 63.7675 112.95H63.7371Z" fill="#DEDEDE"/>
<path d="M15.493 35.6298H11.8593V39.7509H15.493V35.6298Z" fill="#100803"/>
<path d="M15.493 42.4048H11.8593V46.5259H15.493V42.4048Z" fill="#100803"/>
<path d="M15.493 49.174H11.8593V53.295H15.493V49.174Z" fill="#100803"/>
<path d="M15.493 55.9491H11.8593V60.0702H15.493V55.9491Z" fill="#100803"/>
<path d="M15.493 62.7242H11.8593V66.8453H15.493V62.7242Z" fill="#100803"/>
<path d="M15.493 69.4933H11.8593V73.6144H15.493V69.4933Z" fill="#100803"/>
<path d="M15.493 76.2684H11.8593V80.3895H15.493V76.2684Z" fill="#100803"/>
<path d="M15.493 83.0376H11.8593V87.1587H15.493V83.0376Z" fill="#100803"/>
<path d="M15.493 89.8126H11.8593V93.9337H15.493V89.8126Z" fill="#100803"/>
<path d="M15.493 96.5817H11.8593V100.703H15.493V96.5817Z" fill="#100803"/>
<path d="M15.493 103.357H11.8593V107.478H15.493V103.357Z" fill="#100803"/>
<path d="M15.493 110.126H11.8593V114.247H15.493V110.126Z" fill="#100803"/>
<path d="M15.493 116.901H11.8593V121.022H15.493V116.901Z" fill="#100803"/>
<path d="M15.493 123.676H11.8593V127.797H15.493V123.676Z" fill="#100803"/>
<path d="M15.493 130.445H11.8593V134.566H15.493V130.445Z" fill="#100803"/>
<path d="M15.493 137.22H11.8593V141.342H15.493V137.22Z" fill="#100803"/>
<path d="M12.3044 24.5709L17.6191 21.8195V22.6161L13.1424 24.8733L17.6191 27.1232V27.9198L12.3044 25.1684V24.5709Z" fill="white" stroke="#100803" stroke-miterlimit="10"/>
<path d="M20.8021 28.4068L24.0145 20.0713H24.7496L21.5446 28.4068H20.8021Z" fill="white" stroke="#100803" stroke-miterlimit="10"/>
<path d="M33.2545 25.2126L27.9398 27.9493V27.1526L32.4533 24.9028L27.9398 22.6455V21.8489L33.2545 24.5856V25.2126Z" fill="white" stroke="#100803" stroke-miterlimit="10"/>
<path d="M33.9517 93.486L30.321 90.993V89.6717L33.9517 87.1537V88.4875L31.3474 90.3448L33.9517 92.1813V93.486Z" fill="#100803"/>
<path d="M35.487 93.9307V83.9377H37.7235C38.3454 83.9101 38.9651 84.0254 39.5325 84.2743C39.9665 84.4905 40.3053 84.8522 40.4861 85.2923C40.6897 85.8335 40.7855 86.4074 40.7684 86.9834V90.6606C40.7849 91.2678 40.6893 91.8729 40.4861 92.4473C40.3207 92.9056 39.9994 93.2955 39.5752 93.5526C39.0502 93.8252 38.4594 93.9558 37.8647 93.9307H35.487ZM36.9238 92.9293H37.7364C38.133 92.9661 38.5298 92.8612 38.8525 92.6343C39.09 92.4031 39.2328 92.096 39.2545 91.77C39.3049 91.3147 39.3277 90.8568 39.3229 90.3989V87.1538C39.3307 86.736 39.2963 86.3185 39.2203 85.9072C39.2013 85.7677 39.1537 85.6332 39.0802 85.5119C39.0068 85.3906 38.909 85.2848 38.7927 85.2009C38.4617 85.031 38.0883 84.9547 37.715 84.9807H36.9238V92.9293Z" fill="#100803"/>
<path d="M42.2566 93.9307V83.9377H43.6678V93.9307H42.2566Z" fill="#100803"/>
<path d="M47.1189 93.9307L44.8224 83.9377H46.1653L47.7903 91.3005L49.3426 83.9377H50.6512L48.3762 93.9307H47.1189Z" fill="#100803"/>
<path d="M51.6775 93.486V92.1647L54.2947 90.3157L51.6775 88.4875V87.1537L55.321 89.6467V90.968L51.6775 93.486Z" fill="#100803"/>
<defs>
<linearGradient id="paint0_linear_3568_35525" x1="112.418" y1="14.0653" x2="109.793" y2="-10.3445" gradientUnits="userSpaceOnUse">
<stop stop-color="#FFB806"/>
<stop offset="1" stop-color="#FFB800"/>
</linearGradient>
</defs>
</svg>
