<svg width="31" height="8" viewBox="0 0 31 8" fill="none" xmlns="http://www.w3.org/2000/svg">
<path d="M30.4886 3.89185C30.4839 3.76739 30.4346 3.62353 30.3525 3.5328L27.6709 0.573413C27.4892 0.403813 27.1408 0.3338 26.9377 0.529894C26.7376 0.723029 26.7436 1.0976 26.9429 1.2915L28.8283 3.36962L0.991426 3.36962C0.713752 3.36962 0.488637 3.60343 0.488637 3.89185C0.488637 4.18027 0.713752 4.41409 0.991426 4.41409L28.8283 4.41409L26.9429 6.49221C26.7713 6.67072 26.7396 7.05847 26.9377 7.25381C27.1357 7.44914 27.4967 7.38674 27.6709 7.21028L30.3525 4.2509C30.4442 4.14962 30.4889 4.0308 30.4886 3.89185Z" fill="url(#paint0_linear)"/>
<defs>
<linearGradient id="paint0_linear" x1="27.3923" y1="2.4925" x2="25.3455" y2="12.3927" gradientUnits="userSpaceOnUse">
<stop stop-color="#FFB806"/>
<stop offset="1" stop-color="#FFB800"/>
</linearGradient>
</defs>
</svg>
