<svg width="20" height="13" viewBox="0 0 20 13" fill="none" xmlns="http://www.w3.org/2000/svg">
<path d="M11.0059 8.46289C11.0059 7.61979 11.0742 6.85645 11.2109 6.17285C11.3704 5.48926 11.5983 4.85124 11.8945 4.25879C12.2135 3.66634 12.6009 3.08529 13.0566 2.51562C13.5124 1.94596 14.0365 1.36491 14.6289 0.772461L17.1582 1.96875C16.9759 2.15104 16.805 2.36751 16.6455 2.61816C16.5088 2.82324 16.3607 3.08529 16.2012 3.4043C16.0417 3.72331 15.8936 4.0765 15.7568 4.46387C16.7139 4.64616 17.5114 5.11328 18.1494 5.86523C18.7874 6.61719 19.1064 7.48307 19.1064 8.46289C19.1064 9.03255 18.9925 9.56803 18.7646 10.0693C18.5596 10.5479 18.2747 10.9694 17.9102 11.334C17.5456 11.6986 17.1126 11.9948 16.6113 12.2227C16.1328 12.4277 15.6087 12.5303 15.0391 12.5303C14.4922 12.5303 13.9681 12.4277 13.4668 12.2227C12.9883 11.9948 12.5667 11.6986 12.2021 11.334C11.8376 10.9694 11.5413 10.5479 11.3135 10.0693C11.1084 9.56803 11.0059 9.03255 11.0059 8.46289ZM0.991211 8.12109C1.014 7.34635 1.10514 6.63997 1.26465 6.00195C1.42415 5.34115 1.65202 4.72591 1.94824 4.15625C2.26725 3.5638 2.64323 3.00553 3.07617 2.48145C3.5319 1.93457 4.0446 1.36491 4.61426 0.772461L7.14355 1.96875C6.96126 2.15104 6.79036 2.36751 6.63086 2.61816C6.49414 2.82324 6.34603 3.08529 6.18652 3.4043C6.02702 3.72331 5.87891 4.0765 5.74219 4.46387C6.69922 4.64616 7.49674 5.11328 8.13477 5.86523C8.77279 6.61719 9.0918 7.48307 9.0918 8.46289C9.0918 9.03255 8.97786 9.56803 8.75 10.0693C8.54492 10.5479 8.26009 10.9694 7.89551 11.334C7.53092 11.6986 7.09798 11.9948 6.59668 12.2227C6.11816 12.4277 5.59408 12.5303 5.02441 12.5303C4.47754 12.5303 3.95345 12.4277 3.45215 12.2227C2.97363 11.9948 2.55208 11.6872 2.1875 11.2998C1.82292 10.9124 1.52669 10.4567 1.29883 9.93262C1.09375 9.38574 0.991211 8.7819 0.991211 8.12109Z" fill="#06234A"/>
</svg>
