<?xml version="1.0" standalone="no"?>
<!DOCTYPE svg PUBLIC "-//W3C//DTD SVG 20010904//EN"
 "http://www.w3.org/TR/2001/REC-SVG-20010904/DTD/svg10.dtd">
<svg version="1.0" xmlns="http://www.w3.org/2000/svg"
 width="156.000000pt" height="148.000000pt" viewBox="0 0 156.000000 148.000000"
 preserveAspectRatio="xMidYMid meet">

<g transform="translate(0.000000,148.000000) scale(0.100000,-0.100000)"
fill="#000000" stroke="none">
<path d="M307 1400 c-46 -14 -93 -56 -116 -103 -20 -42 -21 -57 -21 -433 0
-357 2 -392 19 -429 43 -94 95 -115 286 -115 80 0 145 -3 145 -6 0 -19 63
-241 71 -249 6 -6 58 39 142 123 l132 132 135 0 c146 0 192 12 237 61 52 56
53 70 53 487 0 388 0 389 -23 433 -13 24 -43 58 -66 74 l-43 30 -461 2 c-254
1 -475 -2 -490 -7z m300 -261 c-71 -81 -141 -229 -116 -244 5 -3 27 -1 49 6
77 23 164 -24 195 -106 43 -111 -38 -225 -160 -225 -59 0 -98 21 -134 71 -113
155 -28 449 154 535 27 13 51 21 53 19 3 -2 -16 -28 -41 -56z m441 23 c-76
-84 -138 -198 -138 -253 0 -16 4 -19 18 -14 151 62 299 -96 220 -237 -42 -75
-147 -110 -216 -74 -192 101 -139 485 83 595 61 31 71 25 33 -17z"/>
</g>
</svg>
