<svg width="35" height="24" viewBox="0 0 35 24" fill="none" xmlns="http://www.w3.org/2000/svg">
<path d="M35 0H0V24H35V0Z" fill="#FF0000"/>
<path d="M30 0H6V24H30V0Z" fill="white"/>
<path d="M18 2.25586L16.368 5.31186C16.176 5.64786 15.856 5.61586 15.52 5.42386L14.32 4.79986L15.2 9.48786C15.392 10.3519 14.784 10.3519 14.496 9.96786L12.432 7.64786L12.096 8.83186C12.064 8.99186 11.888 9.15186 11.632 9.10386L9.00799 8.55986L9.69599 11.0559C9.83999 11.6159 9.95199 11.8399 9.55199 11.9839L8.62399 12.4159L13.12 16.0799C13.296 16.2239 13.392 16.4639 13.328 16.6879L12.928 17.9839C14.48 17.8079 15.872 17.5359 17.424 17.3759C17.568 17.3599 17.792 17.5839 17.792 17.7439L17.584 22.4799H18.336L18.224 17.7439C18.224 17.5839 18.432 17.3439 18.576 17.3599C20.128 17.5199 21.52 17.7919 23.072 17.9679L22.672 16.6719C22.608 16.4479 22.704 16.1919 22.88 16.0639L27.376 12.3999L26.448 11.9679C26.032 11.8239 26.16 11.5839 26.304 11.0399L26.992 8.54386L24.368 9.11986C24.112 9.15186 23.936 8.99186 23.904 8.84786L23.568 7.66386L21.504 9.98386C21.216 10.3519 20.608 10.3519 20.8 9.50386L21.68 4.79986L20.496 5.40786C20.16 5.59986 19.824 5.63186 19.648 5.29586" fill="#FF0000"/>
</svg>
