<svg width="20" height="20" viewBox="0 0 20 20" fill="none" xmlns="http://www.w3.org/2000/svg">
<path d="M11.6663 12.083H8.333C6.67594 12.0848 5.08726 12.7438 3.91554 13.9155C2.74382 15.0873 2.08477 16.676 2.08301 18.333C2.08301 18.4435 2.12691 18.5495 2.20505 18.6277C2.28319 18.7058 2.38917 18.7497 2.49967 18.7497H17.4997C17.6102 18.7497 17.7161 18.7058 17.7943 18.6277C17.8724 18.5495 17.9163 18.4435 17.9163 18.333C17.9146 16.676 17.2555 15.0873 16.0838 13.9155C14.9121 12.7438 13.3234 12.0848 11.6663 12.083Z" fill="url(#paint0_linear_3927_81)"/>
<path d="M9.99936 10.4167C12.5307 10.4167 14.5827 8.36465 14.5827 5.83334C14.5827 3.30203 12.5307 1.25 9.99936 1.25C7.46805 1.25 5.41602 3.30203 5.41602 5.83334C5.41602 8.36465 7.46805 10.4167 9.99936 10.4167Z" fill="url(#paint1_linear_3927_81)"/>
<defs>
<linearGradient id="paint0_linear_3927_81" x1="13.1838" y1="18.0616" x2="8.89643" y2="8.99173" gradientUnits="userSpaceOnUse">
<stop stop-color="#FFB806"/>
<stop offset="1" stop-color="#FFB800"/>
</linearGradient>
<linearGradient id="paint1_linear_3927_81" x1="11.8428" y1="9.47056" x2="4.26474" y2="2.72053" gradientUnits="userSpaceOnUse">
<stop stop-color="#FFB806"/>
<stop offset="1" stop-color="#FFB800"/>
</linearGradient>
</defs>
</svg>
