<svg width="234" height="28" viewBox="0 0 234 28" fill="none" xmlns="http://www.w3.org/2000/svg">
<path d="M39.1729 7.67427H44.4607C45.7509 7.67427 46.8972 7.92772 47.8995 8.43461C48.9018 8.92998 49.6794 9.63848 50.2323 10.5601C50.7853 11.4702 51.0618 12.5243 51.0618 13.7224C51.0618 14.9205 50.7853 15.9804 50.2323 16.902C49.6794 17.8121 48.9018 18.5206 47.8995 19.0275C46.8972 19.5229 45.7509 19.7706 44.4607 19.7706H39.1729V7.67427ZM44.357 17.8697C45.2441 17.8697 46.0217 17.7027 46.6899 17.3686C47.3696 17.023 47.888 16.5391 48.2451 15.9171C48.6137 15.2834 48.7981 14.5519 48.7981 13.7224C48.7981 12.893 48.6137 12.1672 48.2451 11.5451C47.888 10.9115 47.3696 10.4276 46.6899 10.0935C46.0217 9.74793 45.2441 9.57512 44.357 9.57512H41.4193V17.8697H44.357Z" fill="#ffffff"/>
<path d="M59.1002 19.9434C57.8675 19.9434 56.7558 19.6784 55.7651 19.1485C54.7743 18.607 53.9967 17.864 53.4322 16.9193C52.8677 15.9631 52.5855 14.8975 52.5855 13.7224C52.5855 12.5474 52.8677 11.4875 53.4322 10.5428C53.9967 9.58664 54.7743 8.84358 55.7651 8.31365C56.7558 7.77219 57.8675 7.50146 59.1002 7.50146C60.3329 7.50146 61.4446 7.77219 62.4353 8.31365C63.4261 8.84358 64.2037 9.58088 64.7682 10.5255C65.3327 11.4702 65.6149 12.5358 65.6149 13.7224C65.6149 14.909 65.3327 15.9747 64.7682 16.9193C64.2037 17.864 63.4261 18.607 62.4353 19.1485C61.4446 19.6784 60.3329 19.9434 59.1002 19.9434ZM59.1002 17.9734C59.9066 17.9734 60.6324 17.7949 61.2775 17.4377C61.9227 17.0691 62.4296 16.5622 62.7982 15.9171C63.1669 15.2604 63.3512 14.5289 63.3512 13.7224C63.3512 12.916 63.1669 12.1902 62.7982 11.5451C62.4296 10.8884 61.9227 10.3815 61.2775 10.0244C60.6324 9.65576 59.9066 9.47144 59.1002 9.47144C58.2938 9.47144 57.568 9.65576 56.9229 10.0244C56.2777 10.3815 55.7708 10.8884 55.4022 11.5451C55.0335 12.1902 54.8492 12.916 54.8492 13.7224C54.8492 14.5289 55.0335 15.2604 55.4022 15.9171C55.7708 16.5622 56.2777 17.0691 56.9229 17.4377C57.568 17.7949 58.2938 17.9734 59.1002 17.9734Z" fill="#ffffff"/>
<path d="M83.8832 19.7706L83.8659 11.7525L79.8914 18.3882H78.8892L74.9147 11.8561V19.7706H72.7719V7.67427H74.6209L79.4249 15.6924L84.1424 7.67427H85.9914L86.0087 19.7706H83.8832Z" fill="#ffffff"/>
<path d="M94.4948 15.5023V19.7706H92.2483V15.5369L87.4962 7.67427H89.8982L93.4407 13.5669L97.0177 7.67427H99.2296L94.4948 15.5023Z" fill="#ffffff"/>
<path d="M113.322 16.9712H107.274L106.081 19.7706H103.766L109.209 7.67427H111.421L116.882 19.7706H114.531L113.322 16.9712ZM112.579 15.2086L110.298 9.92073L108.034 15.2086H112.579Z" fill="#ffffff"/>
<path d="M122.17 19.9434C121.237 19.9434 120.332 19.8109 119.457 19.5459C118.593 19.281 117.907 18.9296 117.4 18.4918L118.178 16.7465C118.673 17.1382 119.278 17.4608 119.993 17.7142C120.718 17.9561 121.444 18.0771 122.17 18.0771C123.068 18.0771 123.737 17.9331 124.174 17.6451C124.624 17.3571 124.848 16.9769 124.848 16.5046C124.848 16.159 124.722 15.8767 124.468 15.6578C124.226 15.4274 123.915 15.2489 123.535 15.1221C123.155 14.9954 122.636 14.8514 121.98 14.6901C121.058 14.4713 120.309 14.2524 119.733 14.0335C119.169 13.8146 118.679 13.4747 118.264 13.0139C117.861 12.5416 117.66 11.908 117.66 11.1131C117.66 10.4449 117.838 9.84009 118.195 9.29863C118.564 8.74566 119.111 8.30789 119.837 7.98532C120.574 7.66275 121.473 7.50146 122.533 7.50146C123.27 7.50146 123.996 7.59363 124.71 7.77795C125.424 7.96228 126.041 8.22724 126.559 8.57285L125.851 10.3182C125.321 10.0071 124.768 9.77097 124.192 9.60968C123.616 9.4484 123.057 9.36775 122.515 9.36775C121.628 9.36775 120.966 9.51752 120.528 9.81705C120.102 10.1166 119.889 10.514 119.889 11.0094C119.889 11.355 120.01 11.6373 120.252 11.8561C120.505 12.075 120.822 12.2478 121.202 12.3746C121.582 12.5013 122.101 12.6453 122.757 12.8066C123.656 13.0139 124.393 13.2328 124.969 13.4632C125.545 13.6821 126.035 14.022 126.438 14.4828C126.853 14.9436 127.06 15.5657 127.06 16.3491C127.06 17.0172 126.876 17.6221 126.507 18.1635C126.15 18.705 125.603 19.137 124.866 19.4595C124.128 19.7821 123.23 19.9434 122.17 19.9434Z" fill="#ffffff"/>
<path d="M133.038 19.9434C132.104 19.9434 131.2 19.8109 130.325 19.5459C129.461 19.281 128.775 18.9296 128.268 18.4918L129.046 16.7465C129.541 17.1382 130.146 17.4608 130.86 17.7142C131.586 17.9561 132.312 18.0771 133.038 18.0771C133.936 18.0771 134.604 17.9331 135.042 17.6451C135.491 17.3571 135.716 16.9769 135.716 16.5046C135.716 16.159 135.589 15.8767 135.336 15.6578C135.094 15.4274 134.783 15.2489 134.403 15.1221C134.023 14.9954 133.504 14.8514 132.848 14.6901C131.926 14.4713 131.177 14.2524 130.601 14.0335C130.037 13.8146 129.547 13.4747 129.132 13.0139C128.729 12.5416 128.527 11.908 128.527 11.1131C128.527 10.4449 128.706 9.84009 129.063 9.29863C129.432 8.74566 129.979 8.30789 130.705 7.98532C131.442 7.66275 132.341 7.50146 133.401 7.50146C134.138 7.50146 134.864 7.59363 135.578 7.77795C136.292 7.96228 136.908 8.22724 137.427 8.57285L136.718 10.3182C136.188 10.0071 135.635 9.77097 135.059 9.60968C134.483 9.4484 133.925 9.36775 133.383 9.36775C132.496 9.36775 131.834 9.51752 131.396 9.81705C130.97 10.1166 130.757 10.514 130.757 11.0094C130.757 11.355 130.878 11.6373 131.119 11.8561C131.373 12.075 131.69 12.2478 132.07 12.3746C132.45 12.5013 132.969 12.6453 133.625 12.8066C134.524 13.0139 135.261 13.2328 135.837 13.4632C136.413 13.6821 136.903 14.022 137.306 14.4828C137.721 14.9436 137.928 15.5657 137.928 16.3491C137.928 17.0172 137.744 17.6221 137.375 18.1635C137.018 18.705 136.471 19.137 135.733 19.4595C134.996 19.7821 134.097 19.9434 133.038 19.9434Z" fill="#ffffff"/>
<path d="M140.156 7.67427H142.402V19.7706H140.156V7.67427Z" fill="#ffffff"/>
<path d="M153.934 13.5842H156.059V18.4054C155.437 18.9008 154.712 19.281 153.882 19.5459C153.053 19.8109 152.2 19.9434 151.325 19.9434C150.092 19.9434 148.98 19.6784 147.989 19.1485C146.999 18.607 146.221 17.864 145.657 16.9193C145.092 15.9747 144.81 14.909 144.81 13.7224C144.81 12.5358 145.092 11.4702 145.657 10.5255C146.221 9.58088 146.999 8.84358 147.989 8.31365C148.992 7.77219 150.115 7.50146 151.359 7.50146C152.373 7.50146 153.295 7.66851 154.124 8.0026C154.953 8.33669 155.65 8.8263 156.215 9.47144L154.798 10.8539C153.876 9.93225 152.765 9.47144 151.463 9.47144C150.61 9.47144 149.85 9.65 149.182 10.0071C148.525 10.3643 148.007 10.8654 147.627 11.5105C147.258 12.1557 147.074 12.893 147.074 13.7224C147.074 14.5289 147.258 15.2546 147.627 15.8998C148.007 16.5449 148.525 17.0518 149.182 17.4205C149.85 17.7891 150.605 17.9734 151.446 17.9734C152.39 17.9734 153.22 17.7661 153.934 17.3513V13.5842Z" fill="#ffffff"/>
<path d="M169.771 7.67427V19.7706H167.922L161.251 11.5797V19.7706H159.022V7.67427H160.871L167.542 15.8652V7.67427H169.771Z" fill="#ffffff"/>
<path d="M184.123 19.7706L184.106 11.7525L180.132 18.3882H179.129L175.155 11.8561V19.7706H173.012V7.67427H174.861L179.665 15.6924L184.383 7.67427H186.232L186.249 19.7706H184.123Z" fill="#ffffff"/>
<path d="M198.589 17.887V19.7706H189.516V7.67427H198.347V9.55784H191.763V12.7029H197.604V14.5519H191.763V17.887H198.589Z" fill="#ffffff"/>
<path d="M211.841 7.67427V19.7706H209.992L203.322 11.5797V19.7706H201.093V7.67427H202.942L209.612 15.8652V7.67427H211.841Z" fill="#ffffff"/>
<path d="M217.536 9.57512H213.527V7.67427H223.792V9.57512H219.783V19.7706H217.536V9.57512Z" fill="#ffffff"/>
<path d="M229.11 19.9434C228.176 19.9434 227.272 19.8109 226.397 19.5459C225.533 19.281 224.847 18.9296 224.34 18.4918L225.118 16.7465C225.613 17.1382 226.218 17.4608 226.932 17.7142C227.658 17.9561 228.384 18.0771 229.11 18.0771C230.008 18.0771 230.676 17.9331 231.114 17.6451C231.563 17.3571 231.788 16.9769 231.788 16.5046C231.788 16.159 231.661 15.8767 231.408 15.6578C231.166 15.4274 230.855 15.2489 230.475 15.1221C230.095 14.9954 229.576 14.8514 228.919 14.6901C227.998 14.4713 227.249 14.2524 226.673 14.0335C226.109 13.8146 225.619 13.4747 225.204 13.0139C224.801 12.5416 224.599 11.908 224.599 11.1131C224.599 10.4449 224.778 9.84009 225.135 9.29863C225.504 8.74566 226.051 8.30789 226.777 7.98532C227.514 7.66275 228.413 7.50146 229.472 7.50146C230.21 7.50146 230.936 7.59363 231.65 7.77795C232.364 7.96228 232.98 8.22724 233.499 8.57285L232.79 10.3182C232.26 10.0071 231.707 9.77097 231.131 9.60968C230.555 9.4484 229.997 9.36775 229.455 9.36775C228.568 9.36775 227.906 9.51752 227.468 9.81705C227.042 10.1166 226.829 10.514 226.829 11.0094C226.829 11.355 226.95 11.6373 227.191 11.8561C227.445 12.075 227.762 12.2478 228.142 12.3746C228.522 12.5013 229.04 12.6453 229.697 12.8066C230.596 13.0139 231.333 13.2328 231.909 13.4632C232.485 13.6821 232.975 14.022 233.378 14.4828C233.793 14.9436 234 15.5657 234 16.3491C234 17.0172 233.816 17.6221 233.447 18.1635C233.09 18.705 232.543 19.137 231.805 19.4595C231.068 19.7821 230.169 19.9434 229.11 19.9434Z" fill="#ffffff"/>
<path fill-rule="evenodd" clip-rule="evenodd" d="M18.8439 2.80594L20.8302 0L29.1712 5.90441L29.0511 14.5941L25.6136 14.5466L25.7087 7.66538L18.8439 2.80594ZM7.60094 6.96986L16.581 22.5238L20.3643 23.3469L21.5431 19.659L12.563 4.10501L7.60094 6.96986ZM25.2807 19.2571L14.9673 1.39369C14.3344 0.297507 12.9327 -0.0780747 11.8365 0.554809L4.88963 4.56559C3.79344 5.19848 3.41786 6.60017 4.05074 7.69636L14.3642 25.5598L22.6873 27.3705L25.2807 19.2571ZM0 12.0265L3.42315 11.7093L4.19916 20.0841L10.206 23.4424L8.52842 26.4431L0.942885 22.2022L0 12.0265Z" fill="#FFB806"/>
</svg>
