<svg width="43" height="48" viewBox="0 0 43 48" fill="none" xmlns="http://www.w3.org/2000/svg">
<path opacity="0.4" d="M28.7862 6.68638L1.71991 8.45142L4.24672 47.1991L31.313 45.4341L28.7862 6.68638Z" fill="#F8B208"/>
<path d="M28.7862 6.68638L1.71991 8.45142L4.24672 47.1991L31.313 45.4341L28.7862 6.68638Z" stroke="#100803" stroke-width="0.7" stroke-linecap="round" stroke-linejoin="round"/>
<path d="M27.5425 1.27173L1.34555 8.30151L11.4093 45.8047L37.6062 38.775L27.5425 1.27173Z" fill="white" stroke="#100803" stroke-width="0.7" stroke-linecap="round" stroke-linejoin="round"/>
<path d="M3.29251 7.58409C3.46037 7.09134 3.77032 6.65931 4.18332 6.34242C4.59632 6.02554 5.09388 5.838 5.61329 5.80343V5.80343C6.30737 5.75817 6.991 5.99048 7.51379 6.44926C8.03659 6.90805 8.35572 7.55572 8.40099 8.24981L8.75703 13.7096C8.78721 14.1724 8.63281 14.6282 8.32764 14.9774C8.02247 15.3266 7.59139 15.5406 7.12877 15.5726C6.6648 15.6029 6.20781 15.4476 5.85834 15.1409C5.50887 14.8342 5.29554 14.4013 5.26528 13.9373L4.92718 8.75262C4.91303 8.5356 4.98568 8.32185 5.12913 8.15838C5.27258 7.99492 5.47507 7.89514 5.69209 7.88099V7.88099C5.79954 7.87398 5.90733 7.88821 6.00928 7.92286C6.11124 7.9575 6.20539 8.01189 6.28632 8.08292C6.36726 8.15395 6.43342 8.24022 6.48102 8.33682C6.52861 8.43341 6.55671 8.53844 6.56372 8.64589L6.74542 11.4322" stroke="#100803" stroke-width="0.7" stroke-linecap="round" stroke-linejoin="round"/>
<path d="M12.7464 33.4969L23.1621 30.7066" stroke="#100803" stroke-width="0.7" stroke-linecap="round" stroke-linejoin="round"/>
<path d="M12.0703 30.8422L30.2069 25.9758" stroke="#100803" stroke-width="0.7" stroke-linecap="round" stroke-linejoin="round"/>
<path d="M11.4013 28.1869L29.5308 23.3209" stroke="#100803" stroke-width="0.7" stroke-linecap="round" stroke-linejoin="round"/>
<path d="M10.7253 25.5319L28.8547 20.6659" stroke="#100803" stroke-width="0.7" stroke-linecap="round" stroke-linejoin="round"/>
<path d="M10.0487 22.8697L28.1782 18.0038" stroke="#100803" stroke-width="0.7" stroke-linecap="round" stroke-linejoin="round"/>
<path d="M9.37269 20.215L27.5022 15.349" stroke="#100803" stroke-width="0.7" stroke-linecap="round" stroke-linejoin="round"/>
<path d="M8.69639 17.5602L26.8259 12.6942" stroke="#100803" stroke-width="0.7" stroke-linecap="round" stroke-linejoin="round"/>
<path d="M12.859 13.6048L26.1499 10.0391" stroke="#100803" stroke-width="0.7" stroke-linecap="round" stroke-linejoin="round"/>
<path d="M17.607 37.1304L16.0202 40.224L16.2941 40.5514L19.2131 39.1067L38.1065 21.7702C38.295 21.5965 38.4464 21.388 38.5518 21.1571C38.6571 20.9263 38.7144 20.6776 38.7201 20.4259C38.7258 20.1742 38.6799 19.9244 38.5851 19.6914C38.4902 19.4584 38.3484 19.2469 38.1679 19.0692C37.988 18.8935 37.7737 18.7549 37.5375 18.6616C37.3013 18.5682 37.0479 18.5219 36.7921 18.5253C36.5362 18.5287 36.2831 18.5819 36.0474 18.6816C35.8116 18.7813 35.598 18.9256 35.419 19.1062L17.607 37.1304Z" fill="#FFF7C7" stroke="#100803" stroke-width="0.7" stroke-linecap="round" stroke-linejoin="round"/>
<path d="M16.21 40.1229C16.21 40.1229 15.7183 40.469 15.8534 40.6725C15.9885 40.8759 16.6425 40.1576 16.6425 40.1576L16.21 40.1229Z" fill="url(#paint0_linear_3137_34079)" stroke="#100803" stroke-width="0.7" stroke-linecap="round" stroke-linejoin="round"/>
<path d="M16.0203 40.2238L16.2942 40.5512L19.2132 39.1065C17.3532 38.8527 17.6086 37.1369 17.6086 37.1369L16.0203 40.2238Z" fill="white" stroke="#100803" stroke-width="0.7" stroke-linecap="round" stroke-linejoin="round"/>
<path d="M38.1652 19.0571C37.9853 18.8814 37.771 18.7428 37.5348 18.6494C37.2986 18.5561 37.0452 18.5097 36.7894 18.5132C36.5335 18.5166 36.2804 18.5698 36.0447 18.6695C35.8089 18.7692 35.5953 18.9135 35.4163 19.094L31.5949 22.9844C31.5512 23.2615 31.5613 23.5436 31.6247 23.8158C31.7398 24.3644 32.073 24.8437 32.5516 25.149C33.0301 25.4543 33.615 25.5607 34.1785 25.4449L38.1119 21.7616C38.3004 21.5872 38.4517 21.3782 38.5567 21.1467C38.6617 20.9152 38.7184 20.666 38.7233 20.4138C38.7283 20.1617 38.6815 19.9117 38.5856 19.6787C38.4897 19.4456 38.3468 19.2343 38.1652 19.0571Z" fill="white" stroke="#100803" stroke-width="0.7" stroke-linecap="round" stroke-linejoin="round"/>
<path d="M38.1652 19.0568C37.9853 18.8811 37.771 18.7425 37.5348 18.6492C37.2986 18.5558 37.0452 18.5095 36.7894 18.5129C36.5336 18.5163 36.2804 18.5695 36.0447 18.6692C35.809 18.7689 35.5954 18.9132 35.4164 19.0938L32.9575 21.5859C32.8827 21.8979 32.8813 22.2217 32.9532 22.5327C33.0106 22.7983 33.121 23.0497 33.2784 23.2724C33.4358 23.4951 33.6369 23.6848 33.8703 23.8307C34.1037 23.9766 34.3647 24.0757 34.6385 24.1225C34.9123 24.1692 35.1935 24.1627 35.4659 24.1031C35.513 24.0923 35.5619 24.081 35.6073 24.0706L38.1143 21.7715C38.3043 21.5969 38.4567 21.387 38.5624 21.1545C38.6682 20.922 38.7252 20.6715 38.7299 20.4182C38.7347 20.1648 38.6871 19.9136 38.5901 19.6797C38.4931 19.4458 38.3486 19.234 38.1652 19.0568Z" fill="url(#paint1_linear_3137_34079)" stroke="#100803" stroke-width="0.7" stroke-linecap="round" stroke-linejoin="round"/>
<defs>
<linearGradient id="paint0_linear_3137_34079" x1="16.4557" y1="40.5364" x2="15.9439" y2="40.0363" gradientUnits="userSpaceOnUse">
<stop stop-color="#FFB806"/>
<stop offset="1" stop-color="#FFB800"/>
</linearGradient>
<linearGradient id="paint1_linear_3137_34079" x1="37.511" y1="23.0817" x2="32.2804" y2="19.6084" gradientUnits="userSpaceOnUse">
<stop stop-color="#FFB806"/>
<stop offset="1" stop-color="#FFB800"/>
</linearGradient>
</defs>
</svg>
