<svg width="34" height="46" viewBox="0 0 34 46" fill="none" xmlns="http://www.w3.org/2000/svg">
<path d="M12.813 24.8622L20.031 44.2277L23.717 35.9013L32.0123 39.0387L23.717 20.8572L12.813 24.8622Z" fill="white" stroke="#06234A" stroke-width="0.770461" stroke-linecap="round" stroke-linejoin="round"/>
<path d="M9.64496 20.0626L0.911011 38.7448L9.15726 35.9014L12.7692 44.2278L19.941 25.5457L9.64496 20.0626Z" fill="white" stroke="#06234A" stroke-width="0.770461" stroke-linecap="round" stroke-linejoin="round"/>
<path d="M31.9619 17.2042C31.9619 16.497 33.5094 15.6865 33.4132 15.0031C33.317 14.3197 31.6011 13.9621 31.4007 13.3025C31.2002 12.643 32.451 11.4192 32.1624 10.7915C31.8737 10.1637 30.1258 10.3067 29.757 9.71868C29.3881 9.13064 30.23 7.62081 29.757 7.09634C29.2839 6.57188 27.6643 7.19965 27.1351 6.73876C26.6059 6.27786 27.0068 4.60116 26.4134 4.21973C25.8201 3.8383 24.441 4.90312 23.7915 4.6091C23.1421 4.31508 23.0619 2.5907 22.3804 2.39204C21.6988 2.19338 20.6886 3.5999 19.9749 3.50454C19.2613 3.40918 18.7001 1.77222 17.9865 1.77222C17.2728 1.77222 16.6875 3.40918 15.998 3.50454C15.3084 3.5999 14.2661 2.20132 13.5926 2.39204C12.919 2.58276 12.7907 4.32303 12.1734 4.6091C11.556 4.89517 10.1528 3.81446 9.55947 4.21973C8.96614 4.625 9.36704 6.2858 8.83785 6.7467C8.30865 7.20759 6.67297 6.57188 6.21594 7.09634C5.75891 7.62081 6.60883 9.13064 6.21594 9.71868C5.82306 10.3067 4.09116 10.1557 3.81052 10.7915C3.52989 11.4272 4.77269 12.6271 4.57224 13.3025C4.37179 13.978 2.66394 14.3117 2.5597 15.0031C2.45547 15.6944 4.01098 16.497 4.01098 17.2042C4.01098 17.9115 2.46348 18.7141 2.5597 19.3975C2.65592 20.0809 4.37179 20.4385 4.57224 21.106C4.77269 21.7735 3.51386 22.9813 3.81052 23.6091C4.10719 24.2369 5.84711 24.1018 6.21594 24.6819C6.58477 25.262 5.73486 26.7797 6.21594 27.3042C6.69703 27.8287 8.30064 27.2009 8.83785 27.6618C9.37506 28.1227 8.96614 29.7994 9.55947 30.1808C10.1528 30.5623 11.5319 29.4974 12.1734 29.7914C12.8148 30.0855 12.911 31.8099 13.5926 32.0085C14.2741 32.2072 15.2844 30.8007 15.998 30.904C16.7116 31.0073 17.2728 32.6283 17.9865 32.6283C18.7001 32.6283 19.2854 30.9993 19.9749 30.904C20.6645 30.8086 21.7068 32.1992 22.3804 32.0085C23.0539 31.8178 23.1822 30.0775 23.7996 29.7914C24.4169 29.5054 25.8201 30.5861 26.4134 30.1808C27.0068 29.7756 26.6059 28.1147 27.1351 27.6618C27.6643 27.2088 29.2999 27.8287 29.757 27.3042C30.214 26.7797 29.3641 25.2699 29.757 24.6819C30.1499 24.0938 31.8818 24.2448 32.1624 23.6091C32.443 22.9734 31.2002 21.7735 31.4007 21.098C31.6011 20.4226 33.309 20.0968 33.4132 19.3975C33.5174 18.6982 31.9619 17.9115 31.9619 17.2042Z" fill="url(#paint0_linear_3137_33719)" stroke="#06234A" stroke-width="0.770461" stroke-miterlimit="10"/>
<path d="M18.0019 26.7876C23.2196 26.7876 27.4493 22.4969 27.4493 17.2042C27.4493 11.9114 23.2196 7.62073 18.0019 7.62073C12.7842 7.62073 8.55441 11.9114 8.55441 17.2042C8.55441 22.4969 12.7842 26.7876 18.0019 26.7876Z" fill="white" stroke="#06234A" stroke-width="0.770461" stroke-linecap="round" stroke-linejoin="round"/>
<path d="M17.476 11.7393C17.6814 11.2881 18.3223 11.2881 18.5278 11.7393L19.7098 14.3356C19.7934 14.5191 19.9666 14.6458 20.1668 14.6699L22.982 15.008C23.4694 15.0666 23.6664 15.6678 23.3082 16.0034L21.2167 17.9629C21.0714 18.0991 21.0064 18.3004 21.0447 18.4958L21.5984 21.3186C21.6934 21.8033 21.1759 22.1761 20.7463 21.9325L18.2869 20.5378C18.1101 20.4375 17.8936 20.4375 17.7168 20.5378L15.2574 21.9325C14.8278 22.1761 14.3103 21.8033 14.4053 21.3186L14.959 18.4958C14.9973 18.3004 14.9323 18.0991 14.787 17.9629L12.6955 16.0034C12.3373 15.6678 12.5343 15.0666 13.0217 15.008L15.8369 14.6699C16.0371 14.6458 16.2103 14.5191 16.2939 14.3356L17.476 11.7393Z" fill="#06234A"/>
<defs>
<linearGradient id="paint0_linear_3137_33719" x1="24.1933" y1="29.4436" x2="-1.31615" y2="6.71613" gradientUnits="userSpaceOnUse">
<stop stop-color="#06234A"/>
<stop offset="1" stop-color="#06234A"/>
</linearGradient>
</defs>
</svg>
