<svg width="35" height="35" viewBox="0 0 35 35" fill="none" xmlns="http://www.w3.org/2000/svg">
<path opacity="0.8" d="M34 20.2935V15.3216L29.0491 14.7697C28.7699 13.7326 28.3537 12.7374 27.8113 11.8103L30.9485 7.88517L27.4305 4.36917L23.5268 7.49503C22.6032 6.95175 21.6104 6.53565 20.5753 6.25801L20.0183 1.26709H15.0578L14.5056 6.23422C13.4682 6.50506 12.4722 6.91476 11.5446 7.45221L7.6219 4.31683L4.10388 7.83283L7.22678 11.739C6.68319 12.6621 6.26685 13.6543 5.98904 14.6888L1 15.2455V20.2174L5.96523 20.7693C6.23835 21.8053 6.64819 22.8005 7.18394 23.7286L4.04674 27.649L7.56478 31.165L11.4732 28.0439C12.3968 28.5872 13.3896 29.0033 14.4247 29.2809L14.9817 34.2671H19.9564L20.5087 29.3047C21.5454 29.0318 22.5411 28.6222 23.4697 28.0867L27.3924 31.2221L30.9104 27.7061L27.8113 23.8C28.3549 22.8769 28.7712 21.8846 29.0491 20.8501L34 20.2935ZM17.4905 23.7048C16.3152 23.702 15.1672 23.3509 14.1917 22.6958C13.2161 22.0408 12.4569 21.1114 12.01 20.0251C11.5631 18.9387 11.4486 17.7443 11.681 16.593C11.9134 15.4416 12.4822 14.385 13.3156 13.5567C14.1489 12.7285 15.2093 12.1659 16.3627 11.9401C17.516 11.7143 18.7104 11.8355 19.7948 12.2882C20.8793 12.741 21.805 13.505 22.4549 14.4836C23.1048 15.4623 23.4497 16.6116 23.4459 17.7861C23.4409 19.3576 22.8127 20.863 21.6991 21.9724C20.5854 23.0818 19.0772 23.7048 17.5048 23.7048H17.4905Z" stroke="#454545" stroke-linecap="round" stroke-linejoin="round"/>
</svg>
