<svg width="46" height="46" viewBox="0 0 46 46" fill="none" xmlns="http://www.w3.org/2000/svg">
<path d="M44.5343 26.1V19.541L38.0029 18.8129C37.6347 17.4448 37.0855 16.1319 36.37 14.9089L40.5087 9.73071L35.8676 5.09232L30.7179 9.21603C29.4994 8.49933 28.1896 7.9504 26.8241 7.58412L26.0894 1H19.5454L18.8169 7.55274C17.4483 7.91003 16.1343 8.45052 14.9106 9.15954L9.73575 5.02328L5.0947 9.66167L9.2145 14.8147C8.49739 16.0325 7.94813 17.3415 7.58165 18.7062L1 19.4406V25.9996L7.55024 26.7277C7.91054 28.0945 8.45121 29.4074 9.15798 30.6317L5.01932 35.8036L9.66039 40.442L14.8164 36.3245C16.0349 37.0412 17.3446 37.5902 18.7101 37.9564L19.4449 44.5343H26.0077L26.7362 37.9878C28.1039 37.6277 29.4175 37.0874 30.6425 36.381L35.8174 40.5173L40.4585 35.8789L36.37 30.7258C37.0872 29.5081 37.6364 28.1991 38.0029 26.8344L44.5343 26.1ZM22.7546 30.6003C21.2042 30.5966 19.6897 30.1334 18.4028 29.2693C17.1158 28.4052 16.1142 27.179 15.5246 25.7459C14.935 24.3128 14.784 22.7371 15.0905 21.2182C15.3971 19.6993 16.1476 18.3054 17.247 17.2128C18.3463 16.1202 19.7453 15.378 21.2667 15.0801C22.7882 14.7822 24.3639 14.942 25.7945 15.5393C27.2252 16.1366 28.4464 17.1445 29.3037 18.4355C30.1611 19.7266 30.6161 21.2427 30.6111 22.7923C30.6045 24.8654 29.7758 26.8513 28.3066 28.3149C26.8375 29.7785 24.8478 30.6003 22.7734 30.6003H22.7546Z" stroke="#454545" stroke-linecap="round" stroke-linejoin="round"/>
</svg>
