<svg width="88" height="16" viewBox="0 0 88 16" fill="none" xmlns="http://www.w3.org/2000/svg">
<path d="M7.45517 1.1812C7.66961 0.716276 8.33039 0.716276 8.54483 1.1812L10.1164 4.5884C10.2038 4.77788 10.3834 4.90835 10.5906 4.93292L14.3167 5.37471C14.8251 5.43499 15.0293 6.06342 14.6534 6.41104L11.8986 8.9586C11.7454 9.10027 11.6768 9.31137 11.7175 9.51604L12.4488 13.1963C12.5486 13.6985 12.014 14.0869 11.5672 13.8368L8.29307 12.004C8.11098 11.9021 7.88902 11.9021 7.70693 12.004L4.43279 13.8368C3.98602 14.0869 3.45145 13.6985 3.55123 13.1963L4.28249 9.51604C4.32316 9.31137 4.25457 9.10027 4.10136 8.9586L1.34657 6.41104C0.970672 6.06342 1.17486 5.43499 1.6833 5.37471L5.40939 4.93292C5.6166 4.90835 5.79618 4.77788 5.88358 4.5884L7.45517 1.1812Z" fill="url(#paint0_linear_4072_845)"/>
<path d="M25.4552 1.1812C25.6696 0.716276 26.3304 0.716276 26.5448 1.1812L28.1164 4.5884C28.2038 4.77788 28.3834 4.90835 28.5906 4.93292L32.3167 5.37471C32.8251 5.43499 33.0293 6.06342 32.6534 6.41104L29.8986 8.9586C29.7454 9.10027 29.6768 9.31137 29.7175 9.51604L30.4488 13.1963C30.5486 13.6985 30.014 14.0869 29.5672 13.8368L26.2931 12.004C26.111 11.9021 25.889 11.9021 25.7069 12.004L22.4328 13.8368C21.986 14.0869 21.4514 13.6985 21.5512 13.1963L22.2825 9.51604C22.3232 9.31137 22.2546 9.10027 22.1014 8.9586L19.3466 6.41104C18.9707 6.06342 19.1749 5.43499 19.6833 5.37471L23.4094 4.93292C23.6166 4.90835 23.7962 4.77788 23.8836 4.5884L25.4552 1.1812Z" fill="url(#paint1_linear_4072_845)"/>
<path d="M43.4552 1.1812C43.6696 0.716276 44.3304 0.716276 44.5448 1.1812L46.1164 4.5884C46.2038 4.77788 46.3834 4.90835 46.5906 4.93292L50.3167 5.37471C50.8251 5.43499 51.0293 6.06342 50.6534 6.41104L47.8986 8.9586C47.7454 9.10027 47.6768 9.31137 47.7175 9.51604L48.4488 13.1963C48.5486 13.6985 48.014 14.0869 47.5672 13.8368L44.2931 12.004C44.111 11.9021 43.889 11.9021 43.7069 12.004L40.4328 13.8368C39.986 14.0869 39.4514 13.6985 39.5512 13.1963L40.2825 9.51604C40.3232 9.31137 40.2546 9.10027 40.1014 8.9586L37.3466 6.41104C36.9707 6.06342 37.1749 5.43499 37.6833 5.37471L41.4094 4.93292C41.6166 4.90835 41.7962 4.77788 41.8836 4.5884L43.4552 1.1812Z" fill="url(#paint2_linear_4072_845)"/>
<path d="M61.4552 1.1812C61.6696 0.716276 62.3304 0.716276 62.5448 1.1812L64.1164 4.5884C64.2038 4.77788 64.3834 4.90835 64.5906 4.93292L68.3167 5.37471C68.8251 5.43499 69.0293 6.06342 68.6534 6.41104L65.8986 8.9586C65.7454 9.10027 65.6768 9.31137 65.7175 9.51604L66.4488 13.1963C66.5486 13.6985 66.014 14.0869 65.5672 13.8368L62.2931 12.004C62.111 11.9021 61.889 11.9021 61.7069 12.004L58.4328 13.8368C57.986 14.0869 57.4514 13.6985 57.5512 13.1963L58.2825 9.51604C58.3232 9.31137 58.2546 9.10027 58.1014 8.9586L55.3466 6.41104C54.9707 6.06342 55.1749 5.43499 55.6833 5.37471L59.4094 4.93292C59.6166 4.90835 59.7962 4.77788 59.8836 4.5884L61.4552 1.1812Z" fill="url(#paint3_linear_4072_845)"/>
<path d="M79.4552 1.1812C79.6696 0.716276 80.3304 0.716276 80.5448 1.1812L82.1164 4.5884C82.2038 4.77788 82.3834 4.90835 82.5906 4.93292L86.3167 5.37471C86.8251 5.43499 87.0293 6.06342 86.6534 6.41104L83.8986 8.9586C83.7454 9.10027 83.6768 9.31137 83.7175 9.51604L84.4488 13.1963C84.5486 13.6985 84.014 14.0869 83.5672 13.8368L80.2931 12.004C80.111 11.9021 79.889 11.9021 79.7069 12.004L76.4328 13.8368C75.986 14.0869 75.4514 13.6985 75.5512 13.1963L76.2825 9.51604C76.3232 9.31137 76.2546 9.10027 76.1014 8.9586L73.3466 6.41104C72.9707 6.06342 73.1749 5.43499 73.6833 5.37471L77.4094 4.93292C77.6166 4.90835 77.7962 4.77788 77.8836 4.5884L79.4552 1.1812Z" fill="url(#paint4_linear_4072_845)"/>
<defs>
<linearGradient id="paint0_linear_4072_845" x1="11.2177" y1="14.3486" x2="-2.0095" y2="2.56676" gradientUnits="userSpaceOnUse">
<stop stop-color="#FFB806"/>
<stop offset="1" stop-color="#FFB800"/>
</linearGradient>
<linearGradient id="paint1_linear_4072_845" x1="29.2177" y1="14.3486" x2="15.9905" y2="2.56676" gradientUnits="userSpaceOnUse">
<stop stop-color="#FFB806"/>
<stop offset="1" stop-color="#FFB800"/>
</linearGradient>
<linearGradient id="paint2_linear_4072_845" x1="47.2177" y1="14.3486" x2="33.9905" y2="2.56676" gradientUnits="userSpaceOnUse">
<stop stop-color="#FFB806"/>
<stop offset="1" stop-color="#FFB800"/>
</linearGradient>
<linearGradient id="paint3_linear_4072_845" x1="65.2177" y1="14.3486" x2="51.9905" y2="2.56676" gradientUnits="userSpaceOnUse">
<stop stop-color="#FFB806"/>
<stop offset="1" stop-color="#FFB800"/>
</linearGradient>
<linearGradient id="paint4_linear_4072_845" x1="83.2177" y1="14.3486" x2="69.9905" y2="2.56676" gradientUnits="userSpaceOnUse">
<stop stop-color="#FFB806"/>
<stop offset="1" stop-color="#FFB800"/>
</linearGradient>
</defs>
</svg>
