<svg width="32" height="32" viewBox="0 0 32 32" fill="none" xmlns="http://www.w3.org/2000/svg">
<g id="instagram_logo" clip-path="url(#clip0_5624_336)">
<g id="Group">
<path id="Vector" d="M22.4914 0H9.50857C4.29714 0 0 4.29714 0 9.50857V22.4C0 27.7029 4.29714 32 9.50857 32H22.4C27.7029 32 32 27.7029 32 22.4914V9.50857C32 4.29714 27.7029 0 22.4914 0ZM28.8 22.4914C28.8 25.9657 25.9657 28.8 22.4914 28.8H9.50857C6.03429 28.8 3.2 25.9657 3.2 22.4914V9.50857C3.2 6.03429 6.03429 3.2 9.50857 3.2H22.4C25.8743 3.2 28.7086 6.03429 28.7086 9.50857L28.8 22.4914Z" fill="#F3F3F3"/>
<path id="Vector_2" d="M15.9997 7.67969C11.4283 7.67969 7.67969 11.4283 7.67969 15.9997C7.67969 20.5711 11.4283 24.3197 15.9997 24.3197C20.5711 24.3197 24.3197 20.5711 24.3197 15.9997C24.3197 11.4283 20.5711 7.67969 15.9997 7.67969ZM15.9997 21.0283C13.1654 21.0283 10.9711 18.7425 10.9711 15.9997C10.9711 13.2568 13.2568 10.9711 15.9997 10.9711C18.834 10.9711 21.0283 13.2568 21.0283 15.9997C21.0283 18.834 18.834 21.0283 15.9997 21.0283Z" fill="#F3F3F3"/>
<path id="Vector_3" d="M24.32 9.78311C25.4309 9.78311 26.3315 8.88256 26.3315 7.77168C26.3315 6.6608 25.4309 5.76025 24.32 5.76025C23.2091 5.76025 22.3086 6.6608 22.3086 7.77168C22.3086 8.88256 23.2091 9.78311 24.32 9.78311Z" fill="#F3F3F3"/>
</g>
</g>
<defs>
<clipPath id="clip0_5624_336">
<rect width="32" height="32" fill="white"/>
</clipPath>
</defs>
</svg>
