

<svg width="46" height="46" viewBox="0 0 46 46" fill="none" xmlns="http://www.w3.org/2000/svg">
<g clip-path="url(#clip0_612_102)">
<path d="M10.7812 13.6562H6.46875V9.34375H10.7812V13.6562Z" fill="#06234A"/>
<path d="M10.7812 19.4062H6.46875V15.0938H10.7812V19.4062Z" fill="#06234A"/>
<path d="M10.7812 25.1562H6.46875V20.8438H10.7812V25.1562Z" fill="#06234A"/>
<path d="M10.7812 30.9062H6.46875V26.5938H10.7812V30.9062Z" fill="#06234A"/>
<path d="M10.7812 36.6562H6.46875V32.3438H10.7812V36.6562Z" fill="#06234A"/>
<path d="M12.2188 10.0625H29.4688V12.9375H12.2188V10.0625Z" fill="#06234A"/>
<path d="M12.2188 15.8125H20.8438V18.6875H12.2188V15.8125Z" fill="#06234A"/>
<path d="M12.2188 21.5625H19.4062V24.4375H12.2188V21.5625Z" fill="#06234A"/>
<path d="M41.1793 10.9918L36.6562 15.5149L35.7269 14.5856L34.7106 15.6019L36.6562 17.5476L42.1956 12.0082L41.1793 10.9918Z" fill="black"/>
<path d="M38.0938 6.46875C37.0717 6.46875 36.0999 6.68653 35.2188 7.07322V5.75C35.2188 3.76841 33.6066 2.15625 31.625 2.15625H26.5938C26.5938 1.36347 25.949 0.71875 25.1562 0.71875H22.2812C21.4885 0.71875 20.8438 1.36347 20.8438 2.15625H15.0938C15.0938 1.36347 14.449 0.71875 13.6562 0.71875H10.7812C9.98847 0.71875 9.34375 1.36347 9.34375 2.15625H4.3125C2.33091 2.15625 0.71875 3.76841 0.71875 5.75V41.6875C0.71875 43.6691 2.33091 45.2812 4.3125 45.2812H31.625C33.6066 45.2812 35.2188 43.6691 35.2188 41.6875V23.2976L37.6927 20.8236C37.8264 20.8308 37.9586 20.8438 38.0938 20.8438C42.0569 20.8438 45.2812 17.6194 45.2812 13.6562C45.2812 9.69306 42.0569 6.46875 38.0938 6.46875ZM31.625 3.59375C32.8138 3.59375 33.7812 4.56119 33.7812 5.75V7.91991C33.2364 8.33031 32.7527 8.81547 32.3438 9.36172V6.46875C32.3438 5.67597 31.699 5.03125 30.9062 5.03125H26.5938V3.59375H31.625ZM15.4078 32.2367L19.5133 36.3422L14.3398 38.0664C14.0063 38.1793 13.6555 37.9155 13.6562 37.5755C13.6562 37.5209 13.6656 37.4634 13.6821 37.4117L15.4078 32.2367ZM16.1101 30.9062L31.229 15.7873C31.5064 16.6786 31.9535 17.4958 32.5321 18.2016L17.9688 32.7649L16.1101 30.9062ZM22.2812 2.15625H25.1562L25.157 6.46875H22.2812V2.15625ZM20.8438 3.59375V5.03125H15.0938V3.59375H20.8438ZM10.7812 2.15625H13.6562L13.657 6.46875H10.7812V2.15625ZM13.6562 7.90625C14.449 7.90625 15.0938 7.26153 15.0938 6.46875H20.8438C20.8438 7.26153 21.4885 7.90625 22.2812 7.90625H25.1562C25.949 7.90625 26.5938 7.26153 26.5938 6.46875H30.9062V12.9698H30.9408C30.9192 13.1962 30.9062 13.4248 30.9062 13.6562C30.9062 13.7914 30.9192 13.9236 30.9264 14.0573L14.4656 30.5181L12.3179 36.9596C12.2525 37.1594 12.2188 37.3664 12.2188 37.5755C12.2188 38.6537 13.0963 39.5312 14.1745 39.5312C14.3836 39.5312 14.5906 39.4975 14.7926 39.4306L21.2319 37.2844L30.9062 27.6101V35.2188H25.1562V40.9688H5.03125V6.46875H9.34375C9.34375 7.26153 9.98847 7.90625 10.7812 7.90625H13.6562ZM29.8899 36.6562L26.5938 39.9524V36.6562H29.8899ZM33.7812 41.6875C33.7812 42.8763 32.8138 43.8438 31.625 43.8438H4.3125C3.12369 43.8438 2.15625 42.8763 2.15625 41.6875V5.75C2.15625 4.56119 3.12369 3.59375 4.3125 3.59375H9.34375V5.03125H5.03125C4.23847 5.03125 3.59375 5.67597 3.59375 6.46875V40.9688C3.59375 41.7615 4.23847 42.4062 5.03125 42.4062H26.1726L32.3438 36.2351V26.1726L33.7812 24.7351V41.6875ZM20.8438 35.6399L18.9851 33.7812L33.5477 19.2179C34.2535 19.7958 35.0707 20.2436 35.9619 20.521L20.8438 35.6399ZM38.0938 19.4062C34.9233 19.4062 32.3438 16.8267 32.3438 13.6562C32.3438 10.4858 34.9233 7.90625 38.0938 7.90625C41.2642 7.90625 43.8438 10.4858 43.8438 13.6562C43.8438 16.8267 41.2642 19.4062 38.0938 19.4062Z" fill="black"/>
<path d="M12.2188 9.34375H29.4688V10.7812H12.2188V9.34375Z" fill="black"/>
<path d="M12.2188 12.2188H29.4688V13.6562H12.2188V12.2188Z" fill="black"/>
<path d="M12.2188 15.0938H20.8438V16.5312H12.2188V15.0938Z" fill="black"/>
<path d="M12.2188 17.9688H20.8438V19.4062H12.2188V17.9688Z" fill="black"/>
<path d="M12.2188 20.8438H19.4062V22.2812H12.2188V20.8438Z" fill="black"/>
<path d="M12.2188 23.7188H19.4062V25.1562H12.2188V23.7188Z" fill="black"/>
</g>
<defs>
<clipPath id="clip0_612_102">
<rect width="46" height="46" fill="white"/>
</clipPath>
</defs>
</svg>
