

<svg width="46" height="46" viewBox="0 0 46 46" fill="none" xmlns="http://www.w3.org/2000/svg">
<path d="M22.9996 14.8788H15.5803L15.5804 14.0969V11.1293C15.5804 9.85092 16.2303 8.72171 17.2178 8.05398C16.6666 7.5146 16.3223 6.766 16.3223 5.93579C16.3223 4.2991 17.6533 2.96809 19.29 2.96809C20.9267 2.96809 22.2577 4.2991 22.2577 5.93579C22.2577 6.766 21.9134 7.5146 21.3622 8.05398C22.3497 8.72171 22.9996 9.85092 22.9996 11.1293V14.0969V14.8788Z" fill="url(#paint0_linear_612_140)"/>
<path d="M12.6127 16.3217H25.9673V17.8055H12.6127V16.3217Z" fill="#06234A"/>
<path d="M12.6127 19.2895H25.9673V20.7733H12.6127V19.2895Z" fill="#06234A"/>
<path d="M42.2896 15.5805C42.2896 12.7166 39.9593 10.387 37.0962 10.387C34.2331 10.387 31.9027 12.7166 31.9027 15.5805C31.9027 18.4443 34.2331 20.7739 37.0962 20.7739C39.9593 20.7739 42.2896 18.4443 42.2896 15.5805ZM37.0962 19.2901C35.0507 19.2901 33.3866 17.626 33.3866 15.5805C33.3866 13.535 35.0507 11.8709 37.0962 11.8709C39.1417 11.8709 40.8058 13.535 40.8058 15.5805C40.8058 17.626 39.1417 19.2901 37.0962 19.2901Z" fill="black"/>
<path d="M41.616 22.9047C43.2719 22.533 44.5154 21.0565 44.5154 19.29C44.5154 19.0578 44.4917 18.8241 44.4442 18.5896C45.4161 17.9004 45.9992 16.7957 45.9992 15.5804C45.9992 14.3651 45.4161 13.2604 44.4442 12.5712C44.4917 12.3367 44.5154 12.103 44.5154 11.8708C44.5154 9.82529 42.8513 8.16116 40.8058 8.16116C40.5736 8.16116 40.3391 8.1849 40.1061 8.23238C39.4169 7.26046 38.3114 6.67731 37.0962 6.67731V3.70962C37.0962 3.30008 36.7645 2.96769 36.3542 2.96769H34.1285V0.741923C34.1285 0.332382 33.7968 0 33.3865 0H8.16116C7.9638 0 7.77536 0.077902 7.63662 0.217384L0.217384 7.63662C0.077902 7.77536 0 7.96455 0 8.16116V42.2896C0 42.6999 0.33164 43.0316 0.741923 43.0316H2.96769V45.2573C2.96769 45.6676 3.29933 45.9993 3.70962 45.9993H36.3542C36.7645 45.9993 37.0962 45.6676 37.0962 45.2573V24.4835C37.1711 24.4835 37.2445 24.4746 37.3187 24.4701L39.3694 29.9381C39.4674 30.1985 39.7025 30.3825 39.9793 30.4144C40.0075 30.4174 40.0357 30.4189 40.0639 30.4189C40.3102 30.4189 40.5431 30.2964 40.6811 30.0887L41.8897 28.2769L45.1119 28.9209C45.425 28.9862 45.7411 28.84 45.8998 28.5655C46.0593 28.2903 46.026 27.9445 45.8167 27.7056L41.616 22.9047ZM35.6123 4.45154V6.99263C35.0277 7.24933 34.5158 7.65368 34.1285 8.17971V4.45154H35.6123ZM7.41923 2.53293V7.41923H2.53293L7.41923 2.53293ZM1.48385 8.90308H8.16116C8.57144 8.90308 8.90308 8.5707 8.90308 8.16116V1.48385H32.6446V8.23609C30.9538 8.58109 29.6769 10.079 29.6769 11.8708C29.6769 12.103 29.7007 12.3367 29.7482 12.5712C28.7762 13.2604 28.1931 14.3651 28.1931 15.5804C28.1931 16.7957 28.7762 17.9004 29.7482 18.5896C29.7007 18.8241 29.6769 19.0578 29.6769 19.29C29.6769 21.0565 30.9204 22.533 32.5764 22.9047L28.3763 27.7049C28.1671 27.9438 28.1337 28.2895 28.2932 28.5648C28.452 28.8386 28.7688 28.9869 29.0812 28.9202L32.3033 28.2762L32.6446 28.7889V41.5477H1.48385V8.90308ZM33.9422 28.0603L33.2619 27.0394C33.095 26.7894 32.796 26.661 32.4992 26.7233L30.933 27.0364L34.2984 23.191C34.6174 23.565 35.001 23.8692 35.4328 24.0873L33.9422 28.0603ZM4.45154 44.5154V43.0316H33.3865C33.7968 43.0316 34.1285 42.6999 34.1285 42.2896V30.4189C34.1567 30.4189 34.1849 30.4174 34.2131 30.4137C34.4898 30.3818 34.725 30.1978 34.8229 29.9374L35.6123 27.834V44.5154H4.45154ZM35.1004 21.7354C34.9735 21.4727 34.7094 21.3162 34.4327 21.3162C34.3451 21.3162 34.2561 21.3318 34.17 21.3644C32.629 21.9498 31.1608 20.7716 31.1608 19.29C31.1608 19.0326 31.2097 18.7766 31.3121 18.5065C31.4479 18.1474 31.2869 17.7438 30.9412 17.5769C30.1614 17.1993 29.6769 16.4343 29.6769 15.5804C29.6769 14.7264 30.1614 13.9615 30.9412 13.5846C31.2869 13.4169 31.4479 13.0141 31.3121 12.655C31.2097 12.3842 31.1608 12.1282 31.1608 11.8708C31.1608 10.3892 32.629 9.21172 34.1693 9.79636C34.5276 9.93287 34.9335 9.77187 35.1004 9.4254C35.4765 8.64563 36.2415 8.16116 37.0962 8.16116C37.9509 8.16116 38.7158 8.64563 39.0919 9.4254C39.2589 9.77113 39.6647 9.93213 40.0231 9.79636C41.5633 9.21172 43.0315 10.3892 43.0315 11.8708C43.0315 12.1282 42.9826 12.3842 42.8802 12.6542C42.7444 13.0133 42.9054 13.4169 43.2512 13.5839C44.0309 13.9615 44.5154 14.7264 44.5154 15.5804C44.5154 16.4343 44.0309 17.1993 43.2512 17.5762C42.9054 17.7438 42.7444 18.1467 42.8802 18.5058C42.9826 18.7766 43.0315 19.0326 43.0315 19.29C43.0315 20.7716 41.5633 21.9491 40.0231 21.3644C39.6662 21.2294 39.2596 21.3889 39.0919 21.7354C38.7158 22.5152 37.9501 22.9996 37.0962 22.9996C36.2422 22.9996 35.4765 22.5152 35.1004 21.7354ZM41.6931 26.7241C41.4001 26.6632 41.0966 26.7901 40.9304 27.0401L40.2501 28.061L38.7603 24.088C39.1921 23.8699 39.5757 23.5657 39.8947 23.1918L43.2601 27.0372L41.6931 26.7241Z" fill="#06234A"/>
<path d="M38.7426 12.8908L36.2928 15.9527L35.395 15.055L34.3459 16.1041L35.8298 17.5879C35.9685 17.7281 36.1577 17.806 36.3543 17.806C36.3684 17.806 36.3818 17.806 36.3959 17.8053C36.6058 17.7934 36.8025 17.6925 36.9345 17.5278L39.9022 13.8182L38.7426 12.8908Z" fill="black"/>
<path d="M2.7052 33.1814V36.0557V36.7742V38.93H17.0767V36.7742H28.574H30.0111H31.4483V33.1814H2.7052Z" fill="url(#paint1_linear_612_140)"/>
<path d="M2.7052 32.4628H31.4483V33.8999H2.7052V32.4628Z" fill="#06234A"/>
<path d="M30.0111 35.3371H31.4483V36.7742H30.0111V35.3371Z" fill="#06234A"/>
<path d="M2.7052 35.3371H28.574V36.7742H2.7052V35.3371Z" fill="#06234A"/>
<path d="M2.7052 38.2114H17.0767V39.6485H2.7052V38.2114Z" fill="#06234A"/>
<defs>
<linearGradient id="paint0_linear_612_140" x1="20.782" y1="13.6494" x2="12.3714" y2="8.98286" gradientUnits="userSpaceOnUse">
<stop stop-color="#06234A"/>
<stop offset="1" stop-color="#06234A"/>
</linearGradient>
<linearGradient id="paint1_linear_612_140" x1="22.8571" y1="38.3366" x2="20.8118" y2="29.2274" gradientUnits="userSpaceOnUse">
<stop stop-color="#06234A"/>
<stop offset="1" stop-color="#06234A"/>
</linearGradient>
</defs>
</svg>
