

<svg width="46" height="46" viewBox="0 0 46 46" fill="none" xmlns="http://www.w3.org/2000/svg">
<path d="M3.70972 28.2372H6.67746V31.2049H3.70972V28.2372Z" fill="url(#paint0_linear_407_1727)"/>
<path d="M3.70972 40.1082H6.67746V43.0759H3.70972V40.1082Z" fill="url(#paint1_linear_407_1727)"/>
<path d="M3.70972 16.3662H6.67746V19.334H3.70972V16.3662Z" fill="url(#paint2_linear_407_1727)"/>
<path d="M17.8064 31.9469V34.9146V38.6243H29.6774V34.9146H43.0322V31.9469H17.8064Z" fill="url(#paint3_linear_407_1727)"/>
<path d="M45.2989 6.73603L38.775 0.603935C38.3603 0.214419 37.8194 0 37.2511 0H17.0645C15.8374 0 14.8387 0.998645 14.8387 2.22581V13.3751L1.57365 13.4639C0.665516 13.7444 0 14.582 0 15.5806V20.0323C0 21.2594 0.998645 22.2581 2.22581 22.2581V25.2258C0.998645 25.2258 0 26.2245 0 27.4516V31.9032C0 33.1304 0.998645 34.129 2.22581 34.129V37.0968C0.998645 37.0968 0 38.0954 0 39.3226V43.7742C0 45.0014 0.998645 46 2.22581 46H21.5161C22.7433 46 23.7419 45.0014 23.7419 43.7742V41.5484H43.7742C45.0014 41.5484 46 40.5497 46 39.3226V8.3579C46 7.74655 45.7448 7.15597 45.2989 6.73603ZM38.5806 2.45729L43.8595 7.41935H39.3226C38.913 7.41935 38.5806 7.08623 38.5806 6.67742V2.45729ZM1.48387 20.0323V15.5806C1.48387 15.1852 1.79697 14.8669 2.18797 14.8461H4.54854C5.14876 14.8461 8.84535 14.8387 8.84535 14.8387H14.8387V20.7742H2.22581C1.81626 20.7742 1.48387 20.4411 1.48387 20.0323ZM3.70968 22.2581H14.8387V25.2258H3.70968V22.2581ZM1.48387 31.9032V27.4516C1.48387 27.0428 1.81626 26.7097 2.22581 26.7097H14.8387V32.6452H2.22581C1.81626 32.6452 1.48387 32.312 1.48387 31.9032ZM3.70968 34.129H14.8387V37.0968H3.70968V34.129ZM22.2581 43.7742C22.2581 44.183 21.9257 44.5161 21.5161 44.5161H2.22581C1.81626 44.5161 1.48387 44.183 1.48387 43.7742V39.3226C1.48387 38.9138 1.81626 38.5806 2.22581 38.5806H14.8387V39.3226C14.8387 40.5497 15.8374 41.5484 17.0645 41.5484H22.2581V43.7742ZM43.7742 40.0645H17.0645C16.655 40.0645 16.3226 39.7314 16.3226 39.3226V11.871V2.22581C16.3226 1.817 16.655 1.48387 17.0645 1.48387H37.0968V6.67742C37.0968 7.90458 38.0954 8.90323 39.3226 8.90323H44.5161V39.3226C44.5161 39.7314 44.1837 40.0645 43.7742 40.0645Z" fill="#06234A"/>
<path d="M2.96777 40.1082H4.45164V43.0759H2.96777V40.1082Z" fill="#06234A"/>
<path d="M5.93555 40.1082H7.41942V43.0759H5.93555V40.1082Z" fill="#06234A"/>
<path d="M2.96777 28.2372H4.45164V31.2049H2.96777V28.2372Z" fill="#06234A"/>
<path d="M5.93555 28.2372H7.41942V31.2049H5.93555V28.2372Z" fill="#06234A"/>
<path d="M2.96777 16.3662H4.45164V19.334H2.96777V16.3662Z" fill="#06234A"/>
<path d="M5.93555 16.3662H7.41942V19.334H5.93555V16.3662Z" fill="#06234A"/>
<path d="M20.7742 3.01138H22.258V4.49525H20.7742V3.01138Z" fill="#06234A"/>
<path d="M17.8064 3.01138H19.2903V4.49525H17.8064V3.01138Z" fill="#06234A"/>
<path d="M23.7419 3.01138H25.2258V4.49525H23.7419V3.01138Z" fill="#06234A"/>
<path d="M17.8064 31.2049H43.0322V32.6888H17.8064V31.2049Z" fill="#06234A"/>
<path d="M17.8064 34.1727H43.0322V35.6565H17.8064V34.1727Z" fill="#06234A"/>
<path d="M17.8064 37.1404H26.7096V38.6243H17.8064V37.1404Z" fill="#06234A"/>
<path d="M28.1936 37.1404H29.6775V38.6243H28.1936V37.1404Z" fill="#06234A"/>
<path d="M36.5178 17.2333C36.5178 14.2763 34.1116 11.871 31.1555 11.871C28.1993 11.871 25.7932 14.2763 25.7932 17.2333C25.7932 20.1902 28.1993 22.5955 31.1555 22.5955C34.1116 22.5955 36.5178 20.1902 36.5178 17.2333ZM31.1555 21.0635C29.0435 21.0635 27.3253 19.3452 27.3253 17.2333C27.3253 15.1213 29.0435 13.4031 31.1555 13.4031C33.2675 13.4031 34.9857 15.1213 34.9857 17.2333C34.9857 19.3452 33.2675 21.0635 31.1555 21.0635Z" fill="black"/>
<path d="M32.8552 14.4561L30.3258 17.6176L29.3989 16.6907L28.3157 17.7739L29.8478 19.3059C29.991 19.4507 30.1863 19.5312 30.3893 19.5312C30.4039 19.5312 30.4177 19.5312 30.4322 19.5304C30.649 19.5181 30.852 19.414 30.9884 19.2439L34.0526 15.4137L32.8552 14.4561Z" fill="black"/>
<defs>
<linearGradient id="paint0_linear_407_1727" x1="5.79042" y1="30.8986" x2="3.33699" y2="28.7133" gradientUnits="userSpaceOnUse">
<stop stop-color="#06234A"/>
<stop offset="1" stop-color="#06234A"/>
</linearGradient>
<linearGradient id="paint1_linear_407_1727" x1="5.79042" y1="42.7696" x2="3.33699" y2="40.5842" gradientUnits="userSpaceOnUse">
<stop stop-color="#06234A"/>
<stop offset="1" stop-color="#06234A"/>
</linearGradient>
<linearGradient id="paint2_linear_407_1727" x1="5.79042" y1="19.0277" x2="3.33699" y2="16.8423" gradientUnits="userSpaceOnUse">
<stop stop-color="#06234A"/>
<stop offset="1" stop-color="#06234A"/>
</linearGradient>
<linearGradient id="paint3_linear_407_1727" x1="35.4923" y1="37.9351" x2="32.4574" y2="27.7226" gradientUnits="userSpaceOnUse">
<stop stop-color="#06234A"/>
<stop offset="1" stop-color="#06234A"/>
</linearGradient>
</defs>
</svg>
