<svg width="186" height="97" viewBox="0 0 186 97" fill="none" xmlns="http://www.w3.org/2000/svg">
<path fill-rule="evenodd" clip-rule="evenodd" d="M181.637 88.4333C179.316 88.4333 177.433 90.3156 177.433 92.6376C177.433 94.9595 179.316 96.8418 181.637 96.8418C183.959 96.8418 185.842 94.9595 185.842 92.6376C185.842 90.3156 183.959 88.4333 181.637 88.4333ZM181.637 29.5743C179.316 29.5743 177.433 31.4566 177.433 33.7786C177.433 36.1005 179.316 37.9828 181.637 37.9828C183.959 37.9828 185.842 36.1005 185.842 33.7786C185.842 31.4566 183.959 29.5743 181.637 29.5743ZM177.433 63.2078C177.433 60.8859 179.316 59.0036 181.637 59.0036C183.959 59.0036 185.842 60.8859 185.842 63.2078C185.842 65.5298 183.959 67.4121 181.637 67.4121C179.316 67.4121 177.433 65.5298 177.433 63.2078ZM181.637 0.144607C179.316 0.144607 177.433 2.02691 177.433 4.34884C177.433 6.67077 179.316 8.55307 181.637 8.55307C183.959 8.55307 185.842 6.67077 185.842 4.34884C185.842 2.02691 183.959 0.144607 181.637 0.144607ZM148.004 92.6376C148.004 90.3156 149.886 88.4333 152.208 88.4333C154.53 88.4333 156.412 90.3156 156.412 92.6376C156.412 94.9595 154.53 96.8418 152.208 96.8418C149.886 96.8418 148.004 94.9595 148.004 92.6376ZM152.208 29.5743C149.886 29.5743 148.004 31.4566 148.004 33.7786C148.004 36.1005 149.886 37.9828 152.208 37.9828C154.53 37.9828 156.412 36.1005 156.412 33.7786C156.412 31.4566 154.53 29.5743 152.208 29.5743ZM148.004 63.2078C148.004 60.8859 149.886 59.0036 152.208 59.0036C154.53 59.0036 156.412 60.8859 156.412 63.2078C156.412 65.5298 154.53 67.4121 152.208 67.4121C149.886 67.4121 148.004 65.5298 148.004 63.2078ZM152.208 0.144605C149.886 0.144604 148.004 2.02691 148.004 4.34884C148.004 6.67077 149.886 8.55307 152.208 8.55307C154.53 8.55307 156.412 6.67077 156.412 4.34884C156.412 2.02691 154.53 0.144605 152.208 0.144605ZM118.574 92.6376C118.574 90.3156 120.456 88.4333 122.778 88.4333C125.1 88.4333 126.982 90.3156 126.982 92.6376C126.982 94.9595 125.1 96.8418 122.778 96.8418C120.456 96.8418 118.574 94.9595 118.574 92.6376ZM122.778 29.5743C120.456 29.5743 118.574 31.4566 118.574 33.7786C118.574 36.1005 120.456 37.9828 122.778 37.9828C125.1 37.9828 126.982 36.1005 126.982 33.7786C126.982 31.4566 125.1 29.5743 122.778 29.5743ZM118.574 63.2078C118.574 60.8859 120.456 59.0036 122.778 59.0036C125.1 59.0036 126.982 60.8859 126.982 63.2078C126.982 65.5298 125.1 67.4121 122.778 67.4121C120.456 67.4121 118.574 65.5298 118.574 63.2078ZM122.778 0.144602C120.456 0.144602 118.574 2.0269 118.574 4.34883C118.574 6.67076 120.456 8.55306 122.778 8.55306C125.1 8.55306 126.982 6.67076 126.982 4.34883C126.982 2.0269 125.1 0.144602 122.778 0.144602ZM89.1444 92.6376C89.1444 90.3156 91.0267 88.4333 93.3486 88.4333C95.6705 88.4333 97.5528 90.3156 97.5528 92.6376C97.5528 94.9595 95.6705 96.8418 93.3486 96.8418C91.0267 96.8418 89.1444 94.9595 89.1444 92.6376ZM34.4894 88.4333C32.1674 88.4333 30.2851 90.3156 30.2851 92.6376C30.2851 94.9595 32.1674 96.8418 34.4894 96.8418C36.8113 96.8418 38.6936 94.9595 38.6936 92.6376C38.6936 90.3156 36.8113 88.4333 34.4894 88.4333ZM89.1444 33.7786C89.1444 31.4566 91.0267 29.5743 93.3486 29.5743C95.6705 29.5743 97.5528 31.4566 97.5528 33.7786C97.5528 36.1005 95.6705 37.9828 93.3486 37.9828C91.0267 37.9828 89.1444 36.1005 89.1444 33.7786ZM34.4894 29.5743C32.1674 29.5743 30.2851 31.4566 30.2851 33.7786C30.2851 36.1005 32.1674 37.9828 34.4894 37.9828C36.8113 37.9828 38.6936 36.1005 38.6936 33.7786C38.6936 31.4566 36.8113 29.5743 34.4894 29.5743ZM89.1444 63.2078C89.1444 60.8859 91.0267 59.0036 93.3486 59.0036C95.6705 59.0036 97.5528 60.8859 97.5528 63.2078C97.5528 65.5298 95.6705 67.4121 93.3486 67.4121C91.0267 67.4121 89.1444 65.5298 89.1444 63.2078ZM34.4894 59.0036C32.1674 59.0036 30.2851 60.8859 30.2851 63.2078C30.2851 65.5298 32.1674 67.4121 34.4894 67.4121C36.8113 67.4121 38.6936 65.5298 38.6936 63.2078C38.6936 60.8859 36.8113 59.0036 34.4894 59.0036ZM89.1444 4.34883C89.1444 2.0269 91.0267 0.144599 93.3486 0.144599C95.6705 0.1446 97.5528 2.0269 97.5528 4.34883C97.5528 6.67076 95.6705 8.55306 93.3486 8.55306C91.0267 8.55306 89.1444 6.67076 89.1444 4.34883ZM34.4894 0.144594C32.1674 0.144594 30.2851 2.0269 30.2851 4.34883C30.2851 6.67076 32.1674 8.55306 34.4894 8.55306C36.8113 8.55306 38.6936 6.67076 38.6936 4.34883C38.6936 2.0269 36.8113 0.144595 34.4894 0.144594ZM59.7148 92.6376C59.7148 90.3156 61.5971 88.4333 63.919 88.4333C66.2409 88.4333 68.1232 90.3156 68.1232 92.6376C68.1232 94.9595 66.2409 96.8418 63.919 96.8418C61.5971 96.8418 59.7148 94.9595 59.7148 92.6376ZM5.05977 88.4333C2.73782 88.4333 0.85553 90.3156 0.85553 92.6376C0.85553 94.9595 2.73782 96.8418 5.05977 96.8418C7.3817 96.8418 9.26399 94.9595 9.26399 92.6376C9.26399 90.3156 7.3817 88.4333 5.05977 88.4333ZM59.7148 33.7786C59.7148 31.4566 61.5971 29.5743 63.919 29.5743C66.2409 29.5743 68.1232 31.4566 68.1232 33.7786C68.1232 36.1005 66.2409 37.9828 63.919 37.9828C61.5971 37.9828 59.7148 36.1005 59.7148 33.7786ZM5.05977 29.5743C2.73783 29.5743 0.855536 31.4566 0.855535 33.7786C0.855535 36.1005 2.73783 37.9828 5.05977 37.9828C7.3817 37.9828 9.264 36.1005 9.264 33.7786C9.264 31.4566 7.3817 29.5743 5.05977 29.5743ZM59.7148 63.2078C59.7148 60.8859 61.5971 59.0036 63.919 59.0036C66.2409 59.0036 68.1232 60.8859 68.1232 63.2078C68.1232 65.5298 66.2409 67.4121 63.919 67.4121C61.5971 67.4121 59.7148 65.5298 59.7148 63.2078ZM5.05977 59.0036C2.73783 59.0036 0.855533 60.8859 0.855533 63.2078C0.855533 65.5298 2.73783 67.412 5.05977 67.412C7.3817 67.412 9.264 65.5298 9.264 63.2078C9.264 60.8859 7.3817 59.0036 5.05977 59.0036ZM59.7148 4.34883C59.7148 2.0269 61.5971 0.144597 63.919 0.144597C66.2409 0.144597 68.1232 2.0269 68.1232 4.34883C68.1232 6.67076 66.2409 8.55306 63.919 8.55306C61.5971 8.55306 59.7148 6.67076 59.7148 4.34883ZM5.05978 0.144592C2.73783 0.144592 0.855538 2.02689 0.855538 4.34882C0.855538 6.67075 2.73783 8.55305 5.05978 8.55305C7.38171 8.55305 9.264 6.67075 9.264 4.34882C9.264 2.02689 7.38171 0.144592 5.05978 0.144592Z" fill="#fff"/>
</svg>
