<svg width="18" height="19" viewBox="0 0 18 19" fill="none" xmlns="http://www.w3.org/2000/svg">
<path d="M11.3656 11.5323L12.2128 12.504L12.5557 12.2014L17.6477 18.0012L16.5157 19L11.4237 13.2003L11.7668 12.8975L10.92 11.9261C9.76851 12.8568 8.30286 13.4141 6.70705 13.4141C3.00285 13.4141 0 10.4112 0 6.70705C0 3.00285 3.00285 0 6.70705 0C10.4112 0 13.4141 3.00285 13.4141 6.70705C13.4141 8.60155 12.6286 10.3126 11.3656 11.5323ZM6.70705 12.6364C9.98173 12.6364 12.6364 9.98173 12.6364 6.70705C12.6364 3.43237 9.98173 0.777712 6.70705 0.777712C3.43237 0.777712 0.777712 3.43237 0.777712 6.70705C0.777712 9.98173 3.43237 12.6364 6.70705 12.6364Z" fill="url(#paint0_linear)"/>
<mask id="mask0" mask-type="alpha" maskUnits="userSpaceOnUse" x="6" y="2" width="6" height="5">
<path d="M11.3833 2.03577H6.70206V6.7174H11.3833V2.03577Z" fill="url(#paint1_linear)"/>
</mask>
<g mask="url(#mask0)">
<path d="M6.70954 11.3833C4.12829 11.3833 2.03577 9.2908 2.03577 6.70954C2.03577 4.12829 4.12829 2.03577 6.70954 2.03577C9.2908 2.03577 11.3833 4.12829 11.3833 6.70954C11.3833 9.2908 9.2908 11.3833 6.70954 11.3833ZM6.70954 10.7428C8.93708 10.7428 10.7428 8.93708 10.7428 6.70954C10.7428 4.48201 8.93708 2.67624 6.70954 2.67624C4.48201 2.67624 2.67624 4.48201 2.67624 6.70954C2.67624 8.93708 4.48201 10.7428 6.70954 10.7428Z" fill="url(#paint2_linear)"/>
</g>
<defs>
<linearGradient id="paint0_linear" x1="12.3729" y1="17.039" x2="-3.1598" y2="4.18828" gradientUnits="userSpaceOnUse">
<stop stop-color="#FFB806"/>
<stop offset="1" stop-color="#FFB800"/>
</linearGradient>
<linearGradient id="paint1_linear" x1="9.98413" y1="6.2342" x2="6.11386" y2="2.7871" gradientUnits="userSpaceOnUse">
<stop stop-color="#FFB806"/>
<stop offset="1" stop-color="#FFB800"/>
</linearGradient>
<linearGradient id="paint2_linear" x1="8.58938" y1="10.4185" x2="0.861773" y2="3.53532" gradientUnits="userSpaceOnUse">
<stop stop-color="#FFB806"/>
<stop offset="1" stop-color="#FFB800"/>
</linearGradient>
</defs>
</svg>
